# File generated by ImageToStl.com - Free Image and 3D model conversion tools

o obj1
v 1520.5 -18238.5 0
v 1577.23 -18140.6 0
v 1421 -18060 0
v 1373 -18153 0
v 1469 -17967 0
v 1732.21 -18054.2 0
v 1577 -17874 0
v 1685 -17781 0
v 1872.87 -18058.6 0
v 2252.98 -17861.2 0
v 2171 -17617.5 0
v 2448.32 -18002.7 0
v 2999.66 -17739.8 0
v 3081.4 -17295.1 0
v 2836.7 -17098.7 0
v 2555 -17329.5 0
v 2657 -17454 0
v 2453 -17205 0
v 2681.53 -16799.4 0
v 2334.5 -17002.5 0
v 2688.07 -16668.5 0
v 2524 -16505.4 0
v 2165 -16594.5 0
v 2216 -16800 0
v 2436.45 -16187.4 0
v 2118.5 -16180.5 0
v 2114 -16389 0
v 2123 -15972 0
v 2567.06 -15782.1 0
v 2280.3 -15520.7 0
v 3054 -13300.6 0
v 3463.78 -13443.4 0
v 3382.98 -12854.1 0
v 3190.5 -12845 0
v 3187 -12919 0
v 3512.33 -12303.6 0
v 3229.97 -12179.4 0
v 2917 -12503.5 0
v 3194 -12771 0
v 3218.4 -12155.4 0
v 2447.64 -11742.7 0
v 2314 -11858 0
v 2640 -12236 0
v 2477.74 -11545.9 0
v 2142.99 -11075.4 0
v 1781.05 -11121.4 0
v 1988 -11480 0
v 1490.95 -10618.6 0
v 1860.76 -10132.5 0
v 1500.29 -9681.52 0
v 1040.54 -9628.58 0
v 1284 -10260 0
v 792 -8984 0
v 1029.19 -9599.15 0
v 1111.31 -8991.4 0
v 790.318 -8791.36 0
v 756 -8798 0
v 720 -8612 0
v 842 -8660 0
v 1226.07 -8846.08 0
v 962.226 -8544.54 0
v 902 -8572 0
v 964 -8708 0
v 840 -8436 0
v 982 -8502 0
v 1300.4 -8802 0
v 1337.06 -8697.04 0
v 1152.83 -8377.71 0
v 1058 -8420 0
v 1124 -8568 0
v 992 -8272 0
v 1162 -8360 0
v 1495.24 -8554.97 0
v 1341.85 -8255.16 0
v 1270 -8282 0
v 1332 -8448 0
v 1208 -8116 0
v 1356 -8238 0
v 1677.87 -8515.28 0
v 1667.13 -8292.37 0
v 1590 -8238 0
v 1504 -8360 0
v 1676 -8116 0
v 1756 -8230 0
v 1836 -8344 0
v 1908.81 -8666.47 0
v 2034 -8540 0
v 1920.86 -9132.1 0
v 2426.73 -9202.39 0
v 2578 -8924 0
v 2232 -8736 0
v 1904.03 -9091.12 0
v 2924 -9112 0
v 2739.07 -9724.08 0
v 2810.15 -9744.73 0
v 3008.91 -9681.44 0
v 3246 -9328 0
v 3667.01 -9983.73 0
v 3913.84 -9851.82 0
v 3966 -9752 0
v 3568 -9544 0
v 4203.31 -10171.1 0
v 4624.69 -9910.95 0
v 4460.02 -9485.78 0
v 4201.61 -9603.47 0
v 4364 -9960 0
v 3880.06 -8897.49 0
v 3916.46 -8880.91 0
v 3907.85 -8583.13 0
v 3760.93 -8556.47 0
v 3827 -8781 0
v 3682.07 -8288.53 0
v 4110.16 -7888.18 0
v 4113.33 -7802.39 0
v 4081.1 -7749.27 0
v 3600 -7776 0
v 3616 -8064 0
v 4080.31 -7619.01 0
v 3772 -7304 0
v 3584 -7488 0
v 4246.46 -7336.74 0
v 4140.59 -7005.68 0
v 4048 -6956 0
v 3960 -7120 0
v 4388.03 -6738.64 0
v 4254.25 -6502.82 0
v 4136 -6792 0
v 4756.35 -6170.48 0
v 4934.66 -5780.04 0
v 4630 -5626 0
v 4540 -5804 0
v 4385.44 -6181.99 0
v 5236.04 -5567.77 0
v 5311.17 -5403.59 0
v 4930 -5142 0
v 4720 -5448 0
v 5562.35 -5277.52 0
v 5416.65 -4417.04 0
v 4871.02 -4330.87 0
v 4766 -4740 0
v 5140 -4836 0
v 4770.58 -4205.02 0
v 4233.65 -4201.34 0
v 4108 -4538 0
v 4392 -4644 0
v 3919.41 -3932.55 0
v 3354.4 -4124.89 0
v 3824 -4432 0
v 3135.73 -3981.88 0
v 3076.95 -3349.46 0
v 2828 -3149.92 0
v 2221.95 -3197.33 0
v 2160 -3276 0
v 2668 -3676 0
v 2078.17 -2587.98 0
v 1330.32 -2400.57 0
v 1294.19 -2429.53 0
v 1652 -2876 0
v 296 -1184 0
v 491.221 -1355.61 0
v 400 -1140 0
v 456.095 -1383.76 0
v 504 -1096 0
v 953.209 -1249.3 0
v 2520 -1784 0
v 2016 -1612 0
v 2010.29 -1628.75 0
v 2322.02 -2237.71 0
v 2624.68 -2214.04 0
v 2757.93 -1878.48 0
v 3754 -2274 0
v 3374.93 -2123.48 0
v 3271.09 -2384.99 0
v 3756.15 -2743.55 0
v 4131.71 -2526.84 0
v 4970 -3088 0
v 4592.29 -2835.16 0
v 4531.14 -3294.5 0
v 4888.75 -3598.46 0
v 5356.18 -3425.59 0
v 6162 -4130 0
v 5775.82 -3792.41 0
v 5675.17 -4242.18 0
v 6320.77 -4620 0
v 6365.37 -4611.03 0
v 6628.37 -4113.37 0
v 7097.63 -4096.63 0
v 7448.11 -4658.83 0
v 7956.99 -4179.48 0
v 7564 -4080 0
v 8682 -4363 0
v 8289.01 -4263.52 0
v 8488.74 -4867.41 0
v 9198.72 -4637.38 0
v 9207 -4620.5 0
v 9732 -4878 0
v 9470.99 -5393.87 0
v 9683.94 -5486.8 0
v 9790.77 -5462.52 0
v 10053.5 -5139.5 0
v 10436.3 -5866.77 0
v 10813.6 -5559.44 0
v 10790 -5200.18 0
v 10375 -5401 0
v 11330.6 -4938.63 0
v 11669.3 -5214.77 0
v 12124.5 -5021.6 0
v 12158.2 -4617.93 0
v 11708 -4756 0
v 12809.8 -4418.07 0
v 13214.1 -4919.72 0
v 13652.3 -4681.66 0
v 13857.7 -4216.24 0
v 13848 -4166 0
v 13260 -4280 0
v 14545.6 -4452.25 0
v 14971.7 -4002.03 0
v 14436 -4052 0
v 15199.3 -3980.79 0
v 15477.2 -4367.54 0
v 15723.1 -4430.84 0
v 16223.6 -4100.05 0
v 16224 -3924.9 0
v 15808 -3924 0
v 17664 -3928 0
v 17151.9 -3960.96 0
v 17573.5 -4140.5 0
v 17152 -3926.9 0
v 17483 -4353 0
v 16864.7 -4527.72 0
v 16894.4 -4716.52 0
v 16976 -4807.5 0
v 16469 -5262 0
v 16039.6 -5012.88 0
v 15856 -5498.73 0
v 15889 -5562.5 0
v 15309 -5863 0
v 15209.3 -5332.32 0
v 14782 -5732.21 0
v 14852.5 -5988.5 0
v 14396 -6114 0
v 14243.2 -5561.41 0
v 13852.1 -5835.59 0
v 13895 -6177 0
v 13394 -6240 0
v 13420 -5672.34 0
v 12864.3 -6147.85 0
v 12866 -6249 0
v 12338 -6258 0
v 12411.8 -5786.61 0
v 11896.7 -6000.16 0
v 11865.5 -6172.5 0
v 11393 -6087 0
v 11580.6 -5655.85 0
v 11176.1 -5745.96 0
v 11136.5 -6054 0
v 10433.6 -6255.17 0
v 10518.7 -6338.6 0
v 10886 -6331.5 0
v 10880 -6021 0
v 10579 -6982.96 0
v 10892.5 -6982.5 0
v 10892 -6642 0
v 10893 -7323 0
v 10415.5 -7164.41 0
v 10422.9 -7578.12 0
v 10825.5 -7659 0
v 10758 -7995 0
v 10415 -7588.02 0
v 10289.6 -8112.54 0
v 10651 -8259 0
v 10544 -8523 0
v 10212 -8178.62 0
v 10036.3 -8495.94 0
v 10265.3 -8687.72 0
v 10545 -8686 0
v 10546 -8849 0
v 10395.3 -9048.58 0
v 10539 -9053.5 0
v 10532 -9258 0
v 10224.2 -9292.22 0
v 10788.1 -9446.03 0
v 10953.9 -9102.6 0
v 11120.9 -9041.09 0
v 11620.6 -9409.9 0
v 11882.2 -9344.59 0
v 12134.6 -9042.83 0
v 12173.7 -8905.88 0
v 12166.5 -8822 0
v 11580 -8872 0
v 12724.5 -8981 0
v 12753 -8772 0
v 12629.6 -9439.37 0
v 12878 -9310.06 0
v 12696 -9190 0
v 13172 -9504 0
v 12640.5 -9606.5 0
v 12966.5 -9671.71 0
v 12976 -9664.5 0
v 12872 -9528 0
v 12949.8 -9357.41 0
v 13080 -9801 0
v 12952 -9784.5 0
v 12551.1 -9787.14 0
v 12788.8 -9913.41 0
v 12852 -9900 0
v 12824 -9768 0
v 12880 -10032 0
v 12784 -10028 0
v 12404.2 -9877.79 0
v 12604.4 -10178 0
v 12716 -10154 0
v 12688 -10024 0
v 12744 -10284 0
v 12587 -10240 0
v 12214.4 -9886.49 0
v 12104.1 -10110.1 0
v 12349.5 -10300 0
v 12430 -10196 0
v 12880.2 -10644.2 0
v 12882.5 -10410 0
v 12269 -10404 0
v 11681.8 -10474.3 0
v 11684 -10537.1 0
v 12121.9 -10881.2 0
v 13095.6 -10917.5 0
v 13434.3 -10999.2 0
v 14005 -10661.5 0
v 14033 -10540.5 0
v 13496 -10416 0
v 17792 -11412 0
v 17293.7 -11296.5 0
v 17665.1 -11947.1 0
v 17830 -11972.1 0
v 18074 -11594 0
v 18356 -11776 0
v 17991.9 -12135.9 0
v 15940 -14164 0
v 16269.2 -13838.6 0
v 15752.6 -13710.4 0
v 15483 -14023.4 0
v 12872 -13220 0
v 13255.5 -13338 0
v 13325.8 -13109.5 0
v 12762.3 -12606.3 0
v 12758.3 -12607.3 0
v 12387.8 -13032 0
v 12413.5 -13556.6 0
v 12597 -13669 0
v 11772 -15016 0
v 12021.3 -14609 0
v 11490.2 -14707.9 0
v 11430 -14918 0
v 11186.1 -14371.5 0
v 10546.9 -14795.4 0
v 10537.5 -14820.8 0
v 10998 -15024 0
v 11088 -14820 0
v 10532.5 -14826 0
v 10574.9 -15712.7 0
v 10920 -15704 0
v 10908 -15228 0
v 10932 -16180 0
v 10416.3 -15839.7 0
v 10370 -16064 0
v 9403.3 -15696.9 0
v 9304.66 -16109.5 0
v 9631.03 -16543.7 0
v 9926 -16478 0
v 9808 -15948 0
v 9889.2 -15540.8 0
v 9509.04 -16818 0
v 9780.69 -17170.4 0
v 9998 -17218 0
v 10044 -17008 0
v 9743.15 -17505.6 0
v 9854 -17578 0
v 9952 -17428 0
v 9604.24 -17586 0
v 9648.76 -17775.2 0
v 9758 -17770 0
v 9756 -17728 0
v 9613.3 -18034.4 0
v 10041.5 -18195.3 0
v 10138 -17988 0
v 9760 -17812 0
v 10049.7 -18252.9 0
v 10391 -18641 0
v 10691.2 -18539.4 0
v 10804 -18404 0
v 10516 -18164 0
v 10879.9 -18735.7 0
v 11035.1 -18781.6 0
v 11136 -18730 0
v 11092 -18644 0
v 11180 -18816 0
v 11094 -18872 0
v 11008 -18928 0
v 10894 -18936 0
v 10780 -18944 0
v 10341 -18824 0
v 9024 -18464 0
v 9352.24 -18553.7 0
v 9207.46 -18070.1 0
v 9179.27 -18049.1 0
v 8758.26 -18396.4 0
v 8332 -18288 0
v 8597.74 -18355.6 0
v 8520.54 -18163.9 0
v 8316 -18202 0
v 8396.27 -17559.2 0
v 8279.02 -17528.2 0
v 7931.78 -17641.5 0
v 7650.86 -18028.9 0
v 7648 -18078 0
v 8300 -18116 0
v 8527.36 -17711.2 0
v 6837.75 -17527.9 0
v 6680.19 -17554.4 0
v 6585 -17938 0
v 6996 -18040 0
v 5352 -17632 0
v 5763 -17734 0
v 5811.98 -17536.6 0
v 5201.03 -17156.7 0
v 4852.8 -17671.3 0
v 3832.81 -17363 0
v 3762.91 -17735.1 0
v 4076 -17864 0
v 4132 -17728 0
v 4631.2 -17688.7 0
v 4250.41 -17281.6 0
v 3521.45 -18091.4 0
v 4020 -18000 0
v 1992 -18372 0
v 2499 -18279 0
v 1830 -18348 0
v 1668 -18324 0
v 9891.5 -15259.5 0
v 9586 -15257 0
v 9534 -15017.5 0
v 9271.44 -15074.5 0
v 9188.69 -15403.5 0
v 9501.38 -14162.5 0
v 9015.77 -14509.4 0
v 9003.39 -14575.7 0
v 9482 -14778 0
v 9531 -13222 0
v 10002.7 -12812.9 0
v 9366.13 -12721.6 0
v 9087.06 -12928.1 0
v 9004.89 -13425 0
v 9511.62 -13837.5 0
v 10609 -12287 0
v 10880 -11999.5 0
v 10478.8 -11621.4 0
v 10136.8 -11901.5 0
v 10137.3 -12696.1 0
v 10945.2 -11680.1 0
v 11558.2 -11804 0
v 12086.5 -11431.6 0
v 11095.1 -11050.2 0
v 11085.7 -11107.5 0
v 11422 -11424.5 0
v 11693 -11137 0
v 11704 -13771.5 0
v 11282.5 -13168.7 0
v 11154 -13805 0
v 10598.5 -13733.5 0
v 10597.1 -13744.4 0
v 11190 -14259.6 0
v 10043 -13662 0
v 10081.5 -14062 0
v 10331.7 -14037.9 0
v 10158.5 -14862 0
v 10197 -15262 0
v 6545 -10241 0
v 6426.5 -10139 0
v 6161.19 -10447.2 0
v 6400.7 -10745.5 0
v 6738.61 -10659.2 0
v 6710 -10230 0
v 6225.5 -9583.5 0
v 5970.54 -9629.88 0
v 5903.12 -9714.78 0
v 5944.35 -10321 0
v 6308 -10037 0
v 6132 -8704.5 0
v 5819.77 -8712.57 0
v 5699.71 -8966.26 0
v 6143 -9130 0
v 6113 -7973 0
v 5758.25 -7982.27 0
v 5583.38 -8275.45 0
v 6121 -8279 0
v 6105 -7667 0
v 6333 -7708 0
v 6424.1 -7201.38 0
v 6408.3 -7184.72 0
v 5664.82 -7450.49 0
v 6561 -7749 0
v 6891 -7694 0
v 6837.09 -7370.54 0
v 7466 -7864.5 0
v 7689.3 -7621.89 0
v 7527.33 -7073.29 0
v 7221 -7639 0
v 7711 -8090 0
v 8035.5 -8211 0
v 8160.65 -7875.37 0
v 8183.5 -8619 0
v 8462.1 -8790.33 0
v 8869.51 -8496.81 0
v 8458.76 -7793.97 0
v 8455.68 -7792.09 0
v 8360 -8332 0
v 8007 -8906 0
v 7784.5 -9268 0
v 8137.81 -9485.16 0
v 8391.15 -9272.09 0
v 7562 -9630 0
v 7218.5 -9924.5 0
v 7450.97 -10195.6 0
v 7561.95 -10182.9 0
v 8133.6 -9542.01 0
v 6875 -10219 0
v 7135.36 -10705.8 0
v 5607.56 -7411.62 0
v 5601.5 -7008 0
v 5335 -7012 0
v 5193.5 -6757.5 0
v 4847.97 -6949.61 0
v 4845.4 -6953.9 0
v 4843.34 -7066.44 0
v 5052.38 -7404.47 0
v 5113.5 -6298.5 0
v 4776.13 -6197.04 0
v 5052 -6503 0
v 5419.5 -5987 0
v 5175 -6094 0
v 5664 -5880 0
v 5846 -5990 0
v 6079.42 -5603.8 0
v 6073.01 -5562.04 0
v 5803.07 -5309.06 0
v 6028 -6100 0
v 6093 -6366 0
v 6522.18 -6261.13 0
v 6013 -6818 0
v 6402.4 -7121.57 0
v 6650.8 -6446.44 0
v 6556.87 -6276.75 0
v 6158 -6632 0
v 5868 -7004 0
v 8934 -7716 0
v 8892 -7460 0
v 9020 -7272 0
v 8633.49 -7008.84 0
v 8530.38 -7026.69 0
v 9148 -7084 0
v 9378 -7062 0
v 9326.4 -6522.53 0
v 9311.11 -6520.9 0
v 9776 -7190 0
v 9966.04 -6977.15 0
v 9693.92 -6488.2 0
v 9578.9 -6445.29 0
v 9608 -7040 0
v 9934.5 -7568 0
v 9944 -7340 0
v 9925 -7796 0
v 9834.5 -7938 0
v 9744 -8080 0
v 9530 -8138 0
v 9671.32 -8659.41 0
v 9146 -8084 0
v 8873.74 -8497.25 0
v 9397.65 -8780.09 0
v 9631.8 -8700.97 0
v 9316 -8196 0
v 8976 -7972 0
v 9396 -7528 0
v 9408.44 -7348.44 0
v 9314 -7456 0
v 9492 -7432 0
v 9232 -7384 0
v 9408.11 -7345.96 0
v 9306 -7276 0
v 9380 -7168 0
v 9484 -7252 0
v 9588 -7336 0
v 5691 -6489 0
v 5823 -6453 0
v 5786.04 -6317.49 0
v 5756.29 -6302.74 0
v 5640 -6343.5 0
v 5589 -6198 0
v 5727 -6168 0
v 5865 -6138 0
v 5910 -6277.5 0
v 5955 -6417 0
v 4568.65 -10886.6 0
v 4683.03 -11353.3 0
v 4744.9 -11399.1 0
v 5496.78 -11141.6 0
v 5410.4 -10577.9 0
v 5157.86 -10417.4 0
v 4258.18 -10669 0
v 5074.06 -10201.8 0
v 4818.74 -10124.9 0
v 4303.33 -10429.3 0
v 7948.28 -11226.5 0
v 8099.93 -11592.4 0
v 8588.19 -11732 0
v 8944.33 -11301.3 0
v 8788.16 -10960.8 0
v 8176.54 -10827.8 0
v 9385.75 -11310.1 0
v 9455.81 -11200.9 0
v 9284.33 -10784.1 0
v 8928.79 -10701.4 0
v 10029.4 -10537.5 0
v 9696.5 -10464.9 0
v 9576.55 -10692.9 0
v 9716.28 -11032.6 0
v 10052.8 -10962 0
v 10150.7 -10671.9 0
v 9998.14 -9733.12 0
v 9942.02 -9763.81 0
v 10612.4 -10476.9 0
v 10727.8 -9996.35 0
v 10079.1 -9387.5 0
v 10743.3 -9986.46 0
v 4111.14 -8935.62 0
v 4240.99 -8753.08 0
v 4105.49 -8535.33 0
v 4790.48 -8839.77 0
v 4854.79 -8510.14 0
v 4232.7 -8201.18 0
v 5080.45 -8257.59 0
v 4889.55 -7783.55 0
v 9548.39 -10325.9 0
v 9346.93 -10444.3 0
v 9370.9 -10646.5 0
v 9578.05 -10007.8 0
v 9036.87 -9929.12 0
v 8827.82 -10182.1 0
v 8913.93 -10327.6 0
v 9911.21 -9767.19 0
v 9234.7 -9292.19 0
v 9039.43 -9442.05 0
v 9286.48 -17566.1 0
v 9132.2 -17940.5 0
v 3834.28 -12318.8 0
v 3571.44 -13531.3 0
v 4007.99 -13029 0
v 4039.22 -9246.95 0
v 4490.02 -9439.39 0
v 4120.55 -9069.25 0
v 3986.17 -9130.46 0
v 3933.11 -9013.97 0
v 3575.25 -10547.9 0
v 3780.5 -10785.4 0
v 5276.58 -9758.05 0
v 4949.19 -9197.85 0
v 4876.44 -9167.08 0
v 1411.83 -1910.42 0
v 1069.9 -1547.98 0
v 776.284 -1783.29 0
v 936.379 -1983.06 0
v 11329.1 -9988.75 0
v 9902 -18704 0
v 9592.13 -18619.3 0
v 9147.43 -17054.7 0
v 616.189 -1583.53 0
v 1026.02 -1274.15 0
v 10478.9 -11621.2 0
v 9613.77 -11795.8 0
v 3006 -18186 0
v 3504.55 -18094.6 0
v 6314.93 -11453.6 0
v 7048.1 -11516.7 0
v 7310.39 -11110 0
v 6182.54 -11315.5 0
v 5777.82 -11346.1 0
v 8577.29 -10169.1 0
v 8155.67 -10601.5 0
v 3539.21 -17125.7 0
v 3584.32 -16559.7 0
v 3341.33 -16339.2 0
v 7076.91 -5241.13 0
v 7079.54 -5197.66 0
v 3675.81 -11240.8 0
v 3360.95 -11375.4 0
v 3963.64 -12227.4 0
v 4019.81 -11528.5 0
v 3141.68 -14852.6 0
v 2996.51 -14136.5 0
v 2788 -14063.9 0
v 2655 -14445.5 0
v 2497.7 -14896.8 0
v 9099.46 -17052.4 0
v 3311.72 -16043.6 0
v 2958.68 -15736.6 0
v 7995.76 -14819.3 0
v 7853.65 -14972.4 0
v 7814.45 -15702.5 0
v 8430.32 -15760.4 0
v 8648.51 -15420.7 0
v 8513.32 -14995.5 0
v 7542.31 -7035.86 0
v 8414.19 -6943.5 0
v 8335.15 -6278.08 0
v 8106.83 -6149.95 0
v 7520.94 -6390.82 0
v 7415.9 -6607.2 0
v 8828.41 -6051.99 0
v 8874.52 -5647.76 0
v 16640 -3925.79 0
v 1512 -1440 0
v 4012.25 -3451.7 0
v 7237.35 -5515.99 0
v 7170.12 -5462.05 0
v 16899.4 -13215.7 0
v 17255.6 -12863.7 0
v 16585.8 -12852.2 0
v 16442.5 -12999.7 0
v 16570.2 -13541.1 0
v 8667.96 -16173 0
v 8511.17 -16534.8 0
v 17627.7 -12495.8 0
v 17268.2 -12219.3 0
v 17271.5 -12847.9 0
v 2021.61 -10164 0
v 2327.23 -10703.8 0
v 2867.47 -10697.1 0
v 2978.15 -10558.7 0
v 5143.13 -16118.4 0
v 5282.26 -15951.4 0
v 5164.5 -15296.8 0
v 4507.02 -15083.8 0
v 4360.23 -15967.4 0
v 2921 -13682.2 0
v 3592.11 -13634.8 0
v 15094.5 -4979.62 0
v 12472.4 -5305.83 0
v 4451.53 -12257.3 0
v 4739.98 -12674.4 0
v 5341.14 -12651.3 0
v 5504.01 -12275.7 0
v 5457.48 -12145.9 0
v 4831.52 -11802.9 0
v 2975.46 -11205.1 0
v 4116.97 -16464.7 0
v 4316.05 -15991.1 0
v 3752.93 -15703.3 0
v 3206.34 -14935.9 0
v 3190.89 -14886.7 0
v 13166.9 -5060.73 0
v 10120 -14462 0
v 14229.2 -5159.4 0
v 7444.05 -4726.26 0
v 8363.03 -5062.61 0
v 8047.99 -5593.24 0
v 8373.13 -5264.73 0
v 3708.73 -3144.3 0
v 3042.1 -2463.51 0
v 15644 -10914 0
v 15107 -10789.5 0
v 15046.6 -11050.1 0
v 15597.7 -11476.5 0
v 16121.9 -11293.5 0
v 16181 -11038.5 0
v 6345.89 -12323.8 0
v 6352.53 -12317.2 0
v 4421.29 -16837 0
v 5131.29 -16728.5 0
v 5156.58 -16761.3 0
v 6234.4 -16754.7 0
v 6315.67 -16590.2 0
v 5765.93 -15949.8 0
v 4447.45 -15013.7 0
v 4418.74 -14847 0
v 3846.08 -14504.9 0
v 3753.89 -15363.2 0
v 14619 -4788.29 0
v 16552.3 -11729.3 0
v 17216.3 -11278.5 0
v 16718 -11163 0
v 2995.86 -1972.95 0
v 16576.5 -11998.7 0
v 16530.3 -12068.8 0
v 9259.08 -12121.1 0
v 8710.03 -11973.4 0
v 7814.79 -12437.2 0
v 7219.14 -12706.7 0
v 7147.37 -13001.9 0
v 7545.06 -13386.5 0
v 8095.76 -12964.6 0
v 8136.83 -12703.5 0
v 8473.26 -12582.6 0
v 7760.25 -12042.2 0
v 7154.52 -11859.8 0
v 8534.89 -13599.4 0
v 7553.34 -13711.5 0
v 7405.38 -13906.6 0
v 7435.8 -14131.4 0
v 7992.05 -14594.3 0
v 8420.29 -14091 0
v 8388.71 -13842.9 0
v 3831.13 -13854.8 0
v 4697.16 -13466.5 0
v 4473.9 -13839.3 0
v 4758.06 -14326.9 0
v 5425.42 -14285.1 0
v 5545.87 -14069.6 0
v 5129.87 -13455.7 0
v 5604.12 -14873.6 0
v 4501.68 -13078.5 0
v 5445.15 -12936.5 0
v 6701.79 -13176.5 0
v 6344.85 -12939.9 0
v 5926.24 -13164.2 0
v 5944.22 -13885.3 0
v 6419.76 -14007.4 0
v 6667.09 -13803.9 0
v 6876.93 -12273.7 0
v 6204.09 -15432.4 0
v 6061.73 -15031.8 0
v 6630.85 -16420.1 0
v 6964.29 -16478.3 0
v 7622.48 -15860.5 0
v 7624.11 -15852.4 0
v 6988.57 -15458.4 0
v 6628.19 -15624.9 0
v 6559.67 -14594.3 0
v 7074.9 -14889.1 0
v 6997.94 -14760.8 0
v 11151 -11712 0
v 12322 -14118 0
v 11862.4 -13814 0
v 12072.7 -14525 0
v 11423.5 -12471 0
v 11295 -13107.3 0
v 11733.7 -12831 0
v 11814.6 -12291.8 0
v 6174 -17836 0
v 6273.28 -17243 0
v 7317.61 -16940.8 0
v 8260.67 -16661.1 0
v 7943.01 -16583.1 0
v 7467.59 -16961.3 0
v 14790.4 -13199.5 0
v 14722 -13163.1 0
v 14101.2 -13318.3 0
v 14022.5 -13574 0
v 14406 -13692 0
v 14863 -13832.6 0
v 15428 -12168.6 0
v 15526 -12305.2 0
v 15685 -12362.2 0
v 16054.4 -12961.5 0
v 12279.1 -11621.3 0
v 12172.4 -12149.2 0
v 13147.1 -12119.2 0
v 12760.7 -11583.1 0
v 15674.9 -13370.5 0
v 15003.7 -12132.3 0
v 14534.6 -12545.4 0
v 15132.4 -13098.2 0
v 14586.5 -11278.3 0
v 14496.6 -11502.6 0
v 14570 -10665 0
v 13846.3 -12513.9 0
v 14163.7 -12379.2 0
v 14223.7 -11677.9 0
v 13688.3 -11594.8 0
v 13297.7 -12097.2 0
v 13731.2 -12982.1 0
v 13639 -13456 0
f 1 2 3
f 1 3 4
f 5 3 2
f 5 2 6
f 5 6 7
f 8 7 6
f 8 6 9
f 8 9 10
f 8 10 11
f 11 10 12
f 11 12 13
f 11 13 14
f 11 14 15
f 11 15 16
f 11 16 17
f 18 16 15
f 18 15 19
f 18 19 20
f 20 19 21
f 20 21 22
f 20 22 23
f 20 23 24
f 23 22 25
f 23 25 26
f 23 26 27
f 28 26 25
f 28 25 29
f 28 29 30
f 31 32 33
f 31 33 34
f 31 34 35
f 34 33 36
f 34 36 37
f 34 37 38
f 34 38 39
f 38 37 40
f 38 40 41
f 38 41 42
f 38 42 43
f 42 41 44
f 42 44 45
f 42 45 46
f 42 46 47
f 48 49 50
f 48 50 51
f 48 51 52
f 53 54 55
f 53 55 56
f 53 56 57
f 58 56 59
f 58 59 57
f 55 60 61
f 55 61 62
f 55 62 63
f 55 63 59
f 55 59 56
f 64 61 65
f 64 65 62
f 60 66 67
f 60 67 68
f 60 68 69
f 60 69 70
f 60 70 65
f 60 65 61
f 71 68 72
f 71 72 69
f 67 73 74
f 67 74 75
f 67 75 76
f 67 76 72
f 67 72 68
f 77 74 78
f 77 78 75
f 73 79 80
f 73 80 81
f 73 81 82
f 73 82 78
f 73 78 74
f 83 80 84
f 83 84 81
f 85 84 80
f 85 80 79
f 85 79 86
f 85 86 87
f 88 89 90
f 88 90 91
f 88 91 87
f 88 87 86
f 88 86 92
f 93 90 89
f 93 89 94
f 93 94 95
f 93 95 96
f 93 96 97
f 97 96 98
f 97 98 99
f 97 99 100
f 97 100 101
f 100 99 102
f 100 102 103
f 100 103 104
f 100 104 105
f 100 105 106
f 107 108 109
f 107 109 110
f 107 110 111
f 112 113 114
f 112 114 115
f 112 115 116
f 112 116 117
f 116 115 118
f 116 118 119
f 116 119 120
f 119 118 121
f 119 121 122
f 119 122 123
f 119 123 124
f 123 122 125
f 123 125 126
f 123 126 127
f 128 129 130
f 128 130 131
f 128 131 132
f 130 129 133
f 130 133 134
f 130 134 135
f 130 135 136
f 135 134 137
f 135 137 138
f 135 138 139
f 135 139 140
f 135 140 141
f 140 139 142
f 140 142 143
f 140 143 144
f 140 144 145
f 144 143 146
f 144 146 147
f 144 147 148
f 149 150 151
f 149 151 152
f 149 152 153
f 149 153 154
f 153 152 155
f 153 155 156
f 153 156 157
f 153 157 158
f 159 160 161
f 159 161 162
f 163 161 160
f 163 160 164
f 165 166 167
f 165 167 168
f 165 168 169
f 165 169 170
f 171 172 173
f 171 173 174
f 171 174 175
f 176 177 178
f 176 178 179
f 176 179 180
f 181 182 183
f 181 183 184
f 181 184 185
f 181 185 186
f 187 188 189
f 187 189 190
f 191 192 193
f 191 193 194
f 191 194 195
f 196 195 194
f 196 194 197
f 196 197 198
f 196 198 199
f 196 199 200
f 200 199 201
f 200 201 202
f 200 202 203
f 200 203 204
f 205 206 207
f 205 207 208
f 205 208 209
f 210 211 212
f 210 212 213
f 210 213 214
f 210 214 215
f 214 213 216
f 214 216 217
f 214 217 218
f 219 220 221
f 219 221 222
f 219 222 223
f 219 223 224
f 225 226 227
f 225 227 228
f 229 227 226
f 229 226 230
f 229 230 231
f 229 231 232
f 233 232 231
f 233 231 234
f 233 234 235
f 233 235 236
f 237 236 235
f 237 235 238
f 237 238 239
f 237 239 240
f 241 240 239
f 241 239 242
f 241 242 243
f 241 243 244
f 245 244 243
f 245 243 246
f 245 246 247
f 245 247 248
f 249 248 247
f 249 247 250
f 249 250 251
f 249 251 252
f 253 252 251
f 253 251 254
f 253 254 255
f 253 255 256
f 201 257 258
f 201 258 259
f 201 259 260
f 201 260 256
f 201 256 255
f 201 255 202
f 261 262 263
f 261 263 259
f 261 259 258
f 264 262 261
f 264 261 265
f 264 265 266
f 264 266 267
f 268 267 266
f 268 266 269
f 268 269 270
f 268 270 271
f 272 271 270
f 272 270 273
f 272 273 274
f 272 274 275
f 272 275 276
f 277 276 275
f 277 275 278
f 277 278 279
f 280 279 278
f 280 278 281
f 280 281 282
f 280 282 283
f 284 285 286
f 284 286 287
f 284 287 288
f 284 288 289
f 284 289 290
f 288 291 289
f 288 289 292
f 287 293 294
f 287 294 295
f 287 295 291
f 287 291 288
f 294 293 297
f 294 297 298
f 294 298 299
f 294 299 300
f 294 300 301
f 302 299 298
f 302 298 303
f 303 298 297
f 303 297 304
f 303 304 305
f 303 305 306
f 303 306 307
f 308 306 305
f 308 305 309
f 309 305 304
f 309 304 310
f 309 310 311
f 309 311 312
f 309 312 313
f 314 312 311
f 314 311 315
f 315 311 310
f 315 310 316
f 315 316 317
f 315 317 318
f 315 318 319
f 320 321 322
f 320 322 318
f 320 318 317
f 320 317 323
f 320 323 324
f 320 324 325
f 321 320 326
f 321 326 327
f 321 327 328
f 321 328 329
f 321 329 330
f 331 332 333
f 331 333 334
f 331 334 335
f 336 334 337
f 336 337 335
f 338 339 340
f 338 340 341
f 342 343 344
f 342 344 345
f 342 345 346
f 342 346 347
f 342 347 348
f 342 348 349
f 350 351 352
f 350 352 353
f 353 352 354
f 353 354 355
f 353 355 356
f 353 356 357
f 353 357 358
f 357 356 359
f 357 359 360
f 357 360 361
f 357 361 362
f 363 361 360
f 363 360 364
f 363 364 365
f 366 367 368
f 366 368 369
f 366 369 370
f 366 370 365
f 366 365 364
f 366 364 371
f 369 368 372
f 369 372 373
f 369 373 374
f 369 374 375
f 374 373 376
f 374 376 377
f 374 377 378
f 377 376 379
f 377 379 380
f 377 380 381
f 377 381 382
f 381 380 383
f 381 383 384
f 381 384 385
f 381 385 386
f 385 384 387
f 385 387 388
f 385 388 389
f 385 389 390
f 385 390 391
f 390 389 392
f 390 392 393
f 390 393 394
f 390 394 395
f 396 393 397
f 396 397 394
f 398 397 393
f 398 393 392
f 398 392 399
f 400 399 392
f 400 392 389
f 400 389 388
f 400 388 401
f 402 403 404
f 402 404 405
f 402 405 406
f 407 408 409
f 407 409 410
f 411 412 413
f 411 413 414
f 411 414 415
f 411 415 416
f 411 416 410
f 411 410 409
f 411 409 417
f 415 414 418
f 415 418 419
f 415 419 420
f 415 420 421
f 422 423 424
f 422 424 425
f 422 425 426
f 427 428 429
f 427 429 430
f 427 430 431
f 427 431 432
f 429 428 433
f 429 433 434
f 435 436 12
f 435 12 10
f 435 10 9
f 435 9 437
f 438 437 9
f 438 9 6
f 438 6 2
f 438 2 1
f 371 439 440
f 371 440 441
f 371 441 442
f 371 442 443
f 371 443 366
f 444 445 446
f 444 446 442
f 444 442 441
f 444 441 447
f 448 449 450
f 448 450 451
f 448 451 452
f 448 452 453
f 454 455 456
f 454 456 457
f 454 457 458
f 459 460 461
f 459 461 325
f 459 325 324
f 459 324 462
f 459 462 463
f 459 463 464
f 459 464 465
f 466 467 468
f 466 468 469
f 466 469 470
f 466 470 471
f 472 473 474
f 472 474 470
f 472 470 469
f 364 360 359
f 364 359 475
f 364 475 476
f 364 476 439
f 364 439 371
f 477 478 479
f 477 479 480
f 477 480 481
f 477 481 482
f 483 484 485
f 483 485 486
f 483 486 479
f 483 479 478
f 483 478 487
f 488 489 490
f 488 490 484
f 488 484 483
f 488 483 491
f 492 493 494
f 492 494 489
f 492 489 488
f 492 488 495
f 496 497 498
f 496 498 499
f 496 499 500
f 496 500 493
f 496 493 492
f 501 502 503
f 501 503 498
f 501 498 497
f 504 505 506
f 504 506 503
f 504 503 502
f 504 502 507
f 508 509 510
f 508 510 505
f 508 505 504
f 511 512 513
f 511 513 514
f 511 514 515
f 511 515 510
f 511 510 509
f 511 509 516
f 517 518 519
f 517 519 520
f 517 520 512
f 517 512 511
f 521 522 523
f 521 523 524
f 521 524 525
f 521 525 519
f 521 519 518
f 526 482 481
f 526 481 527
f 526 527 523
f 526 523 522
f 528 529 530
f 528 530 531
f 528 531 532
f 528 532 533
f 528 533 534
f 528 534 535
f 536 537 532
f 536 532 531
f 536 531 538
f 539 133 129
f 539 129 128
f 539 128 537
f 539 537 536
f 539 536 540
f 541 542 543
f 541 543 544
f 541 544 545
f 541 545 137
f 541 137 134
f 541 134 133
f 541 133 539
f 546 547 548
f 546 548 543
f 546 543 542
f 549 550 551
f 549 551 552
f 549 552 548
f 549 548 547
f 549 547 553
f 499 550 549
f 499 549 554
f 499 554 529
f 499 529 528
f 499 528 500
f 514 555 556
f 514 556 557
f 514 557 558
f 514 558 559
f 514 559 515
f 560 561 562
f 560 562 563
f 560 563 558
f 560 558 557
f 564 565 566
f 564 566 567
f 564 567 562
f 564 562 561
f 564 561 568
f 569 269 266
f 569 266 265
f 569 265 565
f 569 565 564
f 569 564 570
f 571 572 273
f 571 273 270
f 571 270 269
f 571 269 569
f 573 574 575
f 573 575 274
f 573 274 273
f 573 273 572
f 576 577 578
f 576 578 579
f 576 579 575
f 576 575 574
f 576 574 580
f 555 514 513
f 555 513 577
f 555 577 576
f 555 576 581
f 582 583 584
f 582 584 585
f 586 584 583
f 586 583 587
f 586 587 588
f 589 588 587
f 589 587 590
f 591 590 587
f 591 587 583
f 591 583 585
f 592 593 594
f 592 594 595
f 592 595 596
f 597 595 598
f 597 598 596
f 599 598 595
f 599 595 594
f 599 594 600
f 601 600 594
f 601 594 593
f 602 603 604
f 602 604 605
f 602 605 606
f 602 606 607
f 608 602 607
f 608 607 609
f 608 609 610
f 608 610 611
f 610 103 102
f 610 102 611
f 612 613 614
f 612 614 615
f 612 615 616
f 612 616 617
f 615 618 619
f 615 619 620
f 615 620 621
f 615 621 616
f 622 623 624
f 622 624 625
f 622 625 626
f 622 626 627
f 628 629 622
f 628 622 627
f 628 627 630
f 628 630 631
f 281 632 628
f 281 628 631
f 281 631 633
f 281 633 282
f 634 635 636
f 634 636 109
f 634 109 108
f 637 638 639
f 637 639 636
f 637 636 635
f 638 640 641
f 638 641 114
f 638 114 113
f 638 113 639
f 641 535 534
f 641 534 121
f 641 121 118
f 641 118 115
f 641 115 114
f 534 533 125
f 534 125 122
f 534 122 121
f 623 642 643
f 623 643 644
f 623 644 624
f 642 645 646
f 642 646 647
f 642 647 648
f 642 648 643
f 649 650 651
f 649 651 646
f 649 646 645
f 578 650 649
f 578 649 629
f 578 629 628
f 578 628 632
f 578 632 579
f 575 579 632
f 575 632 281
f 575 281 278
f 575 278 275
f 575 275 274
f 379 652 653
f 379 653 405
f 379 405 404
f 379 404 383
f 379 383 380
f 654 36 33
f 654 33 32
f 654 32 655
f 654 655 656
f 657 105 104
f 657 104 658
f 657 658 659
f 657 659 660
f 110 109 636
f 110 636 639
f 110 639 113
f 110 113 112
f 653 417 409
f 653 409 408
f 653 408 406
f 653 406 405
f 660 659 634
f 660 634 108
f 660 108 107
f 660 107 661
f 92 66 60
f 92 60 55
f 92 55 54
f 92 54 51
f 92 51 50
f 92 50 88
f 98 662 663
f 98 663 608
f 98 608 611
f 98 611 102
f 98 102 99
f 664 665 666
f 664 666 658
f 664 658 104
f 664 104 103
f 664 103 610
f 664 610 609
f 92 86 79
f 92 79 73
f 92 73 67
f 92 67 66
f 157 156 667
f 157 667 668
f 157 668 669
f 157 669 670
f 623 622 629
f 623 629 649
f 623 649 645
f 623 645 642
f 624 644 620
f 624 620 619
f 624 619 625
f 620 644 643
f 620 643 648
f 620 648 621
f 283 282 633
f 283 633 671
f 283 671 285
f 283 285 284
f 286 316 310
f 286 310 304
f 286 304 297
f 286 297 293
f 286 293 287
f 672 401 388
f 672 388 387
f 672 387 673
f 379 376 373
f 379 373 372
f 379 372 674
f 379 674 652
f 635 634 659
f 635 659 658
f 635 658 666
f 635 666 637
f 160 162 675
f 160 675 669
f 160 669 668
f 160 668 676
f 160 676 164
f 456 677 626
f 456 626 625
f 456 625 619
f 456 619 618
f 456 618 678
f 456 678 457
f 404 403 673
f 404 673 387
f 404 387 384
f 404 384 383
f 12 436 679
f 12 679 680
f 12 680 13
f 537 128 132
f 537 132 126
f 537 126 125
f 537 125 533
f 537 533 532
f 671 323 317
f 671 317 316
f 671 316 286
f 671 286 285
f 681 682 683
f 681 683 527
f 681 527 481
f 681 481 480
f 681 480 684
f 480 479 486
f 480 486 606
f 480 606 605
f 480 605 685
f 480 685 684
f 616 621 648
f 616 648 647
f 616 647 686
f 616 686 687
f 616 687 617
f 688 689 690
f 688 690 21
f 688 21 19
f 688 19 15
f 688 15 14
f 184 545 544
f 184 544 691
f 184 691 692
f 184 692 185
f 693 694 40
f 693 40 37
f 693 37 36
f 693 36 654
f 693 654 695
f 693 695 696
f 697 698 699
f 697 699 700
f 697 700 701
f 674 702 411
f 674 411 417
f 674 417 653
f 674 653 652
f 690 703 704
f 690 704 29
f 690 29 25
f 690 25 22
f 690 22 21
f 637 666 665
f 637 665 490
f 637 490 489
f 637 489 494
f 637 494 640
f 637 640 638
f 705 706 707
f 705 707 708
f 705 708 709
f 705 709 710
f 711 712 713
f 711 713 714
f 711 714 715
f 711 715 716
f 717 563 562
f 717 562 567
f 717 567 198
f 717 198 197
f 717 197 718
f 565 265 261
f 565 261 258
f 565 258 257
f 565 257 566
f 226 228 719
f 226 719 223
f 226 223 222
f 226 222 230
f 720 676 668
f 720 668 667
f 720 667 167
f 720 167 166
f 142 179 178
f 142 178 721
f 142 721 146
f 142 146 143
f 512 520 651
f 512 651 650
f 512 650 578
f 512 578 577
f 512 577 513
f 202 255 254
f 202 254 206
f 202 206 205
f 202 205 203
f 617 687 524
f 617 524 523
f 617 523 527
f 617 527 683
f 617 683 612
f 552 551 716
f 552 716 715
f 552 715 722
f 552 722 723
f 724 725 726
f 724 726 727
f 724 727 728
f 602 608 663
f 602 663 693
f 602 693 696
f 602 696 603
f 729 730 702
f 729 702 674
f 729 674 372
f 729 372 368
f 729 368 367
f 731 337 334
f 731 334 333
f 731 333 732
f 731 732 733
f 95 94 734
f 95 734 735
f 95 735 736
f 95 736 737
f 14 13 680
f 14 680 433
f 14 433 428
f 14 428 427
f 14 427 688
f 609 607 606
f 609 606 486
f 609 486 485
f 609 485 664
f 738 739 740
f 738 740 741
f 738 741 742
f 32 31 743
f 32 743 699
f 32 699 698
f 32 698 744
f 32 744 655
f 220 745 238
f 220 238 235
f 220 235 234
f 220 234 221
f 206 254 251
f 206 251 250
f 206 250 746
f 206 746 207
f 747 748 749
f 747 749 750
f 747 750 751
f 747 751 752
f 663 662 737
f 663 737 736
f 663 736 753
f 663 753 694
f 663 694 693
f 689 754 755
f 689 755 756
f 689 756 703
f 689 703 690
f 704 757 758
f 704 758 697
f 704 697 701
f 704 701 30
f 704 30 29
f 207 746 759
f 207 759 211
f 207 211 210
f 207 210 208
f 752 604 603
f 752 603 696
f 752 696 695
f 752 695 747
f 231 230 222
f 231 222 221
f 231 221 234
f 640 494 493
f 640 493 500
f 640 500 528
f 640 528 535
f 640 535 641
f 760 475 359
f 760 359 356
f 760 356 355
f 760 355 474
f 760 474 473
f 243 242 761
f 243 761 212
f 243 212 211
f 243 211 759
f 243 759 246
f 183 138 137
f 183 137 545
f 183 545 184
f 185 692 762
f 185 762 188
f 185 188 187
f 185 187 186
f 763 762 692
f 763 692 691
f 763 691 723
f 763 723 722
f 763 722 764
f 763 764 765
f 180 179 142
f 180 142 139
f 180 139 138
f 180 138 183
f 180 183 182
f 178 177 175
f 178 175 174
f 178 174 766
f 178 766 721
f 767 169 168
f 767 168 155
f 767 155 152
f 767 152 151
f 524 687 686
f 524 686 525
f 548 552 723
f 548 723 691
f 548 691 544
f 548 544 543
f 768 769 770
f 768 770 771
f 768 771 772
f 768 772 773
f 50 49 734
f 50 734 94
f 50 94 89
f 50 89 88
f 490 665 664
f 490 664 485
f 490 485 484
f 750 774 775
f 750 775 681
f 750 681 684
f 750 684 685
f 750 685 751
f 96 95 737
f 96 737 662
f 96 662 98
f 736 735 45
f 736 45 44
f 736 44 753
f 45 735 734
f 45 734 49
f 45 49 48
f 45 48 46
f 688 427 432
f 688 432 776
f 688 776 754
f 688 754 689
f 777 776 432
f 777 432 431
f 777 431 426
f 777 426 425
f 777 425 778
f 778 779 780
f 778 780 781
f 778 781 739
f 778 739 738
f 778 738 777
f 742 755 754
f 742 754 776
f 742 776 777
f 742 777 738
f 782 783 784
f 782 784 758
f 782 758 757
f 782 757 785
f 354 471 470
f 354 470 474
f 354 474 355
f 242 239 238
f 242 238 745
f 242 745 786
f 242 786 761
f 721 766 150
f 721 150 149
f 721 149 147
f 721 147 146
f 520 519 525
f 520 525 686
f 520 686 647
f 520 647 646
f 520 646 651
f 773 772 787
f 773 787 788
f 773 788 789
f 741 782 785
f 741 785 756
f 741 756 755
f 741 755 742
f 216 786 745
f 216 745 220
f 216 220 219
f 216 219 217
f 213 212 761
f 213 761 786
f 213 786 216
f 790 170 169
f 790 169 767
f 790 767 173
f 790 173 172
f 791 792 726
f 791 726 725
f 791 725 733
f 791 733 732
f 633 631 630
f 633 630 462
f 633 462 324
f 633 324 323
f 633 323 671
f 630 627 626
f 630 626 677
f 630 677 463
f 630 463 462
f 793 450 449
f 793 449 458
f 793 458 457
f 793 457 678
f 794 793 678
f 794 678 618
f 794 618 615
f 794 615 614
f 795 796 797
f 795 797 798
f 795 798 799
f 795 799 800
f 800 801 794
f 800 794 614
f 800 614 613
f 800 613 802
f 800 802 795
f 613 612 683
f 613 683 682
f 613 682 803
f 613 803 802
f 799 804 452
f 799 452 451
f 799 451 801
f 799 801 800
f 793 794 801
f 793 801 451
f 793 451 450
f 805 806 807
f 805 807 808
f 805 808 809
f 805 809 810
f 453 452 804
f 453 804 810
f 453 810 809
f 453 809 445
f 453 445 444
f 798 805 810
f 798 810 804
f 798 804 799
f 809 808 705
f 809 705 710
f 809 710 446
f 809 446 445
f 193 763 765
f 193 765 718
f 193 718 197
f 193 197 194
f 765 764 714
f 765 714 713
f 765 713 717
f 765 717 718
f 563 717 713
f 563 713 712
f 563 712 559
f 563 559 558
f 764 722 715
f 764 715 714
f 199 198 567
f 199 567 566
f 199 566 257
f 199 257 201
f 167 667 156
f 167 156 155
f 167 155 168
f 506 711 716
f 506 716 551
f 506 551 550
f 506 550 499
f 506 499 498
f 506 498 503
f 698 697 758
f 698 758 784
f 698 784 811
f 698 811 744
f 812 813 814
f 812 814 815
f 812 815 816
f 812 816 817
f 784 783 814
f 784 814 813
f 784 813 811
f 814 783 782
f 814 782 741
f 814 741 740
f 814 740 818
f 814 818 815
f 655 744 811
f 655 811 813
f 655 813 812
f 655 812 819
f 655 819 656
f 820 749 748
f 820 748 819
f 820 819 812
f 820 812 817
f 747 695 654
f 747 654 656
f 747 656 819
f 747 819 748
f 821 822 823
f 821 823 824
f 821 824 825
f 821 825 826
f 823 820 817
f 823 817 816
f 823 816 824
f 822 774 750
f 822 750 749
f 822 749 820
f 822 820 823
f 796 827 775
f 796 775 774
f 796 774 822
f 796 822 821
f 796 821 797
f 795 802 803
f 795 803 827
f 795 827 796
f 828 829 818
f 828 818 740
f 828 740 739
f 828 739 781
f 830 831 832
f 830 832 833
f 830 833 834
f 830 834 835
f 829 836 825
f 829 825 824
f 829 824 816
f 829 816 815
f 829 815 818
f 835 828 781
f 835 781 780
f 835 780 830
f 834 837 838
f 834 838 836
f 834 836 829
f 834 829 828
f 834 828 835
f 833 707 706
f 833 706 837
f 833 837 834
f 825 836 838
f 825 838 807
f 825 807 806
f 825 806 826
f 807 838 837
f 807 837 706
f 807 706 705
f 807 705 808
f 746 250 247
f 746 247 246
f 746 246 759
f 189 188 762
f 189 762 763
f 189 763 193
f 189 193 192
f 751 685 605
f 751 605 604
f 751 604 752
f 40 694 753
f 40 753 44
f 40 44 41
f 704 703 756
f 704 756 785
f 704 785 757
f 839 464 463
f 839 463 677
f 839 677 456
f 839 456 455
f 775 827 803
f 775 803 682
f 775 682 681
f 797 821 826
f 797 826 806
f 797 806 805
f 797 805 798
f 840 349 348
f 840 348 841
f 840 841 842
f 841 466 471
f 841 471 354
f 841 354 352
f 841 352 351
f 841 351 842
f 460 459 843
f 460 843 844
f 460 844 845
f 460 845 846
f 348 347 845
f 348 845 844
f 348 844 467
f 348 467 466
f 348 466 841
f 711 506 505
f 711 505 510
f 711 510 515
f 711 515 559
f 711 559 712
f 708 729 367
f 708 367 366
f 708 366 443
f 708 443 709
f 443 442 446
f 443 446 710
f 443 710 709
f 847 420 419
f 847 419 848
f 847 848 424
f 847 424 423
f 424 848 779
f 424 779 778
f 424 778 425
f 419 418 849
f 419 849 831
f 419 831 830
f 419 830 780
f 419 780 779
f 419 779 848
f 850 851 852
f 850 852 413
f 850 413 412
f 707 833 832
f 707 832 851
f 707 851 850
f 707 850 730
f 707 730 729
f 707 729 708
f 730 850 412
f 730 412 411
f 730 411 702
f 832 831 849
f 832 849 852
f 832 852 851
f 852 849 418
f 852 418 414
f 852 414 413
f 151 150 766
f 151 766 174
f 151 174 173
f 151 173 767
f 853 854 855
f 853 855 856
f 853 856 857
f 853 857 858
f 787 791 732
f 787 732 333
f 787 333 332
f 787 332 788
f 771 859 860
f 771 860 861
f 771 861 792
f 771 792 791
f 771 791 787
f 771 787 772
f 861 862 727
f 861 727 726
f 861 726 792
f 863 864 346
f 863 346 345
f 863 345 865
f 863 865 866
f 347 346 864
f 347 864 846
f 347 846 845
f 320 325 461
f 320 461 863
f 320 863 866
f 320 866 326
f 728 727 862
f 728 862 867
f 728 867 340
f 728 340 339
f 859 868 869
f 859 869 854
f 859 854 853
f 859 853 870
f 859 870 860
f 867 870 853
f 867 853 858
f 867 858 341
f 867 341 340
f 870 867 862
f 870 862 861
f 870 861 860
f 871 872 868
f 871 868 859
f 871 859 771
f 871 771 770
f 329 328 871
f 329 871 770
f 329 770 769
f 329 769 873
f 874 875 876
f 874 876 877
f 874 877 878
f 326 866 865
f 326 865 878
f 326 878 877
f 326 877 327
f 328 327 877
f 328 877 876
f 328 876 872
f 328 872 871
f 868 872 876
f 868 876 875
f 868 875 869
f 856 855 879
f 856 879 344
f 856 344 343
f 856 343 880
f 879 874 878
f 879 878 865
f 879 865 345
f 879 345 344
f 869 875 874
f 869 874 879
f 869 879 855
f 869 855 854
f 459 846 864
f 459 864 863
f 459 863 461
# Vertices: 880, normals: 0, texture coordinates: 0, faces: 1384

