1498 3 0
0 821 7 8 
1 9 10 821 
2 821 10 11 
3 636 556 498 
4 821 13 14 
5 15 708 821 
6 14 15 821 
7 714 636 2 
8 12 13 821 
9 11 12 821 
10 971 750 899 
11 16 17 708 
12 17 18 708 
13 731 20 21 
14 19 20 708 
15 731 22 23 
16 21 22 731 
17 31 717 30 
18 23 24 731 
19 569 731 27 
20 731 26 27 
21 569 27 28 
22 569 28 29 
23 569 29 30 
24 35 717 34 
25 717 31 32 
26 899 731 569 
27 32 33 717 
28 33 34 717 
29 731 24 25 
30 143 144 589 
31 36 717 35 
32 38 39 717 
33 38 717 37 
34 39 40 717 
35 43 717 42 
36 44 717 43 
37 45 46 717 
38 45 717 44 
39 540 717 46 
40 48 540 47 
41 540 46 47 
42 809 505 713 
43 51 540 50 
44 540 49 50 
45 57 540 56 
46 540 52 53 
47 55 540 54 
48 540 53 54 
49 540 55 56 
50 527 59 60 
51 527 540 58 
52 527 58 59 
53 540 57 58 
54 540 51 52 
55 77 930 76 
56 65 987 64 
57 987 63 64 
58 61 62 987 
59 987 857 991 
60 987 65 66 
61 74 75 756 
62 987 68 756 
63 68 69 756 
64 670 508 611 
65 70 71 756 
66 756 71 72 
67 756 73 74 
68 987 67 68 
69 930 75 76 
70 508 930 89 
71 930 78 79 
72 77 78 930 
73 930 79 80 
74 930 80 81 
75 670 756 930 
76 930 81 82 
77 508 89 90 
78 808 501 645 
79 930 756 75 
80 85 930 84 
81 85 86 930 
82 87 930 86 
83 930 82 83 
84 89 930 88 
85 60 61 987 
86 116 916 115 
87 93 94 514 
88 514 91 92 
89 93 514 92 
90 95 514 94 
91 96 514 95 
92 97 514 96 
93 98 514 97 
94 100 514 99 
95 514 98 99 
96 101 514 100 
97 103 104 514 
98 102 514 101 
99 514 102 103 
100 105 514 104 
101 106 514 105 
102 113 730 112 
103 108 730 107 
104 730 106 107 
105 740 560 785 
106 730 111 112 
107 109 110 730 
108 730 114 115 
109 685 126 127 
110 120 121 916 
111 116 117 916 
112 120 916 119 
113 843 675 977 
114 916 117 118 
115 119 916 118 
116 916 121 122 
117 122 123 916 
118 685 125 126 
119 124 916 123 
120 124 125 685 
121 158 159 883 
122 685 129 130 
123 128 685 127 
124 133 685 132 
125 130 131 685 
126 685 131 132 
127 685 138 139 
128 685 134 135 
129 685 135 136 
130 137 138 685 
131 141 142 535 
132 140 685 139 
133 140 141 685 
134 685 133 134 
135 685 141 535 
136 535 142 143 
137 90 91 508 
138 589 145 146 
139 144 145 589 
140 589 146 147 
141 589 147 148 
142 157 158 883 
143 148 149 589 
144 883 151 152 
145 589 149 883 
146 154 155 883 
147 155 156 883 
148 154 883 153 
149 883 152 153 
150 157 883 156 
151 151 883 150 
152 672 191 192 
153 163 883 162 
154 162 883 161 
155 883 160 161 
156 699 854 600 
157 883 159 160 
158 883 164 165 
159 883 165 166 
160 176 615 175 
161 170 615 169 
162 167 615 883 
163 171 615 170 
164 889 847 577 
165 615 168 169 
166 615 172 173 
167 615 173 174 
168 615 174 175 
169 179 615 178 
170 615 176 177 
171 615 177 178 
172 883 166 167 
173 615 179 180 
174 615 180 181 
175 183 615 182 
176 615 181 182 
177 615 183 184 
178 615 184 185 
179 615 185 186 
180 615 186 536 
181 186 187 536 
182 740 501 510 
183 188 536 187 
184 189 536 188 
185 168 615 167 
186 762 252 253 
187 536 190 191 
188 194 672 193 
189 672 192 193 
190 195 196 672 
191 195 672 194 
192 197 198 672 
193 197 672 196 
194 201 202 672 
195 200 201 672 
196 200 672 199 
197 672 203 204 
198 993 204 205 
199 199 672 198 
200 210 993 209 
201 206 207 993 
202 207 208 993 
203 213 214 993 
204 213 993 212 
205 210 211 993 
206 205 206 993 
207 215 993 214 
208 217 993 216 
209 993 215 216 
210 218 219 993 
211 993 219 220 
212 993 221 914 
213 951 993 914 
214 223 224 914 
215 993 951 908 
216 993 220 221 
217 929 659 905 
218 226 914 225 
219 227 914 226 
220 291 578 290 
221 951 854 699 
222 230 231 914 
223 230 914 229 
224 232 914 231 
225 826 914 232 
226 826 232 233 
227 826 234 235 
228 233 234 826 
229 826 235 236 
230 826 237 238 
231 236 237 826 
232 715 762 268 
233 826 239 240 
234 826 240 241 
235 826 241 242 
236 520 245 246 
237 826 243 244 
238 826 244 245 
239 826 245 520 
240 520 247 248 
241 246 247 520 
242 826 242 243 
243 249 250 520 
244 249 520 248 
245 520 251 252 
246 275 849 274 
247 762 254 255 
248 253 254 762 
249 258 762 257 
250 255 256 762 
251 762 256 257 
252 262 263 762 
253 261 762 260 
254 262 762 261 
255 265 266 762 
256 264 265 762 
257 264 762 263 
258 762 258 259 
259 238 239 826 
260 268 762 267 
261 858 715 769 
262 270 715 269 
263 271 272 715 
264 272 273 849 
265 279 280 849 
266 274 849 273 
267 849 276 277 
268 277 278 849 
269 275 276 849 
270 858 828 600 
271 279 849 278 
272 849 283 284 
273 849 743 769 
274 849 280 281 
275 849 284 285 
276 849 288 578 
277 937 907 743 
278 286 287 849 
279 287 288 849 
280 288 289 578 
281 531 334 335 
282 351 954 350 
283 578 289 290 
284 293 294 578 
285 293 578 292 
286 294 295 578 
287 295 296 578 
288 292 578 291 
289 298 299 578 
290 297 578 296 
291 578 297 298 
292 811 934 586 
293 301 302 578 
294 640 552 581 
295 303 578 302 
296 305 306 578 
297 578 303 304 
298 305 578 304 
299 308 578 307 
300 686 772 308 
301 975 322 323 
302 686 309 310 
303 308 309 686 
304 686 310 311 
305 975 317 318 
306 975 312 313 
307 315 316 975 
308 315 975 314 
309 907 630 581 
310 580 969 873 
311 319 975 318 
312 975 686 311 
313 321 975 320 
314 322 975 321 
315 324 325 975 
316 324 975 323 
317 307 578 306 
318 531 975 326 
319 918 902 697 
320 328 531 327 
321 531 326 327 
322 531 328 329 
323 531 333 334 
324 531 330 331 
325 332 531 331 
326 531 329 330 
327 717 540 527 
328 337 531 336 
329 531 335 336 
330 339 531 338 
331 531 337 338 
332 963 343 344 
333 342 343 963 
334 963 340 341 
335 963 344 345 
336 340 911 339 
337 348 963 347 
338 963 346 347 
339 954 963 349 
340 954 349 350 
341 655 351 352 
342 954 351 655 
343 655 353 605 
344 352 353 655 
345 353 354 605 
346 355 356 605 
347 355 605 354 
348 963 348 349 
349 459 604 458 
350 360 361 605 
351 356 357 605 
352 605 357 358 
353 605 359 360 
354 362 605 361 
355 363 605 362 
356 364 605 363 
357 709 524 819 
358 759 891 370 
359 891 365 366 
360 759 370 371 
361 891 367 368 
362 367 891 366 
363 373 759 372 
364 620 529 840 
365 369 891 368 
366 759 371 372 
367 365 605 364 
368 374 375 759 
369 374 759 373 
370 759 376 377 
371 759 377 378 
372 381 759 380 
373 378 379 759 
374 928 544 671 
375 759 381 382 
376 528 647 790 
377 386 759 385 
378 759 384 385 
379 759 383 384 
380 790 759 386 
381 392 393 790 
382 390 790 389 
383 391 790 390 
384 392 790 391 
385 790 387 388 
386 827 397 398 
387 790 393 394 
388 827 394 395 
389 827 395 396 
390 790 394 827 
391 827 400 401 
392 397 827 396 
393 399 400 827 
394 399 827 398 
395 827 404 405 
396 827 517 528 
397 402 827 401 
398 403 404 827 
399 827 407 408 
400 827 406 407 
401 405 406 827 
402 759 382 383 
403 409 517 408 
404 517 827 408 
405 410 517 409 
406 604 454 455 
407 413 414 517 
408 517 411 412 
409 413 517 412 
410 517 416 417 
411 980 629 542 
412 417 418 517 
413 947 419 420 
414 418 419 517 
415 947 420 421 
416 784 635 690 
417 422 947 421 
418 947 426 427 
419 424 947 423 
420 425 426 947 
421 947 427 428 
422 423 947 422 
423 428 603 947 
424 434 603 433 
425 430 431 603 
426 603 432 433 
427 436 603 435 
428 603 434 435 
429 437 603 436 
430 429 603 428 
431 449 526 448 
432 440 603 439 
433 603 438 439 
434 442 603 441 
435 603 440 441 
436 442 443 526 
437 442 526 603 
438 444 445 526 
439 425 947 424 
440 526 445 446 
441 526 447 448 
442 446 447 526 
443 603 437 438 
444 449 450 526 
445 450 451 526 
446 526 452 453 
447 526 453 454 
448 451 452 526 
449 466 467 604 
450 455 456 604 
451 456 457 604 
452 457 458 604 
453 18 19 708 
454 459 460 604 
455 604 461 462 
456 604 463 464 
457 462 463 604 
458 466 604 465 
459 604 464 465 
460 556 489 490 
461 604 467 468 
462 676 726 469 
463 676 469 470 
464 479 676 478 
465 475 676 474 
466 471 472 676 
467 604 468 726 
468 676 472 473 
469 997 521 512 
470 676 477 478 
471 476 477 676 
472 676 470 471 
473 482 676 481 
474 669 676 556 
475 984 512 752 
476 676 482 483 
477 488 489 556 
478 483 484 676 
479 484 485 556 
480 488 556 487 
481 486 487 556 
482 556 485 486 
483 676 484 556 
484 556 493 494 
485 556 492 493 
486 491 556 490 
487 491 492 556 
488 821 6 7 
489 556 495 496 
490 556 496 497 
491 556 497 498 
492 997 663 816 
493 2 636 1 
494 636 0 1 
495 3 821 2 
496 4 821 3 
497 5 821 4 
498 163 164 883 
499 517 410 411 
500 730 110 111 
501 40 41 717 
502 223 914 222 
503 719 574 503 
504 429 430 603 
505 898 502 584 
506 993 208 209 
507 856 766 822 
508 704 806 576 
509 988 547 711 
510 640 581 507 
511 975 311 312 
512 975 325 326 
513 921 975 531 
514 611 508 865 
515 930 87 88 
516 990 666 544 
517 342 963 341 
518 661 958 653 
519 730 108 109 
520 955 607 679 
521 720 504 576 
522 636 498 499 
523 0 636 499 
524 838 525 632 
525 525 567 632 
526 961 514 730 
527 508 91 514 
528 883 149 150 
529 962 782 810 
530 701 956 516 
531 719 503 945 
532 415 517 414 
533 415 416 517 
534 985 518 541 
535 587 519 545 
536 734 609 723 
537 545 500 587 
538 221 222 914 
539 250 251 520 
540 676 479 480 
541 481 676 480 
542 835 588 794 
543 269 715 268 
544 846 539 599 
545 869 564 707 
546 964 543 748 
547 768 502 545 
548 838 539 698 
549 637 805 656 
550 444 526 443 
551 652 512 984 
552 755 624 752 
553 540 48 49 
554 790 386 387 
555 779 660 664 
556 840 558 502 
557 840 898 620 
558 562 570 705 
559 137 685 136 
560 851 630 686 
561 332 333 531 
562 604 526 454 
563 563 559 665 
564 551 974 533 
565 945 537 932 
566 645 859 596 
567 728 872 538 
568 916 685 535 
569 705 896 562 
570 190 536 189 
571 883 515 530 
572 980 542 663 
573 945 503 592 
574 712 559 563 
575 728 534 780 
576 846 614 539 
577 547 607 623 
578 991 862 890 
579 717 41 42 
580 885 807 980 
581 944 765 537 
582 775 692 895 
583 947 660 517 
584 989 940 637 
585 620 741 529 
586 891 369 370 
587 866 722 618 
588 768 545 519 
589 502 558 545 
590 608 582 546 
591 706 932 537 
592 981 574 668 
593 777 550 853 
594 765 787 706 
595 719 548 788 
596 813 951 812 
597 536 191 672 
598 955 912 623 
599 573 547 988 
600 878 551 846 
601 533 942 846 
602 285 286 849 
603 522 586 552 
604 518 758 541 
605 726 597 604 
606 819 606 696 
607 634 591 732 
608 666 555 954 
609 911 531 339 
610 669 556 521 
611 494 495 556 
612 785 844 579 
613 696 806 819 
614 729 988 568 
615 500 545 558 
616 624 559 518 
617 757 538 719 
618 571 870 740 
619 705 953 530 
620 935 783 882 
621 835 794 551 
622 577 572 562 
623 884 978 844 
624 737 719 538 
625 919 667 638 
626 869 689 943 
627 774 910 702 
628 845 662 742 
629 725 509 747 
630 742 662 770 
631 891 928 671 
632 698 839 525 
633 710 616 767 
634 539 614 711 
635 775 601 765 
636 25 26 731 
637 717 527 569 
638 572 848 562 
639 873 579 844 
640 611 571 510 
641 865 514 961 
642 515 577 562 
643 554 576 806 
644 679 607 573 
645 607 547 573 
646 719 587 500 
647 500 558 668 
648 778 575 809 
649 621 700 611 
650 880 576 504 
651 720 678 657 
652 847 591 577 
653 591 590 572 
654 300 578 299 
655 300 301 578 
656 859 501 785 
657 785 560 844 
658 848 580 948 
659 557 606 856 
660 644 689 739 
661 937 743 849 
662 692 716 546 
663 660 684 528 
664 632 583 838 
665 835 882 764 
666 626 967 761 
667 909 506 825 
668 521 585 512 
669 521 556 585 
670 850 694 586 
671 267 762 266 
672 574 719 500 
673 737 798 519 
674 882 783 641 
675 974 718 643 
676 896 705 530 
677 535 143 589 
678 572 590 554 
679 572 577 591 
680 889 801 847 
681 760 625 634 
682 981 913 957 
683 913 944 592 
684 759 379 380 
685 682 992 629 
686 751 892 654 
687 683 749 783 
688 642 639 766 
689 927 819 524 
690 969 596 579 
691 713 505 661 
692 512 652 997 
693 999 664 842 
694 863 680 598 
695 969 579 873 
696 882 641 764 
697 878 846 599 
698 625 549 799 
699 520 252 762 
700 944 692 775 
701 582 523 618 
702 677 602 629 
703 745 906 738 
704 432 603 431 
705 526 791 603 
706 791 604 597 
707 460 461 604 
708 359 605 358 
709 671 666 954 
710 927 856 819 
711 557 696 606 
712 853 679 573 
713 698 525 838 
714 942 608 716 
715 523 582 608 
716 967 733 609 
717 598 639 642 
718 552 640 522 
719 943 628 736 
720 946 611 510 
721 991 527 987 
722 524 800 595 
723 839 567 525 
724 781 613 979 
725 986 523 718 
726 692 614 716 
727 711 547 539 
728 172 615 171 
729 786 687 732 
730 767 616 741 
731 804 834 998 
732 959 776 642 
733 856 822 557 
734 860 618 830 
735 986 718 721 
736 613 619 602 
737 830 781 860 
738 727 620 898 
739 741 550 529 
740 724 621 505 
741 575 862 817 
742 941 648 783 
743 783 561 641 
744 539 623 698 
745 539 547 623 
746 985 624 518 
747 755 627 665 
748 720 920 678 
749 920 590 634 
750 587 737 519 
751 820 680 863 
752 665 627 701 
753 890 527 991 
754 702 628 774 
755 513 588 736 
756 807 894 629 
757 602 682 629 
758 851 581 630 
759 581 552 907 
760 814 901 973 
761 968 544 928 
762 940 632 637 
763 622 583 632 
764 681 633 877 
765 695 995 657 
766 920 634 625 
767 590 591 634 
768 770 662 917 
769 901 814 867 
770 821 708 714 
771 585 556 636 
772 839 637 567 
773 632 567 637 
774 758 919 638 
775 894 706 629 
776 595 693 776 
777 598 680 969 
778 982 996 897 
779 739 522 640 
780 749 703 561 
781 703 736 764 
782 959 642 617 
783 609 598 642 
784 551 794 974 
785 523 608 643 
786 640 982 897 
787 649 566 702 
788 534 713 596 
789 653 946 501 
790 858 646 715 
791 270 271 715 
792 593 647 528 
793 593 631 647 
794 941 782 754 
795 594 654 683 
796 509 649 910 
797 982 507 747 
798 792 657 678 
799 799 536 871 
800 622 940 836 
801 612 693 922 
802 638 952 541 
803 553 663 997 
804 808 661 653 
805 946 621 611 
806 751 654 594 
807 564 796 654 
808 671 655 605 
809 555 789 911 
810 909 710 506 
811 710 998 989 
812 720 657 504 
813 782 962 754 
814 619 868 906 
815 947 517 419 
816 939 681 699 
817 877 735 900 
818 960 660 746 
819 528 517 660 
820 808 713 661 
821 505 621 958 
822 649 742 566 
823 867 593 684 
824 980 663 553 
825 542 829 875 
826 947 664 660 
827 888 658 746 
828 855 665 803 
829 559 624 755 
830 565 990 544 
831 747 507 851 
832 915 712 788 
833 950 548 932 
834 988 711 568 
835 574 500 668 
836 841 669 691 
837 676 475 476 
838 62 63 987 
839 69 70 756 
840 365 891 605 
841 544 666 671 
842 536 672 871 
843 202 203 672 
844 962 673 754 
845 594 648 754 
846 831 858 600 
847 811 694 633 
848 977 675 864 
849 844 978 815 
850 468 469 726 
851 473 474 676 
852 787 677 706 
853 613 602 677 
854 650 678 625 
855 812 699 681 
856 909 825 795 
857 955 511 912 
858 609 863 598 
859 933 596 969 
860 812 681 659 
861 939 633 681 
862 619 745 602 
863 745 738 682 
864 594 683 648 
865 683 796 749 
866 906 960 658 
867 593 528 684 
868 953 978 535 
869 128 129 685 
870 316 317 975 
871 851 507 581 
872 549 687 536 
873 549 625 760 
874 976 688 721 
875 833 635 784 
876 739 689 610 
877 910 649 702 
878 722 690 635 
879 866 523 986 
880 521 691 669 
881 841 597 726 
882 614 692 568 
883 546 582 692 
884 832 693 595 
885 612 543 964 
886 674 811 633 
887 850 522 610 
888 792 695 657 
889 877 633 735 
890 926 696 557 
891 696 848 806 
892 754 697 902 
893 673 877 893 
894 802 698 623 
895 802 805 839 
896 225 914 224 
897 600 674 939 
898 611 700 965 
899 621 724 824 
900 803 701 516 
901 862 575 778 
902 753 702 566 
903 688 628 702 
904 561 703 641 
905 796 736 703 
906 709 819 880 
907 806 572 554 
908 815 705 570 
909 978 953 705 
910 629 706 677 
911 932 548 945 
912 918 869 707 
913 850 610 689 
914 5 6 821 
915 15 16 708 
916 995 837 709 
917 962 818 673 
918 998 710 804 
919 656 506 710 
920 568 711 614 
921 988 729 886 
922 559 712 919 
923 563 788 712 
924 596 713 645 
925 809 575 724 
926 731 714 708 
927 750 636 714 
928 282 849 281 
929 646 762 715 
930 942 716 846 
931 608 546 716 
932 30 717 569 
933 36 37 717 
934 688 986 721 
935 523 643 718 
936 532 788 548 
937 823 563 757 
938 554 720 576 
939 920 625 678 
940 513 721 794 
941 513 976 721 
942 868 722 635 
943 619 613 830 
944 876 584 734 
945 609 642 723 
946 809 724 505 
947 824 700 621 
948 509 725 742 
949 565 544 845 
950 669 841 676 
951 841 816 597 
952 876 748 543 
953 767 741 727 
954 516 728 538 
955 956 701 938 
956 692 944 568 
957 913 668 729 
958 106 730 514 
959 113 114 730 
960 20 731 708 
961 755 665 559 
962 847 732 591 
963 687 760 732 
964 734 967 609 
965 933 780 596 
966 925 876 734 
967 761 519 626 
968 694 735 633 
969 900 893 877 
970 943 736 796 
971 628 513 736 
972 719 737 587 
973 933 872 780 
974 966 879 664 
975 992 682 738 
976 522 739 610 
977 897 644 739 
978 571 740 510 
979 740 870 864 
980 727 741 620 
981 616 550 741 
982 509 742 649 
983 845 771 973 
984 772 630 937 
985 552 586 743 
986 686 744 772 
987 686 630 744 
988 602 745 682 
989 619 722 868 
990 879 888 664 
991 658 960 746 
992 990 747 789 
993 565 725 747 
994 925 748 876 
995 804 710 767 
996 783 749 561 
997 683 654 796 
998 636 750 971 
999 714 731 750 
1000 892 751 707 
1001 918 697 893 
1002 585 971 512 
1003 899 569 890 
1004 702 753 688 
1005 833 770 917 
1006 941 754 648 
1007 673 697 754 
1008 512 899 752 
1009 899 890 755 
1010 857 987 670 
1011 72 73 756 
1012 665 855 563 
1013 855 538 757 
1014 541 758 638 
1015 919 712 915 
1016 376 759 375 
1017 790 631 891 
1018 732 760 634 
1019 687 549 760 
1020 584 761 734 
1021 584 502 761 
1022 260 762 259 
1023 646 831 762 
1024 864 763 977 
1025 865 508 514 
1026 703 764 641 
1027 736 588 764 
1028 537 765 706 
1029 979 613 787 
1030 642 766 617 
1031 822 580 926 
1032 797 834 727 
1033 904 834 797 
1034 761 768 519 
1035 761 502 768 
1036 272 849 715 
1037 743 586 769 
1038 566 770 753 
1039 566 742 770 
1040 973 771 631 
1041 845 544 968 
1042 308 772 578 
1043 744 630 772 
1044 995 773 837 
1045 874 905 877 
1046 943 774 628 
1047 689 644 910 
1048 944 775 765 
1049 692 582 895 
1050 964 776 693 
1051 925 642 776 
1052 668 886 729 
1053 529 550 777 
1054 956 938 778 
1055 701 862 778 
1056 746 779 664 
1057 746 660 779 
1058 872 728 780 
1059 534 596 780 
1060 775 895 601 
1061 618 722 830 
1062 832 800 887 
1063 887 810 782 
1064 941 783 622 
1065 648 683 783 
1066 833 784 688 
1067 690 866 986 
1068 859 785 579 
1069 501 740 785 
1070 536 786 801 
1071 536 687 786 
1072 979 787 765 
1073 613 677 787 
1074 719 788 757 
1075 532 667 915 
1076 666 789 555 
1077 747 531 789 
1078 389 790 388 
1079 647 631 790 
1080 793 791 597 
1081 526 604 791 
1082 650 813 678 
1083 905 874 695 
1084 791 793 842 
1085 597 816 793 
1086 513 794 588 
1087 974 643 533 
1088 853 909 679 
1089 825 656 805 
1090 749 796 703 
1091 564 943 796 
1092 584 876 727 
1093 876 543 797 
1094 519 798 626 
1095 737 538 798 
1096 625 799 650 
1097 549 536 799 
1098 836 832 782 
1099 524 709 852 
1100 536 801 615 
1101 786 732 801 
1102 912 802 623 
1103 511 805 802 
1104 855 803 516 
1105 665 701 803 
1106 727 804 767 
1107 904 543 612 
1108 795 805 511 
1109 795 825 805 
1110 880 819 806 
1111 696 926 848 
1112 652 903 553 
1113 638 667 894 
1114 501 808 653 
1115 645 713 808 
1116 534 809 713 
1117 534 778 809 
1118 524 852 887 
1119 962 837 818 
1120 828 811 674 
1121 586 694 811 
1122 929 813 812 
1123 217 218 993 
1124 659 929 812 
1125 993 672 204 
1126 593 814 631 
1127 917 635 833 
1128 881 815 570 
1129 884 864 675 
1130 997 816 691 
1131 663 875 816 
1132 700 817 965 
1133 700 824 817 
1134 874 877 773 
1135 877 673 818 
1136 704 880 806 
1137 524 595 927 
1138 626 970 733 
1139 970 798 872 
1140 2 821 714 
1141 8 9 821 
1142 639 822 766 
1143 639 969 822 
1144 788 823 757 
1145 788 563 823 
1146 575 824 724 
1147 575 817 824 
1148 955 909 795 
1149 506 656 825 
1150 924 914 826 
1151 914 227 228 
1152 790 827 528 
1153 402 403 827 
1154 600 828 674 
1155 934 811 828 
1156 875 829 793 
1157 888 738 658 
1158 619 830 722 
1159 613 781 830 
1160 924 831 600 
1161 520 762 831 
1162 922 832 651 
1163 595 800 832 
1164 753 833 688 
1165 753 770 833 
1166 727 834 804 
1167 797 543 904 
1168 935 882 835 
1169 764 588 835 
1170 632 940 622 
1171 651 832 836 
1172 504 995 709 
1173 773 818 837 
1174 949 838 583 
1175 599 539 838 
1176 802 839 698 
1177 805 637 839 
1178 777 840 529 
1179 886 558 840 
1180 676 841 726 
1181 691 816 841 
1182 791 842 603 
1183 793 829 966 
1184 115 916 730 
1185 916 535 884 
1186 948 873 881 
1187 884 675 843 
1188 725 845 742 
1189 725 565 845 
1190 533 846 551 
1191 716 614 846 
1192 883 889 577 
1193 801 732 847 
1194 562 848 570 
1195 572 806 848 
1196 715 849 769 
1197 282 283 849 
1198 918 850 869 
1199 586 522 850 
1200 921 851 686 
1201 921 747 851 
1202 887 852 810 
1203 709 837 852 
1204 777 853 573 
1205 550 909 853 
1206 600 854 914 
1207 699 812 951 
1208 538 855 516 
1209 757 563 855 
1210 819 856 606 
1211 617 766 856 
1212 965 857 670 
1213 527 60 987 
1214 646 858 831 
1215 769 586 858 
1216 596 859 579 
1217 645 501 859 
1218 601 860 781 
1219 895 618 860 
1220 920 861 590 
1221 554 590 861 
1222 627 862 701 
1223 627 890 862 
1224 733 863 609 
1225 733 970 863 
1226 560 864 884 
1227 560 740 864 
1228 870 865 763 
1229 571 611 865 
1230 722 866 690 
1231 618 523 866 
1232 593 867 814 
1233 684 660 960 
1234 931 936 635 
1235 906 745 619 
1236 751 902 918 
1237 850 689 869 
1238 864 870 763 
1239 571 865 870 
1240 650 871 908 
1241 650 799 871 
1242 970 872 820 
1243 798 538 872 
1244 881 873 844 
1245 580 822 969 
1246 695 874 773 
1247 695 792 905 
1248 816 875 793 
1249 663 542 875 
1250 727 876 797 
1251 734 723 925 
1252 773 877 818 
1253 659 681 877 
1254 935 878 599 
1255 835 551 878 
1256 542 879 829 
1257 542 992 879 
1258 576 880 704 
1259 504 709 880 
1260 815 881 844 
1261 570 948 881 
1262 878 935 835 
1263 935 949 783 
1264 515 883 577 
1265 530 589 883 
1266 560 884 844 
1267 843 916 884 
1268 903 885 980 
1269 638 894 885 
1270 777 886 840 
1271 668 558 886 
1272 832 887 782 
1273 800 524 887 
1274 664 888 746 
1275 879 992 888 
1276 615 889 883 
1277 615 801 889 
1278 755 890 627 
1279 569 527 890 
1280 605 891 671 
1281 759 790 891 
1282 564 892 707 
1283 564 654 892 
1284 673 893 697 
1285 900 850 918 
1286 885 894 807 
1287 667 932 894 
1288 601 895 860 
1289 582 618 895 
1290 515 896 530 
1291 515 562 896 
1292 640 897 739 
1293 640 507 982 
1294 727 898 584 
1295 840 502 898 
1296 923 899 755 
1297 750 731 899 
1298 694 900 735 
1299 694 850 900 
1300 983 901 931 
1301 960 906 868 
1302 594 902 751 
1303 594 754 902 
1304 952 903 652 
1305 952 885 903 
1306 651 940 612 
1307 989 656 710 
1308 929 905 792 
1309 659 877 905 
1310 936 960 868 
1311 658 738 906 
1312 630 907 937 
1313 552 743 907 
1314 650 908 813 
1315 871 672 908 
1316 616 909 550 
1317 616 710 909 
1318 972 910 774 
1319 644 509 910 
1320 555 911 963 
1321 789 531 911 
1322 802 912 511 
1323 623 607 955 
1324 568 944 729 
1325 981 503 574 
1326 229 914 228 
1327 826 520 924 
1328 919 915 667 
1329 788 532 915 
1330 730 916 843 
1331 124 685 916 
1332 983 931 917 
1333 931 635 917 
1334 751 918 707 
1335 893 900 918 
1336 518 919 758 
1337 518 559 919 
1338 554 920 720 
1339 554 861 920 
1340 319 320 975 
1341 531 747 921 
1342 612 922 651 
1343 693 832 922 
1344 752 923 755 
1345 752 899 923 
1346 831 924 520 
1347 600 914 924 
1348 642 925 723 
1349 776 964 925 
1350 822 926 557 
1351 580 848 926 
1352 959 927 595 
1353 617 856 927 
1354 631 928 891 
1355 968 771 845 
1356 678 929 792 
1357 678 813 929 
1358 84 930 83 
1359 508 670 930 
1360 662 973 983 
1361 936 868 635 
1362 894 932 706 
1363 667 532 950 
1364 820 933 680 
1365 820 872 933 
1366 858 934 828 
1367 858 586 934 
1368 838 949 599 
1369 949 622 783 
1370 901 936 931 
1371 901 960 936 
1372 578 937 849 
1373 578 772 937 
1374 778 938 701 
1375 778 534 956 
1376 600 939 699 
1377 674 633 939 
1378 612 940 904 
1379 651 836 940 
1380 836 941 622 
1381 836 782 941 
1382 643 942 533 
1383 643 608 942 
1384 869 943 564 
1385 972 774 943 
1386 592 944 537 
1387 913 729 944 
1388 537 945 592 
1389 548 719 945 
1390 501 946 510 
1391 958 621 946 
1392 842 947 603 
1393 842 664 947 
1394 848 948 570 
1395 580 873 948 
1396 599 949 935 
1397 583 622 949 
1398 667 950 932 
1399 532 548 950 
1400 908 951 813 
1401 914 854 951 
1402 541 952 652 
1403 638 885 952 
1404 589 953 535 
1405 589 530 953 
1406 671 954 655 
1407 963 345 346 
1408 909 955 679 
1409 795 511 955 
1410 728 956 534 
1411 728 516 956 
1412 592 957 913 
1413 592 503 957 
1414 653 958 946 
1415 661 505 958 
1416 927 959 617 
1417 595 776 959 
1418 867 960 901 
1419 867 684 960 
1420 977 961 730 
1421 763 865 961 
1422 852 962 810 
1423 852 837 962 
1424 555 963 954 
1425 911 340 963 
1426 612 964 693 
1427 748 925 964 
1428 611 965 670 
1429 817 862 991 
1430 793 966 999 
1431 829 879 966 
1432 761 967 734 
1433 626 733 967 
1434 631 968 928 
1435 631 771 968 
1436 598 969 639 
1437 680 933 969 
1438 863 970 820 
1439 626 798 970 
1440 512 971 899 
1441 585 636 971 
1442 689 972 943 
1443 689 910 972 
1444 845 973 662 
1445 631 814 973 
1446 721 974 794 
1447 721 718 974 
1448 314 975 313 
1449 921 686 975 
1450 628 976 513 
1451 628 688 976 
1452 961 977 763 
1453 730 843 977 
1454 815 978 705 
1455 884 535 978 
1456 601 979 765 
1457 601 781 979 
1458 903 980 553 
1459 807 629 980 
1460 503 981 957 
1461 668 913 981 
1462 996 982 747 
1463 996 644 897 
1464 662 983 917 
1465 973 901 983 
1466 624 985 752 
1467 541 652 984 
1468 994 985 541 
1469 984 752 985 
1470 784 986 688 
1471 784 690 986 
1472 67 987 66 
1473 756 670 987 
1474 777 988 886 
1475 777 573 988 
1476 940 989 904 
1477 637 656 989 
1478 747 990 565 
1479 789 666 990 
1480 965 991 857 
1481 965 817 991 
1482 888 992 738 
1483 542 629 992 
1484 212 993 211 
1485 908 672 993 
1486 984 994 541 
1487 984 985 994 
1488 657 995 504 
1489 695 773 995 
1490 509 996 747 
1491 509 644 996 
1492 521 997 691 
1493 652 553 997 
1494 904 998 834 
1495 904 989 998 
1496 793 999 842 
1497 966 664 999 
