OFF
1000 1498 0
5e+06 0 0
4.9996e+06 62830.2 0
4.99842e+06 125650 0
4.99645e+06 188451 0
4.99368e+06 251222 0
4.99013e+06 313953 0
4.98579e+06 376634 0
4.98067e+06 439256 0
4.97476e+06 501809 0
4.96806e+06 564282 0
4.96057e+06 626666 0
4.95231e+06 688951 0
4.94326e+06 751128 0
4.93343e+06 813186 0
4.92282e+06 875115 0
4.91144e+06 936907 0
4.89928e+06 998550 0
4.88634e+06 1.06004e+06 0
4.87263e+06 1.12135e+06 0
4.85816e+06 1.1825e+06 0
4.84292e+06 1.24345e+06 0
4.82691e+06 1.30421e+06 0
4.81014e+06 1.36476e+06 0
4.79261e+06 1.4251e+06 0
4.77432e+06 1.48521e+06 0
4.75528e+06 1.54508e+06 0
4.73549e+06 1.60472e+06 0
4.71495e+06 1.6641e+06 0
4.69367e+06 1.72321e+06 0
4.67164e+06 1.78206e+06 0
4.64888e+06 1.84062e+06 0
4.62539e+06 1.8989e+06 0
4.60116e+06 1.95687e+06 0
4.57621e+06 2.01453e+06 0
4.55053e+06 2.07188e+06 0
4.52414e+06 2.1289e+06 0
4.49703e+06 2.18558e+06 0
4.46921e+06 2.24192e+06 0
4.44068e+06 2.2979e+06 0
4.41146e+06 2.35352e+06 0
4.38153e+06 2.40877e+06 0
4.35092e+06 2.46364e+06 0
4.31962e+06 2.51812e+06 0
4.28763e+06 2.5722e+06 0
4.25497e+06 2.62587e+06 0
4.22164e+06 2.67913e+06 0
4.18764e+06 2.73197e+06 0
4.15298e+06 2.78438e+06 0
4.11766e+06 2.83634e+06 0
4.0817e+06 2.88786e+06 0
4.04508e+06 2.93893e+06 0
4.00783e+06 2.98953e+06 0
3.96995e+06 3.03965e+06 0
3.93144e+06 3.0893e+06 0
3.89231e+06 3.13846e+06 0
3.85257e+06 3.18712e+06 0
3.81221e+06 3.23528e+06 0
3.77126e+06 3.28293e+06 0
3.72971e+06 3.33006e+06 0
3.68757e+06 3.37666e+06 0
3.64484e+06 3.42274e+06 0
3.60154e+06 3.46827e+06 0
3.55768e+06 3.51325e+06 0
3.51325e+06 3.55768e+06 0
3.46827e+06 3.60154e+06 0
3.42274e+06 3.64484e+06 0
3.37666e+06 3.68757e+06 0
3.33006e+06 3.72971e+06 0
3.28293e+06 3.77126e+06 0
3.23528e+06 3.81221e+06 0
3.18712e+06 3.85257e+06 0
3.13846e+06 3.89231e+06 0
3.0893e+06 3.93144e+06 0
3.03965e+06 3.96995e+06 0
2.98952e+06 4.00784e+06 0
2.93893e+06 4.04508e+06 0
2.88786e+06 4.0817e+06 0
2.83634e+06 4.11766e+06 0
2.78438e+06 4.15298e+06 0
2.73197e+06 4.18764e+06 0
2.67913e+06 4.22164e+06 0
2.62587e+06 4.25497e+06 0
2.5722e+06 4.28763e+06 0
2.51812e+06 4.31962e+06 0
2.46364e+06 4.35092e+06 0
2.40877e+06 4.38153e+06 0
2.35352e+06 4.41146e+06 0
2.2979e+06 4.44068e+06 0
2.24192e+06 4.46921e+06 0
2.18558e+06 4.49703e+06 0
2.1289e+06 4.52414e+06 0
2.07188e+06 4.55053e+06 0
2.01453e+06 4.57621e+06 0
1.95687e+06 4.60116e+06 0
1.8989e+06 4.62539e+06 0
1.84062e+06 4.64888e+06 0
1.78206e+06 4.67164e+06 0
1.72321e+06 4.69367e+06 0
1.6641e+06 4.71495e+06 0
1.60472e+06 4.73549e+06 0
1.54508e+06 4.75528e+06 0
1.48521e+06 4.77432e+06 0
1.4251e+06 4.79261e+06 0
1.36476e+06 4.81014e+06 0
1.30421e+06 4.82691e+06 0
1.24345e+06 4.84292e+06 0
1.18249e+06 4.85816e+06 0
1.12135e+06 4.87263e+06 0
1.06004e+06 4.88634e+06 0
998550 4.89928e+06 0
936906 4.91144e+06 0
875115 4.92282e+06 0
813186 4.93343e+06 0
751128 4.94326e+06 0
688951 4.95231e+06 0
626666 4.96057e+06 0
564282 4.96806e+06 0
501808 4.97476e+06 0
439256 4.98067e+06 0
376634 4.98579e+06 0
313952 4.99013e+06 0
251222 4.99368e+06 0
188451 4.99645e+06 0
125650 4.99842e+06 0
62829.8 4.9996e+06 0
-0.218557 5e+06 0
-62830.2 4.9996e+06 0
-125651 4.99842e+06 0
-188451 4.99645e+06 0
-251222 4.99368e+06 0
-313953 4.99013e+06 0
-376634 4.98579e+06 0
-439256 4.98067e+06 0
-501809 4.97476e+06 0
-564282 4.96806e+06 0
-626667 4.96057e+06 0
-688952 4.95231e+06 0
-751128 4.94326e+06 0
-813186 4.93343e+06 0
-875116 4.92282e+06 0
-936907 4.91144e+06 0
-998550 4.89928e+06 0
-1.06004e+06 4.88634e+06 0
-1.12135e+06 4.87263e+06 0
-1.1825e+06 4.85816e+06 0
-1.24345e+06 4.84292e+06 0
-1.30421e+06 4.82691e+06 0
-1.36476e+06 4.81014e+06 0
-1.4251e+06 4.79261e+06 0
-1.48521e+06 4.77432e+06 0
-1.54509e+06 4.75528e+06 0
-1.60472e+06 4.73549e+06 0
-1.6641e+06 4.71495e+06 0
-1.72321e+06 4.69367e+06 0
-1.78206e+06 4.67164e+06 0
-1.84062e+06 4.64888e+06 0
-1.8989e+06 4.62539e+06 0
-1.95687e+06 4.60116e+06 0
-2.01453e+06 4.57621e+06 0
-2.07188e+06 4.55053e+06 0
-2.1289e+06 4.52414e+06 0
-2.18558e+06 4.49703e+06 0
-2.24192e+06 4.46921e+06 0
-2.2979e+06 4.44068e+06 0
-2.35352e+06 4.41146e+06 0
-2.40877e+06 4.38153e+06 0
-2.46364e+06 4.35092e+06 0
-2.51812e+06 4.31962e+06 0
-2.5722e+06 4.28763e+06 0
-2.62587e+06 4.25497e+06 0
-2.67913e+06 4.22164e+06 0
-2.73197e+06 4.18764e+06 0
-2.78438e+06 4.15298e+06 0
-2.83634e+06 4.11766e+06 0
-2.88786e+06 4.0817e+06 0
-2.93893e+06 4.04508e+06 0
-2.98953e+06 4.00783e+06 0
-3.03965e+06 3.96995e+06 0
-3.0893e+06 3.93144e+06 0
-3.13846e+06 3.89231e+06 0
-3.18712e+06 3.85257e+06 0
-3.23528e+06 3.81221e+06 0
-3.28293e+06 3.77126e+06 0
-3.33006e+06 3.72971e+06 0
-3.37666e+06 3.68757e+06 0
-3.42274e+06 3.64484e+06 0
-3.46827e+06 3.60155e+06 0
-3.51325e+06 3.55768e+06 0
-3.55768e+06 3.51325e+06 0
-3.60155e+06 3.46827e+06 0
-3.64484e+06 3.42274e+06 0
-3.68757e+06 3.37666e+06 0
-3.72971e+06 3.33006e+06 0
-3.77126e+06 3.28293e+06 0
-3.81221e+06 3.23528e+06 0
-3.85257e+06 3.18712e+06 0
-3.89231e+06 3.13846e+06 0
-3.93144e+06 3.0893e+06 0
-3.96995e+06 3.03965e+06 0
-4.00784e+06 2.98952e+06 0
-4.04509e+06 2.93893e+06 0
-4.0817e+06 2.88786e+06 0
-4.11766e+06 2.83634e+06 0
-4.15298e+06 2.78438e+06 0
-4.18764e+06 2.73197e+06 0
-4.22164e+06 2.67913e+06 0
-4.25497e+06 2.62587e+06 0
-4.28763e+06 2.5722e+06 0
-4.31962e+06 2.51812e+06 0
-4.35092e+06 2.46364e+06 0
-4.38153e+06 2.40877e+06 0
-4.41146e+06 2.35352e+06 0
-4.44068e+06 2.2979e+06 0
-4.46921e+06 2.24192e+06 0
-4.49703e+06 2.18558e+06 0
-4.52414e+06 2.1289e+06 0
-4.55053e+06 2.07188e+06 0
-4.57621e+06 2.01453e+06 0
-4.60116e+06 1.95687e+06 0
-4.62539e+06 1.8989e+06 0
-4.64888e+06 1.84062e+06 0
-4.67164e+06 1.78206e+06 0
-4.69367e+06 1.72321e+06 0
-4.71495e+06 1.6641e+06 0
-4.73549e+06 1.60472e+06 0
-4.75528e+06 1.54509e+06 0
-4.77432e+06 1.48521e+06 0
-4.79261e+06 1.4251e+06 0
-4.81014e+06 1.36476e+06 0
-4.82691e+06 1.30421e+06 0
-4.84292e+06 1.24345e+06 0
-4.85816e+06 1.18249e+06 0
-4.87263e+06 1.12135e+06 0
-4.88634e+06 1.06004e+06 0
-4.89928e+06 998550 0
-4.91144e+06 936906 0
-4.92282e+06 875116 0
-4.93343e+06 813185 0
-4.94326e+06 751127 0
-4.95231e+06 688951 0
-4.96057e+06 626666 0
-4.96806e+06 564282 0
-4.97476e+06 501809 0
-4.98067e+06 439255 0
-4.98579e+06 376634 0
-4.99013e+06 313952 0
-4.99368e+06 251221 0
-4.99645e+06 188451 0
-4.99842e+06 125650 0
-4.9996e+06 62829.6 0
-5e+06 -0.437114 0
-4.9996e+06 -62830.4 0
-4.99842e+06 -125650 0
-4.99645e+06 -188451 0
-4.99368e+06 -251222 0
-4.99013e+06 -313953 0
-4.98579e+06 -376634 0
-4.98067e+06 -439256 0
-4.97476e+06 -501808 0
-4.96806e+06 -564283 0
-4.96057e+06 -626667 0
-4.95231e+06 -688952 0
-4.94326e+06 -751128 0
-4.93343e+06 -813186 0
-4.92282e+06 -875115 0
-4.91144e+06 -936907 0
-4.89928e+06 -998550 0
-4.88634e+06 -1.06004e+06 0
-4.87263e+06 -1.12135e+06 0
-4.85816e+06 -1.1825e+06 0
-4.84292e+06 -1.24345e+06 0
-4.82691e+06 -1.30421e+06 0
-4.81014e+06 -1.36476e+06 0
-4.79261e+06 -1.4251e+06 0
-4.77432e+06 -1.48521e+06 0
-4.75528e+06 -1.54508e+06 0
-4.73549e+06 -1.60472e+06 0
-4.71495e+06 -1.6641e+06 0
-4.69367e+06 -1.72322e+06 0
-4.67164e+06 -1.78206e+06 0
-4.64888e+06 -1.84062e+06 0
-4.62539e+06 -1.8989e+06 0
-4.60116e+06 -1.95687e+06 0
-4.57621e+06 -2.01453e+06 0
-4.55053e+06 -2.07188e+06 0
-4.52414e+06 -2.1289e+06 0
-4.49703e+06 -2.18558e+06 0
-4.46921e+06 -2.24192e+06 0
-4.44068e+06 -2.2979e+06 0
-4.41146e+06 -2.35352e+06 0
-4.38153e+06 -2.40877e+06 0
-4.35092e+06 -2.46364e+06 0
-4.31962e+06 -2.51812e+06 0
-4.28763e+06 -2.5722e+06 0
-4.25497e+06 -2.62587e+06 0
-4.22164e+06 -2.67913e+06 0
-4.18764e+06 -2.73197e+06 0
-4.15298e+06 -2.78438e+06 0
-4.11766e+06 -2.83635e+06 0
-4.0817e+06 -2.88786e+06 0
-4.04508e+06 -2.93893e+06 0
-4.00783e+06 -2.98953e+06 0
-3.96995e+06 -3.03965e+06 0
-3.93144e+06 -3.0893e+06 0
-3.89231e+06 -3.13846e+06 0
-3.85257e+06 -3.18712e+06 0
-3.81221e+06 -3.23528e+06 0
-3.77126e+06 -3.28293e+06 0
-3.72971e+06 -3.33006e+06 0
-3.68756e+06 -3.37666e+06 0
-3.64484e+06 -3.42274e+06 0
-3.60154e+06 -3.46827e+06 0
-3.55768e+06 -3.51325e+06 0
-3.51325e+06 -3.55768e+06 0
-3.46827e+06 -3.60154e+06 0
-3.42273e+06 -3.64484e+06 0
-3.37666e+06 -3.68757e+06 0
-3.33006e+06 -3.72971e+06 0
-3.28293e+06 -3.77126e+06 0
-3.23528e+06 -3.81221e+06 0
-3.18712e+06 -3.85257e+06 0
-3.13846e+06 -3.89231e+06 0
-3.0893e+06 -3.93144e+06 0
-3.03965e+06 -3.96995e+06 0
-2.98952e+06 -4.00784e+06 0
-2.93893e+06 -4.04509e+06 0
-2.88786e+06 -4.0817e+06 0
-2.83634e+06 -4.11766e+06 0
-2.78438e+06 -4.15298e+06 0
-2.73197e+06 -4.18764e+06 0
-2.67913e+06 -4.22164e+06 0
-2.62587e+06 -4.25497e+06 0
-2.5722e+06 -4.28763e+06 0
-2.51812e+06 -4.31962e+06 0
-2.46364e+06 -4.35092e+06 0
-2.40877e+06 -4.38153e+06 0
-2.35352e+06 -4.41146e+06 0
-2.2979e+06 -4.44068e+06 0
-2.24192e+06 -4.46921e+06 0
-2.18558e+06 -4.49703e+06 0
-2.1289e+06 -4.52414e+06 0
-2.07188e+06 -4.55053e+06 0
-2.01453e+06 -4.57621e+06 0
-1.95687e+06 -4.60116e+06 0
-1.89889e+06 -4.62539e+06 0
-1.84062e+06 -4.64888e+06 0
-1.78206e+06 -4.67164e+06 0
-1.72321e+06 -4.69367e+06 0
-1.6641e+06 -4.71495e+06 0
-1.60472e+06 -4.73549e+06 0
-1.54509e+06 -4.75528e+06 0
-1.48521e+06 -4.77432e+06 0
-1.4251e+06 -4.79261e+06 0
-1.36476e+06 -4.81014e+06 0
-1.30421e+06 -4.82691e+06 0
-1.24345e+06 -4.84292e+06 0
-1.18249e+06 -4.85816e+06 0
-1.12135e+06 -4.87263e+06 0
-1.06004e+06 -4.88634e+06 0
-998549 -4.89928e+06 0
-936907 -4.91144e+06 0
-875115 -4.92282e+06 0
-813184 -4.93343e+06 0
-751128 -4.94326e+06 0
-688950 -4.95231e+06 0
-626666 -4.96057e+06 0
-564281 -4.96806e+06 0
-501809 -4.97476e+06 0
-439256 -4.98067e+06 0
-376633 -4.98579e+06 0
-313953 -4.99013e+06 0
-251221 -4.99368e+06 0
-188451 -4.99645e+06 0
-125650 -4.99842e+06 0
-62828.7 -4.9996e+06 0
0.0596244 -5e+06 0
62831.2 -4.9996e+06 0
125650 -4.99842e+06 0
188452 -4.99645e+06 0
251223 -4.99368e+06 0
313953 -4.99013e+06 0
376635 -4.98579e+06 0
439256 -4.98067e+06 0
501809 -4.97476e+06 0
564281 -4.96806e+06 0
626666 -4.96057e+06 0
688953 -4.95231e+06 0
751128 -4.94326e+06 0
813187 -4.93343e+06 0
875115 -4.92282e+06 0
936907 -4.91144e+06 0
998551 -4.89928e+06 0
1.06004e+06 -4.88634e+06 0
1.12135e+06 -4.87263e+06 0
1.18249e+06 -4.85816e+06 0
1.24345e+06 -4.84292e+06 0
1.30421e+06 -4.82691e+06 0
1.36476e+06 -4.81014e+06 0
1.4251e+06 -4.79261e+06 0
1.48521e+06 -4.77432e+06 0
1.54509e+06 -4.75528e+06 0
1.60472e+06 -4.73549e+06 0
1.6641e+06 -4.71495e+06 0
1.72322e+06 -4.69367e+06 0
1.78206e+06 -4.67164e+06 0
1.84062e+06 -4.64888e+06 0
1.89889e+06 -4.62539e+06 0
1.95687e+06 -4.60116e+06 0
2.01453e+06 -4.57621e+06 0
2.07188e+06 -4.55053e+06 0
2.1289e+06 -4.52414e+06 0
2.18558e+06 -4.49703e+06 0
2.24192e+06 -4.46921e+06 0
2.2979e+06 -4.44068e+06 0
2.35352e+06 -4.41146e+06 0
2.40877e+06 -4.38153e+06 0
2.46364e+06 -4.35092e+06 0
2.51812e+06 -4.31962e+06 0
2.5722e+06 -4.28763e+06 0
2.62587e+06 -4.25497e+06 0
2.67914e+06 -4.22164e+06 0
2.73197e+06 -4.18764e+06 0
2.78438e+06 -4.15298e+06 0
2.83635e+06 -4.11766e+06 0
2.88786e+06 -4.0817e+06 0
2.93893e+06 -4.04508e+06 0
2.98952e+06 -4.00784e+06 0
3.03965e+06 -3.96995e+06 0
3.0893e+06 -3.93144e+06 0
3.13846e+06 -3.89231e+06 0
3.18712e+06 -3.85257e+06 0
3.23528e+06 -3.81221e+06 0
3.28293e+06 -3.77126e+06 0
3.33006e+06 -3.72971e+06 0
3.37666e+06 -3.68756e+06 0
3.42274e+06 -3.64484e+06 0
3.46827e+06 -3.60154e+06 0
3.51325e+06 -3.55768e+06 0
3.55768e+06 -3.51325e+06 0
3.60155e+06 -3.46827e+06 0
3.64484e+06 -3.42273e+06 0
3.68757e+06 -3.37666e+06 0
3.72971e+06 -3.33006e+06 0
3.77126e+06 -3.28293e+06 0
3.81221e+06 -3.23528e+06 0
3.85257e+06 -3.18712e+06 0
3.89231e+06 -3.13846e+06 0
3.93144e+06 -3.0893e+06 0
3.96995e+06 -3.03965e+06 0
4.00784e+06 -2.98952e+06 0
4.04508e+06 -2.93893e+06 0
4.0817e+06 -2.88786e+06 0
4.11766e+06 -2.83634e+06 0
4.15298e+06 -2.78438e+06 0
4.18764e+06 -2.73197e+06 0
4.22164e+06 -2.67913e+06 0
4.25497e+06 -2.62587e+06 0
4.28763e+06 -2.5722e+06 0
4.31962e+06 -2.51812e+06 0
4.35092e+06 -2.46364e+06 0
4.38153e+06 -2.40877e+06 0
4.41146e+06 -2.35352e+06 0
4.44068e+06 -2.2979e+06 0
4.46921e+06 -2.24192e+06 0
4.49703e+06 -2.18558e+06 0
4.52414e+06 -2.1289e+06 0
4.55053e+06 -2.07188e+06 0
4.57621e+06 -2.01453e+06 0
4.60116e+06 -1.95687e+06 0
4.62539e+06 -1.89889e+06 0
4.64888e+06 -1.84062e+06 0
4.67164e+06 -1.78206e+06 0
4.69367e+06 -1.72322e+06 0
4.71495e+06 -1.6641e+06 0
4.73549e+06 -1.60472e+06 0
4.75528e+06 -1.54508e+06 0
4.77432e+06 -1.48521e+06 0
4.79261e+06 -1.4251e+06 0
4.81014e+06 -1.36476e+06 0
4.82691e+06 -1.30421e+06 0
4.84292e+06 -1.24345e+06 0
4.85816e+06 -1.18249e+06 0
4.87263e+06 -1.12135e+06 0
4.88634e+06 -1.06003e+06 0
4.89928e+06 -998550 0
4.91144e+06 -936906 0
4.92282e+06 -875114 0
4.93343e+06 -813186 0
4.94326e+06 -751127 0
4.95231e+06 -688952 0
4.96057e+06 -626666 0
4.96806e+06 -564280 0
4.97476e+06 -501808 0
4.98067e+06 -439255 0
4.98579e+06 -376634 0
4.99013e+06 -313952 0
4.99368e+06 -251220 0
4.99645e+06 -188451 0
4.99842e+06 -125649 0
4.9996e+06 -62830.3 0
778932 196075 0
957668 2.68444e+06 0
487651 290522 0
968846 -146925 0
-1.40358e+06 1.24779e+06 0
1.54576e+06 2.31513e+06 0
-10241.4 100758 0
-1.94735e+06 -2.52094e+06 0
1.89724e+06 3.49535e+06 0
-1.18128e+06 -2.13357e+06 0
1.24478e+06 2.79221e+06 0
-6559.12 -135.284 0
2.97544e+06 -182353 0
-385667 -1.14898e+06 0
1.35256e+06 4.27307e+06 0
-1.11147e+06 3.1637e+06 0
1.84306e+06 1.03344e+06 0
2.01646e+06 -3.9294e+06 0
2.28183e+06 23209.4 0
742318 560497 0
-4.3073e+06 239657 0
3.64321e+06 -624927 0
-2.23309e+06 -1.41732e+06 0
98335.4 -1.18732e+06 0
-949601 871659 0
-119510 -64134.7 0
3.5259e+06 -2.70006e+06 0
3.13046e+06 2.41721e+06 0
1.20152e+06 -3.59487e+06 0
280001 94753.7 0
-969680 3.68539e+06 0
-2.33051e+06 -3.64433e+06 0
1.58909e+06 -123125 0
-8877.86 -702962 0
1.37743e+06 1.59815e+06 0
-575675 4.14507e+06 0
-2.78903e+06 2.85102e+06 0
956684 -385912 0
1.53901e+06 743679 0
68606.9 -291307 0
3.55232e+06 2.43145e+06 0
2.47756e+06 -156219 0
1.9379e+06 -1.60576e+06 0
-144300 483984 0
-604816 -3.69429e+06 0
692203 353560 0
322088 -729034 0
175997 -166497 0
1.36168e+06 -132883 0
-2.57611e+06 2.41301e+06 0
170600 75016.6 0
-90277.5 -658297 0
-2.69501e+06 -1.54719e+06 0
2.32279e+06 -731828 0
-1.56074e+06 2.00377e+06 0
-1.33564e+06 -3.63346e+06 0
4.37716e+06 -455926 0
-544679 1.62447e+06 0
552366 191925 0
2.30677e+06 371998 0
697207 2.99635e+06 0
-791264 -571508 0
-981729 3.03174e+06 0
1.89651e+06 422491 0
-1.18483e+06 -852431 0
-1.06296e+06 -3.17253e+06 0
-647429 -1.97779e+06 0
-115230 2687.14 0
486279 -344074 0
3.40664e+06 1.47899e+06 0
-514909 2.80273e+06 0
1.30727e+06 3.15032e+06 0
-1.39256e+06 2.30002e+06 0
151605 -41383.9 0
852126 78145.2 0
1.95586e+06 2.00261e+06 0
-1.328e+06 1.63712e+06 0
-1.56138e+06 3.05113e+06 0
-3.60982e+06 -2.45e+06 0
609074 2.27997e+06 0
-470316 2.07957e+06 0
-2.2559e+06 -2.20061e+06 0
322391 -787962 0
-399489 -166555 0
325159 360822 0
3.64409e+06 -335199 0
-2.73988e+06 -871487 0
1.06127e+06 431612 0
-473094 -893667 0
-825909 3.91721e+06 0
-1.55891e+06 2.15874e+06 0
-1.80371e+06 2.72402e+06 0
953195 -377327 0
572131 -3.32324e+06 0
-1.27527e+06 -358348 0
-698507 897038 0
839216 2.04444e+06 0
3.22179e+06 -1.8942e+06 0
272816 1.24359e+06 0
-150773 -338985 0
-3.54081e+06 83708 0
802764 -936809 0
1.25074e+06 -1.37155e+06 0
3.03592e+06 -3.17559e+06 0
3.87842e+06 -2.15954e+06 0
-897734 -4.37057e+06 0
-634520 1.42975e+06 0
97222.8 -38048.2 0
214572 -778972 0
344282 1.02576e+06 0
-1.95149e+06 -1.53425e+06 0
1.71902e+06 2.69312e+06 0
-254746 438572 0
979548 -1.23958e+06 0
234092 -417222 0
-2.60951e+06 3.3731e+06 0
47227.5 196333 0
-552363 1.23186e+06 0
428869 -1.19437e+06 0
984300 -1.46106e+06 0
224602 207908 0
1.71168e+06 2.54525e+06 0
-512707 -139483 0
43781 -75457.5 0
2.5008e+06 212425 0
-2.12833e+06 2.14173e+06 0
638645 823112 0
2.57664e+06 1.50663e+06 0
-678058 -1.33536e+06 0
1.5967e+06 -1.27768e+06 0
-2.72317e+06 -2.33896e+06 0
-30069.7 -3.32433e+06 0
-244970 18251.4 0
-2.57714e+06 82724.9 0
-1.99168e+06 2.239e+06 0
185313 -1.91766e+06 0
4.2214e+06 -108872 0
-115092 45647.7 0
2.15313e+06 -245507 0
-61751.1 1.38827e+06 0
-2.13629e+06 -2.02252e+06 0
-786606 -585109 0
-36676 1.06102e+06 0
66890.3 -788814 0
-1.34841e+06 -2.01309e+06 0
1.20696e+06 2.21248e+06 0
-4.0076e+06 -593573 0
628728 -3.66912e+06 0
-870773 -312622 0
-962220 -2.05282e+06 0
-2.68638e+06 2.23014e+06 0
-485264 401502 0
2.38532e+06 -559608 0
1.33328e+06 2.32959e+06 0
-1.09073e+06 -601700 0
-1.12085e+06 -4.13398e+06 0
-38340.4 103519 0
-2.14406e+06 1.29556e+06 0
1.33458e+06 -2.20226e+06 0
-2.59714e+06 805851 0
1.40041e+06 -2.88353e+06 0
1.42064e+06 2.32488e+06 0
-205171 -2.36349e+06 0
2.50994e+06 -1.26207e+06 0
1.93366e+06 -2.68122e+06 0
2.33566e+06 844296 0
-1.26468e+06 -3.55237e+06 0
1.67579e+06 -169635 0
640150 -130308 0
3.69248e+06 -719962 0
2.39483e+06 3.28815e+06 0
-891954 -4.14278e+06 0
-3.63033e+06 2.59518e+06 0
-1.64776e+06 89910.3 0
-3.08914e+06 -139035 0
783059 3.56244e+06 0
4.22498e+06 -1.26749e+06 0
1.24736e+06 -1.15874e+06 0
-2.20502e+06 1.547e+06 0
112837 -5771.26 0
411636 1.30875e+06 0
-2.75727e+06 478913 0
1.35857e+06 -1.67868e+06 0
-944689 -510485 0
791623 -3.10991e+06 0
-467363 4.41507e+06 0
-2.7426e+06 -2.70274e+06 0
-2.50146e+06 2.54541e+06 0
-226319 -1.48805e+06 0
-1.69879e+06 -1.56447e+06 0
302096 -1.45241e+06 0
3.48316e+06 -963438 0
373522 -655802 0
-348399 634727 0
-2.44177e+06 -239014 0
-2.05097e+06 977878 0
-813405 1.66178e+06 0
-1.60988e+06 -100347 0
-43751 -66611.8 0
-3.25141e+06 663888 0
2.05054e+06 2.56257e+06 0
2.11638e+06 1.41042e+06 0
-650272 -1.78391e+06 0
-811443 -612686 0
-1.22405e+06 1.59737e+06 0
-618634 3.26027e+06 0
1.40065e+06 -721669 0
-1.51621e+06 -664892 0
4.25669e+06 648471 0
-1.37859e+06 1.09578e+06 0
-16300.2 170917 0
239610 -294443 0
1.96874e+06 341598 0
1.31494e+06 2.11514e+06 0
4.21124e+06 326391 0
-3.97326e+06 -893430 0
200463 -610451 0
3.7897e+06 2.19868e+06 0
-45985.1 -1.0691e+06 0
1.16761e+06 245123 0
-1.51948e+06 1.80256e+06 0
-67375.1 -1.06582e+06 0
615381 -1.5986e+06 0
9082.13 865088 0
1.75762e+06 2.43955e+06 0
-988078 -3.06441e+06 0
3.82185e+06 -1.47447e+06 0
234004 292185 0
1.63396e+06 1.18196e+06 0
585937 -244914 0
935107 4.20117e+06 0
4.02544e+06 757900 0
-2.41049e+06 2.66972e+06 0
453343 1.02533e+06 0
283093 744291 0
-2.42031e+06 -69467 0
-645827 -938702 0
1.09943e+06 543739 0
1.48834e+06 -2.05398e+06 0
-1.91004e+06 -1.74371e+06 0
1.00195e+06 2.94686e+06 0
214759 203146 0
-705568 -2.44168e+06 0
-3.26292e+06 -1.31299e+06 0
-2.83678e+06 -2.53351e+06 0
1.33896e+06 -1.68719e+06 0
1.48832e+06 -2.57141e+06 0
-1.60249e+06 -2.87262e+06 0
-116950 519339 0
-871720 -554936 0
4.04428e+06 262445 0
-1.4343e+06 -529594 0
2.87504e+06 174776 0
-348422 -1.81254e+06 0
-1.12781e+06 -98970.3 0
2.82e+06 473485 0
2.61827e+06 3.51829e+06 0
1.76078e+06 576582 0
2.19363e+06 -132194 0
64572 -4.48251e+06 0
-2.45853e+06 2.50764e+06 0
416612 640940 0
-4.41858e+06 -566913 0
1.20719e+06 3.54248e+06 0
-572530 -799122 0
1.06891e+06 -878172 0
-286581 1.45186e+06 0
46644.2 199773 0
687001 477150 0
-3.52062e+06 -1.03377e+06 0
-432071 -2.08524e+06 0
-252854 -3.27052e+06 0
-2.95432e+06 -2.45742e+06 0
-1.89102e+06 783024 0
-970109 -1.39544e+06 0
796114 -794892 0
-252487 757794 0
243052 -26035.4 0
1.88414e+06 1.64101e+06 0
1.49862e+06 -2.66755e+06 0
1.16878e+06 1.4795e+06 0
770265 -1.05002e+06 0
-919509 270121 0
-778096 -447002 0
108176 -1.44866e+06 0
822622 2.68268e+06 0
-2.58359e+06 2.86333e+06 0
1.22807e+06 -1.12992e+06 0
1.75584e+06 173768 0
-1.53138e+06 -3.58307e+06 0
645613 -3.81264e+06 0
3.48616e+06 -2.47892e+06 0
-2.31445e+06 1.17727e+06 0
2.97109e+06 -2.1318e+06 0
-182580 -759278 0
8272.65 47266.6 0
-997051 -748532 0
24054.4 395589 0
1.07191e+06 801103 0
-2.60825e+06 2.37584e+06 0
-947411 747964 0
-2.47435e+06 3.01733e+06 0
-10667.5 -16587.4 0
1.97341e+06 1.006e+06 0
20016.2 248794 0
-27304.6 16113.1 0
-1.03207e+06 1.65612e+06 0
1.94103e+06 -711163 0
1.27221e+06 2.27247e+06 0
1.58325e+06 2.01498e+06 0
-1.19896e+06 568785 0
-2.78187e+06 -458750 0
-2.92407e+06 869082 0
-2.91199e+06 1.331e+06 0
375704 -3.15088e+06 0
-438295 3.13129e+06 0
3.05208e+06 -1.41501e+06 0
2.26945e+06 2.54043e+06 0
-1.80751e+06 520622 0
-768669 1.3383e+06 0
900764 1.15855e+06 0
4.44128e+06 519270 0
-288256 1.47964e+06 0
1.82981e+06 449026 0
1.94315e+06 2.42734e+06 0
-6441.82 78790.9 0
-4.31192e+06 380655 0
1.59859e+06 -4.05964e+06 0
-3.09028e+06 -213127 0
2.30141e+06 -2.0751e+06 0
796900 -1.23316e+06 0
-3.97884e+06 -518600 0
-601142 625555 0
-75053.6 -1.78847e+06 0
5349.25 277393 0
-308439 -715963 0
-689120 198470 0
-1.65916e+06 806617 0
-169411 -228911 0
-62078.8 -11083.2 0
365044 97313.8 0
3.69869e+06 -1.35315e+06 0
2.5564e+06 -2.85878e+06 0
390747 4.0848e+06 0
12049.6 2.91145e+06 0
-688036 -2.9791e+06 0
-8209.71 -493845 0
-1.97741e+06 2.93286e+06 0
-892708 2.33401e+06 0
-3.89609e+06 -1.48321e+06 0
-2.0403e+06 -992697 0
-2.2699e+06 -2.60768e+06 0
-1.27348e+06 655445 0
147467 27134.8 0
-3.33753e+06 667577 0
1.802e+06 689348 0
-579766 1.38832e+06 0
2.59909e+06 3.1871e+06 0
-3.47852e+06 -456473 0
616742 2.28401e+06 0
693348 -1.03626e+06 0
-1.57706e+06 2.09043e+06 0
2.10005e+06 1.75924e+06 0
431911 1.11821e+06 0
752300 3.41568e+06 0
1.65296e+06 3.506e+06 0
392525 -1.22509e+06 0
528301 -2.92969e+06 0
833359 -1.9914e+06 0
-1.67311e+06 -792500 0
1.32187e+06 3.25836e+06 0
-2.99462e+06 2.32907e+06 0
1.07695e+06 885352 0
10839 2.36713e+06 0
-2.06468e+06 914071 0
2.44515e+06 -1.54952e+06 0
23659.6 463991 0
-2.05028e+06 512637 0
-135859 -524796 0
2.04221e+06 -2.06632e+06 0
-1.253e+06 1.45592e+06 0
-142376 2.81015e+06 0
-466255 -540344 0
-1.63813e+06 3.71818e+06 0
57536.5 3.64115e+06 0
2.07989e+06 -661680 0
471648 18924.4 0
-1.03273e+06 646364 0
1.63373e+06 -2.18633e+06 0
-1.85435e+06 3.29272e+06 0
2.75466e+06 1.57584e+06 0
-333921 -4.26698e+06 0
-1.41773e+06 -635329 0
-1.95303e+06 -168299 0
1.84608e+06 -690769 0
499472 -954563 0
-995110 3.23667e+06 0
-1.97532e+06 -1.93111e+06 0
332866 344474 0
3.17422e+06 473984 0
-2.23061e+06 -183917 0
343061 -2.46374e+06 0
-1.49911e+06 -207552 0
2.17925e+06 -619564 0
-128648 260555 0
-2.32266e+06 902143 0
1.04893e+06 -2.04731e+06 0
-2.92456e+06 -1.76933e+06 0
-3.29069e+06 2.14021e+06 0
43712.9 108873 0
-1.06744e+06 -1.7961e+06 0
-1.54995e+06 -3.69181e+06 0
11003.4 -10527.9 0
806291 -272619 0
-3.75578e+06 698851 0
1.78355e+06 72661.3 0
371007 4.10224e+06 0
86049.6 -2.18756e+06 0
-1.8154e+06 -456501 0
2.12714e+06 -15442.6 0
-1.71505e+06 1.97136e+06 0
-2.56943e+06 -3.34764e+06 0
-481630 591979 0
2.90454e+06 419726 0
-3.98456e+06 180837 0
-40988.2 825566 0
-547148 1.93382e+06 0
-662639 1.18789e+06 0
-492007 -3.74287e+06 0
-2.55772e+06 1.23999e+06 0
2.42486e+06 3.75668e+06 0
278014 -2.2978e+06 0
1.41742e+06 -373749 0
969140 1.33984e+06 0
-3.0995e+06 -291280 0
-434533 -476147 0
346690 -2.32716e+06 0
-3.18555e+06 -2.02062e+06 0
1.8497e+06 1.52891e+06 0
-2.93913e+06 337063 0
-293817 129617 0
-669419 -87497.2 0
97248.5 -702213 0
-1.10854e+06 -1.14806e+06 0
804261 -525328 0
1.20199e+06 -142812 0
1.29377e+06 2.71686e+06 0
2.39517e+06 -3.5086e+06 0
-469971 2.19835e+06 0
-422472 -356487 0
1.45809e+06 -170428 0
-3.25394e+06 987283 0
2.25388e+06 -506341 0
-762042 3.90749e+06 0
-1.16615e+06 -4.1e+06 0
34261.6 -749.175 0
1.80189e+06 1.4821e+06 0
949369 -166495 0
1.41701e+06 2.35588e+06 0
-610908 1.04074e+06 0
499431 -2.63144e+06 0
1.25648e+06 4.15539e+06 0
-1.26358e+06 565468 0
-1.40051e+06 -3.97037e+06 0
-253015 616307 0
2.28836e+06 2.64466e+06 0
2.36209e+06 -2.38861e+06 0
366626 783294 0
-275135 -3.40224e+06 0
364942 1.76816e+06 0
872488 1.04101e+06 0
3.80682e+06 -86275.9 0
-1.11468e+06 -1.33321e+06 0
-93417.5 -2.4469e+06 0
-82469.8 -792713 0
-2.7108e+06 -3.37792e+06 0
-399743 -1.23962e+06 0
860838 3.60531e+06 0
-259975 3.58641e+06 0
1.01715e+06 -975155 0
2.09109e+06 -810245 0
808376 -160195 0
-1.85406e+06 -2.50621e+06 0
104921 -2.27384e+06 0
2.64783e+06 -138145 0
2.54955e+06 -58841 0
90199.9 -1.24354e+06 0
2.67475e+06 3.25319e+06 0
279071 -126193 0
-74394.4 137324 0
-1.18418e+06 -3.39621e+06 0
2.68757e+06 2.57284e+06 0
1.73297e+06 -1.73572e+06 0
-3.87021e+06 2.2739e+06 0
2.53257e+06 -116125 0
-1.71904e+06 928604 0
-1.70967e+06 -2.47192e+06 0
2.91098e+06 -956194 0
-40735.9 213631 0
2.35717e+06 -2.4917e+06 0
3 821 7 8 
3 9 10 821 
3 821 10 11 
3 636 556 498 
3 821 13 14 
3 15 708 821 
3 14 15 821 
3 714 636 2 
3 12 13 821 
3 11 12 821 
3 971 750 899 
3 16 17 708 
3 17 18 708 
3 731 20 21 
3 19 20 708 
3 731 22 23 
3 21 22 731 
3 31 717 30 
3 23 24 731 
3 569 731 27 
3 731 26 27 
3 569 27 28 
3 569 28 29 
3 569 29 30 
3 35 717 34 
3 717 31 32 
3 899 731 569 
3 32 33 717 
3 33 34 717 
3 731 24 25 
3 143 144 589 
3 36 717 35 
3 38 39 717 
3 38 717 37 
3 39 40 717 
3 43 717 42 
3 44 717 43 
3 45 46 717 
3 45 717 44 
3 540 717 46 
3 48 540 47 
3 540 46 47 
3 809 505 713 
3 51 540 50 
3 540 49 50 
3 57 540 56 
3 540 52 53 
3 55 540 54 
3 540 53 54 
3 540 55 56 
3 527 59 60 
3 527 540 58 
3 527 58 59 
3 540 57 58 
3 540 51 52 
3 77 930 76 
3 65 987 64 
3 987 63 64 
3 61 62 987 
3 987 857 991 
3 987 65 66 
3 74 75 756 
3 987 68 756 
3 68 69 756 
3 670 508 611 
3 70 71 756 
3 756 71 72 
3 756 73 74 
3 987 67 68 
3 930 75 76 
3 508 930 89 
3 930 78 79 
3 77 78 930 
3 930 79 80 
3 930 80 81 
3 670 756 930 
3 930 81 82 
3 508 89 90 
3 808 501 645 
3 930 756 75 
3 85 930 84 
3 85 86 930 
3 87 930 86 
3 930 82 83 
3 89 930 88 
3 60 61 987 
3 116 916 115 
3 93 94 514 
3 514 91 92 
3 93 514 92 
3 95 514 94 
3 96 514 95 
3 97 514 96 
3 98 514 97 
3 100 514 99 
3 514 98 99 
3 101 514 100 
3 103 104 514 
3 102 514 101 
3 514 102 103 
3 105 514 104 
3 106 514 105 
3 113 730 112 
3 108 730 107 
3 730 106 107 
3 740 560 785 
3 730 111 112 
3 109 110 730 
3 730 114 115 
3 685 126 127 
3 120 121 916 
3 116 117 916 
3 120 916 119 
3 843 675 977 
3 916 117 118 
3 119 916 118 
3 916 121 122 
3 122 123 916 
3 685 125 126 
3 124 916 123 
3 124 125 685 
3 158 159 883 
3 685 129 130 
3 128 685 127 
3 133 685 132 
3 130 131 685 
3 685 131 132 
3 685 138 139 
3 685 134 135 
3 685 135 136 
3 137 138 685 
3 141 142 535 
3 140 685 139 
3 140 141 685 
3 685 133 134 
3 685 141 535 
3 535 142 143 
3 90 91 508 
3 589 145 146 
3 144 145 589 
3 589 146 147 
3 589 147 148 
3 157 158 883 
3 148 149 589 
3 883 151 152 
3 589 149 883 
3 154 155 883 
3 155 156 883 
3 154 883 153 
3 883 152 153 
3 157 883 156 
3 151 883 150 
3 672 191 192 
3 163 883 162 
3 162 883 161 
3 883 160 161 
3 699 854 600 
3 883 159 160 
3 883 164 165 
3 883 165 166 
3 176 615 175 
3 170 615 169 
3 167 615 883 
3 171 615 170 
3 889 847 577 
3 615 168 169 
3 615 172 173 
3 615 173 174 
3 615 174 175 
3 179 615 178 
3 615 176 177 
3 615 177 178 
3 883 166 167 
3 615 179 180 
3 615 180 181 
3 183 615 182 
3 615 181 182 
3 615 183 184 
3 615 184 185 
3 615 185 186 
3 615 186 536 
3 186 187 536 
3 740 501 510 
3 188 536 187 
3 189 536 188 
3 168 615 167 
3 762 252 253 
3 536 190 191 
3 194 672 193 
3 672 192 193 
3 195 196 672 
3 195 672 194 
3 197 198 672 
3 197 672 196 
3 201 202 672 
3 200 201 672 
3 200 672 199 
3 672 203 204 
3 993 204 205 
3 199 672 198 
3 210 993 209 
3 206 207 993 
3 207 208 993 
3 213 214 993 
3 213 993 212 
3 210 211 993 
3 205 206 993 
3 215 993 214 
3 217 993 216 
3 993 215 216 
3 218 219 993 
3 993 219 220 
3 993 221 914 
3 951 993 914 
3 223 224 914 
3 993 951 908 
3 993 220 221 
3 929 659 905 
3 226 914 225 
3 227 914 226 
3 291 578 290 
3 951 854 699 
3 230 231 914 
3 230 914 229 
3 232 914 231 
3 826 914 232 
3 826 232 233 
3 826 234 235 
3 233 234 826 
3 826 235 236 
3 826 237 238 
3 236 237 826 
3 715 762 268 
3 826 239 240 
3 826 240 241 
3 826 241 242 
3 520 245 246 
3 826 243 244 
3 826 244 245 
3 826 245 520 
3 520 247 248 
3 246 247 520 
3 826 242 243 
3 249 250 520 
3 249 520 248 
3 520 251 252 
3 275 849 274 
3 762 254 255 
3 253 254 762 
3 258 762 257 
3 255 256 762 
3 762 256 257 
3 262 263 762 
3 261 762 260 
3 262 762 261 
3 265 266 762 
3 264 265 762 
3 264 762 263 
3 762 258 259 
3 238 239 826 
3 268 762 267 
3 858 715 769 
3 270 715 269 
3 271 272 715 
3 272 273 849 
3 279 280 849 
3 274 849 273 
3 849 276 277 
3 277 278 849 
3 275 276 849 
3 858 828 600 
3 279 849 278 
3 849 283 284 
3 849 743 769 
3 849 280 281 
3 849 284 285 
3 849 288 578 
3 937 907 743 
3 286 287 849 
3 287 288 849 
3 288 289 578 
3 531 334 335 
3 351 954 350 
3 578 289 290 
3 293 294 578 
3 293 578 292 
3 294 295 578 
3 295 296 578 
3 292 578 291 
3 298 299 578 
3 297 578 296 
3 578 297 298 
3 811 934 586 
3 301 302 578 
3 640 552 581 
3 303 578 302 
3 305 306 578 
3 578 303 304 
3 305 578 304 
3 308 578 307 
3 686 772 308 
3 975 322 323 
3 686 309 310 
3 308 309 686 
3 686 310 311 
3 975 317 318 
3 975 312 313 
3 315 316 975 
3 315 975 314 
3 907 630 581 
3 580 969 873 
3 319 975 318 
3 975 686 311 
3 321 975 320 
3 322 975 321 
3 324 325 975 
3 324 975 323 
3 307 578 306 
3 531 975 326 
3 918 902 697 
3 328 531 327 
3 531 326 327 
3 531 328 329 
3 531 333 334 
3 531 330 331 
3 332 531 331 
3 531 329 330 
3 717 540 527 
3 337 531 336 
3 531 335 336 
3 339 531 338 
3 531 337 338 
3 963 343 344 
3 342 343 963 
3 963 340 341 
3 963 344 345 
3 340 911 339 
3 348 963 347 
3 963 346 347 
3 954 963 349 
3 954 349 350 
3 655 351 352 
3 954 351 655 
3 655 353 605 
3 352 353 655 
3 353 354 605 
3 355 356 605 
3 355 605 354 
3 963 348 349 
3 459 604 458 
3 360 361 605 
3 356 357 605 
3 605 357 358 
3 605 359 360 
3 362 605 361 
3 363 605 362 
3 364 605 363 
3 709 524 819 
3 759 891 370 
3 891 365 366 
3 759 370 371 
3 891 367 368 
3 367 891 366 
3 373 759 372 
3 620 529 840 
3 369 891 368 
3 759 371 372 
3 365 605 364 
3 374 375 759 
3 374 759 373 
3 759 376 377 
3 759 377 378 
3 381 759 380 
3 378 379 759 
3 928 544 671 
3 759 381 382 
3 528 647 790 
3 386 759 385 
3 759 384 385 
3 759 383 384 
3 790 759 386 
3 392 393 790 
3 390 790 389 
3 391 790 390 
3 392 790 391 
3 790 387 388 
3 827 397 398 
3 790 393 394 
3 827 394 395 
3 827 395 396 
3 790 394 827 
3 827 400 401 
3 397 827 396 
3 399 400 827 
3 399 827 398 
3 827 404 405 
3 827 517 528 
3 402 827 401 
3 403 404 827 
3 827 407 408 
3 827 406 407 
3 405 406 827 
3 759 382 383 
3 409 517 408 
3 517 827 408 
3 410 517 409 
3 604 454 455 
3 413 414 517 
3 517 411 412 
3 413 517 412 
3 517 416 417 
3 980 629 542 
3 417 418 517 
3 947 419 420 
3 418 419 517 
3 947 420 421 
3 784 635 690 
3 422 947 421 
3 947 426 427 
3 424 947 423 
3 425 426 947 
3 947 427 428 
3 423 947 422 
3 428 603 947 
3 434 603 433 
3 430 431 603 
3 603 432 433 
3 436 603 435 
3 603 434 435 
3 437 603 436 
3 429 603 428 
3 449 526 448 
3 440 603 439 
3 603 438 439 
3 442 603 441 
3 603 440 441 
3 442 443 526 
3 442 526 603 
3 444 445 526 
3 425 947 424 
3 526 445 446 
3 526 447 448 
3 446 447 526 
3 603 437 438 
3 449 450 526 
3 450 451 526 
3 526 452 453 
3 526 453 454 
3 451 452 526 
3 466 467 604 
3 455 456 604 
3 456 457 604 
3 457 458 604 
3 18 19 708 
3 459 460 604 
3 604 461 462 
3 604 463 464 
3 462 463 604 
3 466 604 465 
3 604 464 465 
3 556 489 490 
3 604 467 468 
3 676 726 469 
3 676 469 470 
3 479 676 478 
3 475 676 474 
3 471 472 676 
3 604 468 726 
3 676 472 473 
3 997 521 512 
3 676 477 478 
3 476 477 676 
3 676 470 471 
3 482 676 481 
3 669 676 556 
3 984 512 752 
3 676 482 483 
3 488 489 556 
3 483 484 676 
3 484 485 556 
3 488 556 487 
3 486 487 556 
3 556 485 486 
3 676 484 556 
3 556 493 494 
3 556 492 493 
3 491 556 490 
3 491 492 556 
3 821 6 7 
3 556 495 496 
3 556 496 497 
3 556 497 498 
3 997 663 816 
3 2 636 1 
3 636 0 1 
3 3 821 2 
3 4 821 3 
3 5 821 4 
3 163 164 883 
3 517 410 411 
3 730 110 111 
3 40 41 717 
3 223 914 222 
3 719 574 503 
3 429 430 603 
3 898 502 584 
3 993 208 209 
3 856 766 822 
3 704 806 576 
3 988 547 711 
3 640 581 507 
3 975 311 312 
3 975 325 326 
3 921 975 531 
3 611 508 865 
3 930 87 88 
3 990 666 544 
3 342 963 341 
3 661 958 653 
3 730 108 109 
3 955 607 679 
3 720 504 576 
3 636 498 499 
3 0 636 499 
3 838 525 632 
3 525 567 632 
3 961 514 730 
3 508 91 514 
3 883 149 150 
3 962 782 810 
3 701 956 516 
3 719 503 945 
3 415 517 414 
3 415 416 517 
3 985 518 541 
3 587 519 545 
3 734 609 723 
3 545 500 587 
3 221 222 914 
3 250 251 520 
3 676 479 480 
3 481 676 480 
3 835 588 794 
3 269 715 268 
3 846 539 599 
3 869 564 707 
3 964 543 748 
3 768 502 545 
3 838 539 698 
3 637 805 656 
3 444 526 443 
3 652 512 984 
3 755 624 752 
3 540 48 49 
3 790 386 387 
3 779 660 664 
3 840 558 502 
3 840 898 620 
3 562 570 705 
3 137 685 136 
3 851 630 686 
3 332 333 531 
3 604 526 454 
3 563 559 665 
3 551 974 533 
3 945 537 932 
3 645 859 596 
3 728 872 538 
3 916 685 535 
3 705 896 562 
3 190 536 189 
3 883 515 530 
3 980 542 663 
3 945 503 592 
3 712 559 563 
3 728 534 780 
3 846 614 539 
3 547 607 623 
3 991 862 890 
3 717 41 42 
3 885 807 980 
3 944 765 537 
3 775 692 895 
3 947 660 517 
3 989 940 637 
3 620 741 529 
3 891 369 370 
3 866 722 618 
3 768 545 519 
3 502 558 545 
3 608 582 546 
3 706 932 537 
3 981 574 668 
3 777 550 853 
3 765 787 706 
3 719 548 788 
3 813 951 812 
3 536 191 672 
3 955 912 623 
3 573 547 988 
3 878 551 846 
3 533 942 846 
3 285 286 849 
3 522 586 552 
3 518 758 541 
3 726 597 604 
3 819 606 696 
3 634 591 732 
3 666 555 954 
3 911 531 339 
3 669 556 521 
3 494 495 556 
3 785 844 579 
3 696 806 819 
3 729 988 568 
3 500 545 558 
3 624 559 518 
3 757 538 719 
3 571 870 740 
3 705 953 530 
3 935 783 882 
3 835 794 551 
3 577 572 562 
3 884 978 844 
3 737 719 538 
3 919 667 638 
3 869 689 943 
3 774 910 702 
3 845 662 742 
3 725 509 747 
3 742 662 770 
3 891 928 671 
3 698 839 525 
3 710 616 767 
3 539 614 711 
3 775 601 765 
3 25 26 731 
3 717 527 569 
3 572 848 562 
3 873 579 844 
3 611 571 510 
3 865 514 961 
3 515 577 562 
3 554 576 806 
3 679 607 573 
3 607 547 573 
3 719 587 500 
3 500 558 668 
3 778 575 809 
3 621 700 611 
3 880 576 504 
3 720 678 657 
3 847 591 577 
3 591 590 572 
3 300 578 299 
3 300 301 578 
3 859 501 785 
3 785 560 844 
3 848 580 948 
3 557 606 856 
3 644 689 739 
3 937 743 849 
3 692 716 546 
3 660 684 528 
3 632 583 838 
3 835 882 764 
3 626 967 761 
3 909 506 825 
3 521 585 512 
3 521 556 585 
3 850 694 586 
3 267 762 266 
3 574 719 500 
3 737 798 519 
3 882 783 641 
3 974 718 643 
3 896 705 530 
3 535 143 589 
3 572 590 554 
3 572 577 591 
3 889 801 847 
3 760 625 634 
3 981 913 957 
3 913 944 592 
3 759 379 380 
3 682 992 629 
3 751 892 654 
3 683 749 783 
3 642 639 766 
3 927 819 524 
3 969 596 579 
3 713 505 661 
3 512 652 997 
3 999 664 842 
3 863 680 598 
3 969 579 873 
3 882 641 764 
3 878 846 599 
3 625 549 799 
3 520 252 762 
3 944 692 775 
3 582 523 618 
3 677 602 629 
3 745 906 738 
3 432 603 431 
3 526 791 603 
3 791 604 597 
3 460 461 604 
3 359 605 358 
3 671 666 954 
3 927 856 819 
3 557 696 606 
3 853 679 573 
3 698 525 838 
3 942 608 716 
3 523 582 608 
3 967 733 609 
3 598 639 642 
3 552 640 522 
3 943 628 736 
3 946 611 510 
3 991 527 987 
3 524 800 595 
3 839 567 525 
3 781 613 979 
3 986 523 718 
3 692 614 716 
3 711 547 539 
3 172 615 171 
3 786 687 732 
3 767 616 741 
3 804 834 998 
3 959 776 642 
3 856 822 557 
3 860 618 830 
3 986 718 721 
3 613 619 602 
3 830 781 860 
3 727 620 898 
3 741 550 529 
3 724 621 505 
3 575 862 817 
3 941 648 783 
3 783 561 641 
3 539 623 698 
3 539 547 623 
3 985 624 518 
3 755 627 665 
3 720 920 678 
3 920 590 634 
3 587 737 519 
3 820 680 863 
3 665 627 701 
3 890 527 991 
3 702 628 774 
3 513 588 736 
3 807 894 629 
3 602 682 629 
3 851 581 630 
3 581 552 907 
3 814 901 973 
3 968 544 928 
3 940 632 637 
3 622 583 632 
3 681 633 877 
3 695 995 657 
3 920 634 625 
3 590 591 634 
3 770 662 917 
3 901 814 867 
3 821 708 714 
3 585 556 636 
3 839 637 567 
3 632 567 637 
3 758 919 638 
3 894 706 629 
3 595 693 776 
3 598 680 969 
3 982 996 897 
3 739 522 640 
3 749 703 561 
3 703 736 764 
3 959 642 617 
3 609 598 642 
3 551 794 974 
3 523 608 643 
3 640 982 897 
3 649 566 702 
3 534 713 596 
3 653 946 501 
3 858 646 715 
3 270 271 715 
3 593 647 528 
3 593 631 647 
3 941 782 754 
3 594 654 683 
3 509 649 910 
3 982 507 747 
3 792 657 678 
3 799 536 871 
3 622 940 836 
3 612 693 922 
3 638 952 541 
3 553 663 997 
3 808 661 653 
3 946 621 611 
3 751 654 594 
3 564 796 654 
3 671 655 605 
3 555 789 911 
3 909 710 506 
3 710 998 989 
3 720 657 504 
3 782 962 754 
3 619 868 906 
3 947 517 419 
3 939 681 699 
3 877 735 900 
3 960 660 746 
3 528 517 660 
3 808 713 661 
3 505 621 958 
3 649 742 566 
3 867 593 684 
3 980 663 553 
3 542 829 875 
3 947 664 660 
3 888 658 746 
3 855 665 803 
3 559 624 755 
3 565 990 544 
3 747 507 851 
3 915 712 788 
3 950 548 932 
3 988 711 568 
3 574 500 668 
3 841 669 691 
3 676 475 476 
3 62 63 987 
3 69 70 756 
3 365 891 605 
3 544 666 671 
3 536 672 871 
3 202 203 672 
3 962 673 754 
3 594 648 754 
3 831 858 600 
3 811 694 633 
3 977 675 864 
3 844 978 815 
3 468 469 726 
3 473 474 676 
3 787 677 706 
3 613 602 677 
3 650 678 625 
3 812 699 681 
3 909 825 795 
3 955 511 912 
3 609 863 598 
3 933 596 969 
3 812 681 659 
3 939 633 681 
3 619 745 602 
3 745 738 682 
3 594 683 648 
3 683 796 749 
3 906 960 658 
3 593 528 684 
3 953 978 535 
3 128 129 685 
3 316 317 975 
3 851 507 581 
3 549 687 536 
3 549 625 760 
3 976 688 721 
3 833 635 784 
3 739 689 610 
3 910 649 702 
3 722 690 635 
3 866 523 986 
3 521 691 669 
3 841 597 726 
3 614 692 568 
3 546 582 692 
3 832 693 595 
3 612 543 964 
3 674 811 633 
3 850 522 610 
3 792 695 657 
3 877 633 735 
3 926 696 557 
3 696 848 806 
3 754 697 902 
3 673 877 893 
3 802 698 623 
3 802 805 839 
3 225 914 224 
3 600 674 939 
3 611 700 965 
3 621 724 824 
3 803 701 516 
3 862 575 778 
3 753 702 566 
3 688 628 702 
3 561 703 641 
3 796 736 703 
3 709 819 880 
3 806 572 554 
3 815 705 570 
3 978 953 705 
3 629 706 677 
3 932 548 945 
3 918 869 707 
3 850 610 689 
3 5 6 821 
3 15 16 708 
3 995 837 709 
3 962 818 673 
3 998 710 804 
3 656 506 710 
3 568 711 614 
3 988 729 886 
3 559 712 919 
3 563 788 712 
3 596 713 645 
3 809 575 724 
3 731 714 708 
3 750 636 714 
3 282 849 281 
3 646 762 715 
3 942 716 846 
3 608 546 716 
3 30 717 569 
3 36 37 717 
3 688 986 721 
3 523 643 718 
3 532 788 548 
3 823 563 757 
3 554 720 576 
3 920 625 678 
3 513 721 794 
3 513 976 721 
3 868 722 635 
3 619 613 830 
3 876 584 734 
3 609 642 723 
3 809 724 505 
3 824 700 621 
3 509 725 742 
3 565 544 845 
3 669 841 676 
3 841 816 597 
3 876 748 543 
3 767 741 727 
3 516 728 538 
3 956 701 938 
3 692 944 568 
3 913 668 729 
3 106 730 514 
3 113 114 730 
3 20 731 708 
3 755 665 559 
3 847 732 591 
3 687 760 732 
3 734 967 609 
3 933 780 596 
3 925 876 734 
3 761 519 626 
3 694 735 633 
3 900 893 877 
3 943 736 796 
3 628 513 736 
3 719 737 587 
3 933 872 780 
3 966 879 664 
3 992 682 738 
3 522 739 610 
3 897 644 739 
3 571 740 510 
3 740 870 864 
3 727 741 620 
3 616 550 741 
3 509 742 649 
3 845 771 973 
3 772 630 937 
3 552 586 743 
3 686 744 772 
3 686 630 744 
3 602 745 682 
3 619 722 868 
3 879 888 664 
3 658 960 746 
3 990 747 789 
3 565 725 747 
3 925 748 876 
3 804 710 767 
3 783 749 561 
3 683 654 796 
3 636 750 971 
3 714 731 750 
3 892 751 707 
3 918 697 893 
3 585 971 512 
3 899 569 890 
3 702 753 688 
3 833 770 917 
3 941 754 648 
3 673 697 754 
3 512 899 752 
3 899 890 755 
3 857 987 670 
3 72 73 756 
3 665 855 563 
3 855 538 757 
3 541 758 638 
3 919 712 915 
3 376 759 375 
3 790 631 891 
3 732 760 634 
3 687 549 760 
3 584 761 734 
3 584 502 761 
3 260 762 259 
3 646 831 762 
3 864 763 977 
3 865 508 514 
3 703 764 641 
3 736 588 764 
3 537 765 706 
3 979 613 787 
3 642 766 617 
3 822 580 926 
3 797 834 727 
3 904 834 797 
3 761 768 519 
3 761 502 768 
3 272 849 715 
3 743 586 769 
3 566 770 753 
3 566 742 770 
3 973 771 631 
3 845 544 968 
3 308 772 578 
3 744 630 772 
3 995 773 837 
3 874 905 877 
3 943 774 628 
3 689 644 910 
3 944 775 765 
3 692 582 895 
3 964 776 693 
3 925 642 776 
3 668 886 729 
3 529 550 777 
3 956 938 778 
3 701 862 778 
3 746 779 664 
3 746 660 779 
3 872 728 780 
3 534 596 780 
3 775 895 601 
3 618 722 830 
3 832 800 887 
3 887 810 782 
3 941 783 622 
3 648 683 783 
3 833 784 688 
3 690 866 986 
3 859 785 579 
3 501 740 785 
3 536 786 801 
3 536 687 786 
3 979 787 765 
3 613 677 787 
3 719 788 757 
3 532 667 915 
3 666 789 555 
3 747 531 789 
3 389 790 388 
3 647 631 790 
3 793 791 597 
3 526 604 791 
3 650 813 678 
3 905 874 695 
3 791 793 842 
3 597 816 793 
3 513 794 588 
3 974 643 533 
3 853 909 679 
3 825 656 805 
3 749 796 703 
3 564 943 796 
3 584 876 727 
3 876 543 797 
3 519 798 626 
3 737 538 798 
3 625 799 650 
3 549 536 799 
3 836 832 782 
3 524 709 852 
3 536 801 615 
3 786 732 801 
3 912 802 623 
3 511 805 802 
3 855 803 516 
3 665 701 803 
3 727 804 767 
3 904 543 612 
3 795 805 511 
3 795 825 805 
3 880 819 806 
3 696 926 848 
3 652 903 553 
3 638 667 894 
3 501 808 653 
3 645 713 808 
3 534 809 713 
3 534 778 809 
3 524 852 887 
3 962 837 818 
3 828 811 674 
3 586 694 811 
3 929 813 812 
3 217 218 993 
3 659 929 812 
3 993 672 204 
3 593 814 631 
3 917 635 833 
3 881 815 570 
3 884 864 675 
3 997 816 691 
3 663 875 816 
3 700 817 965 
3 700 824 817 
3 874 877 773 
3 877 673 818 
3 704 880 806 
3 524 595 927 
3 626 970 733 
3 970 798 872 
3 2 821 714 
3 8 9 821 
3 639 822 766 
3 639 969 822 
3 788 823 757 
3 788 563 823 
3 575 824 724 
3 575 817 824 
3 955 909 795 
3 506 656 825 
3 924 914 826 
3 914 227 228 
3 790 827 528 
3 402 403 827 
3 600 828 674 
3 934 811 828 
3 875 829 793 
3 888 738 658 
3 619 830 722 
3 613 781 830 
3 924 831 600 
3 520 762 831 
3 922 832 651 
3 595 800 832 
3 753 833 688 
3 753 770 833 
3 727 834 804 
3 797 543 904 
3 935 882 835 
3 764 588 835 
3 632 940 622 
3 651 832 836 
3 504 995 709 
3 773 818 837 
3 949 838 583 
3 599 539 838 
3 802 839 698 
3 805 637 839 
3 777 840 529 
3 886 558 840 
3 676 841 726 
3 691 816 841 
3 791 842 603 
3 793 829 966 
3 115 916 730 
3 916 535 884 
3 948 873 881 
3 884 675 843 
3 725 845 742 
3 725 565 845 
3 533 846 551 
3 716 614 846 
3 883 889 577 
3 801 732 847 
3 562 848 570 
3 572 806 848 
3 715 849 769 
3 282 283 849 
3 918 850 869 
3 586 522 850 
3 921 851 686 
3 921 747 851 
3 887 852 810 
3 709 837 852 
3 777 853 573 
3 550 909 853 
3 600 854 914 
3 699 812 951 
3 538 855 516 
3 757 563 855 
3 819 856 606 
3 617 766 856 
3 965 857 670 
3 527 60 987 
3 646 858 831 
3 769 586 858 
3 596 859 579 
3 645 501 859 
3 601 860 781 
3 895 618 860 
3 920 861 590 
3 554 590 861 
3 627 862 701 
3 627 890 862 
3 733 863 609 
3 733 970 863 
3 560 864 884 
3 560 740 864 
3 870 865 763 
3 571 611 865 
3 722 866 690 
3 618 523 866 
3 593 867 814 
3 684 660 960 
3 931 936 635 
3 906 745 619 
3 751 902 918 
3 850 689 869 
3 864 870 763 
3 571 865 870 
3 650 871 908 
3 650 799 871 
3 970 872 820 
3 798 538 872 
3 881 873 844 
3 580 822 969 
3 695 874 773 
3 695 792 905 
3 816 875 793 
3 663 542 875 
3 727 876 797 
3 734 723 925 
3 773 877 818 
3 659 681 877 
3 935 878 599 
3 835 551 878 
3 542 879 829 
3 542 992 879 
3 576 880 704 
3 504 709 880 
3 815 881 844 
3 570 948 881 
3 878 935 835 
3 935 949 783 
3 515 883 577 
3 530 589 883 
3 560 884 844 
3 843 916 884 
3 903 885 980 
3 638 894 885 
3 777 886 840 
3 668 558 886 
3 832 887 782 
3 800 524 887 
3 664 888 746 
3 879 992 888 
3 615 889 883 
3 615 801 889 
3 755 890 627 
3 569 527 890 
3 605 891 671 
3 759 790 891 
3 564 892 707 
3 564 654 892 
3 673 893 697 
3 900 850 918 
3 885 894 807 
3 667 932 894 
3 601 895 860 
3 582 618 895 
3 515 896 530 
3 515 562 896 
3 640 897 739 
3 640 507 982 
3 727 898 584 
3 840 502 898 
3 923 899 755 
3 750 731 899 
3 694 900 735 
3 694 850 900 
3 983 901 931 
3 960 906 868 
3 594 902 751 
3 594 754 902 
3 952 903 652 
3 952 885 903 
3 651 940 612 
3 989 656 710 
3 929 905 792 
3 659 877 905 
3 936 960 868 
3 658 738 906 
3 630 907 937 
3 552 743 907 
3 650 908 813 
3 871 672 908 
3 616 909 550 
3 616 710 909 
3 972 910 774 
3 644 509 910 
3 555 911 963 
3 789 531 911 
3 802 912 511 
3 623 607 955 
3 568 944 729 
3 981 503 574 
3 229 914 228 
3 826 520 924 
3 919 915 667 
3 788 532 915 
3 730 916 843 
3 124 685 916 
3 983 931 917 
3 931 635 917 
3 751 918 707 
3 893 900 918 
3 518 919 758 
3 518 559 919 
3 554 920 720 
3 554 861 920 
3 319 320 975 
3 531 747 921 
3 612 922 651 
3 693 832 922 
3 752 923 755 
3 752 899 923 
3 831 924 520 
3 600 914 924 
3 642 925 723 
3 776 964 925 
3 822 926 557 
3 580 848 926 
3 959 927 595 
3 617 856 927 
3 631 928 891 
3 968 771 845 
3 678 929 792 
3 678 813 929 
3 84 930 83 
3 508 670 930 
3 662 973 983 
3 936 868 635 
3 894 932 706 
3 667 532 950 
3 820 933 680 
3 820 872 933 
3 858 934 828 
3 858 586 934 
3 838 949 599 
3 949 622 783 
3 901 936 931 
3 901 960 936 
3 578 937 849 
3 578 772 937 
3 778 938 701 
3 778 534 956 
3 600 939 699 
3 674 633 939 
3 612 940 904 
3 651 836 940 
3 836 941 622 
3 836 782 941 
3 643 942 533 
3 643 608 942 
3 869 943 564 
3 972 774 943 
3 592 944 537 
3 913 729 944 
3 537 945 592 
3 548 719 945 
3 501 946 510 
3 958 621 946 
3 842 947 603 
3 842 664 947 
3 848 948 570 
3 580 873 948 
3 599 949 935 
3 583 622 949 
3 667 950 932 
3 532 548 950 
3 908 951 813 
3 914 854 951 
3 541 952 652 
3 638 885 952 
3 589 953 535 
3 589 530 953 
3 671 954 655 
3 963 345 346 
3 909 955 679 
3 795 511 955 
3 728 956 534 
3 728 516 956 
3 592 957 913 
3 592 503 957 
3 653 958 946 
3 661 505 958 
3 927 959 617 
3 595 776 959 
3 867 960 901 
3 867 684 960 
3 977 961 730 
3 763 865 961 
3 852 962 810 
3 852 837 962 
3 555 963 954 
3 911 340 963 
3 612 964 693 
3 748 925 964 
3 611 965 670 
3 817 862 991 
3 793 966 999 
3 829 879 966 
3 761 967 734 
3 626 733 967 
3 631 968 928 
3 631 771 968 
3 598 969 639 
3 680 933 969 
3 863 970 820 
3 626 798 970 
3 512 971 899 
3 585 636 971 
3 689 972 943 
3 689 910 972 
3 845 973 662 
3 631 814 973 
3 721 974 794 
3 721 718 974 
3 314 975 313 
3 921 686 975 
3 628 976 513 
3 628 688 976 
3 961 977 763 
3 730 843 977 
3 815 978 705 
3 884 535 978 
3 601 979 765 
3 601 781 979 
3 903 980 553 
3 807 629 980 
3 503 981 957 
3 668 913 981 
3 996 982 747 
3 996 644 897 
3 662 983 917 
3 973 901 983 
3 624 985 752 
3 541 652 984 
3 994 985 541 
3 984 752 985 
3 784 986 688 
3 784 690 986 
3 67 987 66 
3 756 670 987 
3 777 988 886 
3 777 573 988 
3 940 989 904 
3 637 656 989 
3 747 990 565 
3 789 666 990 
3 965 991 857 
3 965 817 991 
3 888 992 738 
3 542 629 992 
3 212 993 211 
3 908 672 993 
3 984 994 541 
3 984 985 994 
3 657 995 504 
3 695 773 995 
3 509 996 747 
3 509 644 996 
3 521 997 691 
3 652 553 997 
3 904 998 834 
3 904 989 998 
3 793 999 842 
3 966 664 999 
