1000 2 0 0
0 5e+06 0
1 4.9996e+06 62830.2
2 4.99842e+06 125650
3 4.99645e+06 188451
4 4.99368e+06 251222
5 4.99013e+06 313953
6 4.98579e+06 376634
7 4.98067e+06 439256
8 4.97476e+06 501809
9 4.96806e+06 564282
10 4.96057e+06 626666
11 4.95231e+06 688951
12 4.94326e+06 751128
13 4.93343e+06 813186
14 4.92282e+06 875115
15 4.91144e+06 936907
16 4.89928e+06 998550
17 4.88634e+06 1.06004e+06
18 4.87263e+06 1.12135e+06
19 4.85816e+06 1.1825e+06
20 4.84292e+06 1.24345e+06
21 4.82691e+06 1.30421e+06
22 4.81014e+06 1.36476e+06
23 4.79261e+06 1.4251e+06
24 4.77432e+06 1.48521e+06
25 4.75528e+06 1.54508e+06
26 4.73549e+06 1.60472e+06
27 4.71495e+06 1.6641e+06
28 4.69367e+06 1.72321e+06
29 4.67164e+06 1.78206e+06
30 4.64888e+06 1.84062e+06
31 4.62539e+06 1.8989e+06
32 4.60116e+06 1.95687e+06
33 4.57621e+06 2.01453e+06
34 4.55053e+06 2.07188e+06
35 4.52414e+06 2.1289e+06
36 4.49703e+06 2.18558e+06
37 4.46921e+06 2.24192e+06
38 4.44068e+06 2.2979e+06
39 4.41146e+06 2.35352e+06
40 4.38153e+06 2.40877e+06
41 4.35092e+06 2.46364e+06
42 4.31962e+06 2.51812e+06
43 4.28763e+06 2.5722e+06
44 4.25497e+06 2.62587e+06
45 4.22164e+06 2.67913e+06
46 4.18764e+06 2.73197e+06
47 4.15298e+06 2.78438e+06
48 4.11766e+06 2.83634e+06
49 4.0817e+06 2.88786e+06
50 4.04508e+06 2.93893e+06
51 4.00783e+06 2.98953e+06
52 3.96995e+06 3.03965e+06
53 3.93144e+06 3.0893e+06
54 3.89231e+06 3.13846e+06
55 3.85257e+06 3.18712e+06
56 3.81221e+06 3.23528e+06
57 3.77126e+06 3.28293e+06
58 3.72971e+06 3.33006e+06
59 3.68757e+06 3.37666e+06
60 3.64484e+06 3.42274e+06
61 3.60154e+06 3.46827e+06
62 3.55768e+06 3.51325e+06
63 3.51325e+06 3.55768e+06
64 3.46827e+06 3.60154e+06
65 3.42274e+06 3.64484e+06
66 3.37666e+06 3.68757e+06
67 3.33006e+06 3.72971e+06
68 3.28293e+06 3.77126e+06
69 3.23528e+06 3.81221e+06
70 3.18712e+06 3.85257e+06
71 3.13846e+06 3.89231e+06
72 3.0893e+06 3.93144e+06
73 3.03965e+06 3.96995e+06
74 2.98952e+06 4.00784e+06
75 2.93893e+06 4.04508e+06
76 2.88786e+06 4.0817e+06
77 2.83634e+06 4.11766e+06
78 2.78438e+06 4.15298e+06
79 2.73197e+06 4.18764e+06
80 2.67913e+06 4.22164e+06
81 2.62587e+06 4.25497e+06
82 2.5722e+06 4.28763e+06
83 2.51812e+06 4.31962e+06
84 2.46364e+06 4.35092e+06
85 2.40877e+06 4.38153e+06
86 2.35352e+06 4.41146e+06
87 2.2979e+06 4.44068e+06
88 2.24192e+06 4.46921e+06
89 2.18558e+06 4.49703e+06
90 2.1289e+06 4.52414e+06
91 2.07188e+06 4.55053e+06
92 2.01453e+06 4.57621e+06
93 1.95687e+06 4.60116e+06
94 1.8989e+06 4.62539e+06
95 1.84062e+06 4.64888e+06
96 1.78206e+06 4.67164e+06
97 1.72321e+06 4.69367e+06
98 1.6641e+06 4.71495e+06
99 1.60472e+06 4.73549e+06
100 1.54508e+06 4.75528e+06
101 1.48521e+06 4.77432e+06
102 1.4251e+06 4.79261e+06
103 1.36476e+06 4.81014e+06
104 1.30421e+06 4.82691e+06
105 1.24345e+06 4.84292e+06
106 1.18249e+06 4.85816e+06
107 1.12135e+06 4.87263e+06
108 1.06004e+06 4.88634e+06
109 998550 4.89928e+06
110 936906 4.91144e+06
111 875115 4.92282e+06
112 813186 4.93343e+06
113 751128 4.94326e+06
114 688951 4.95231e+06
115 626666 4.96057e+06
116 564282 4.96806e+06
117 501808 4.97476e+06
118 439256 4.98067e+06
119 376634 4.98579e+06
120 313952 4.99013e+06
121 251222 4.99368e+06
122 188451 4.99645e+06
123 125650 4.99842e+06
124 62829.8 4.9996e+06
125 -0.218557 5e+06
126 -62830.2 4.9996e+06
127 -125651 4.99842e+06
128 -188451 4.99645e+06
129 -251222 4.99368e+06
130 -313953 4.99013e+06
131 -376634 4.98579e+06
132 -439256 4.98067e+06
133 -501809 4.97476e+06
134 -564282 4.96806e+06
135 -626667 4.96057e+06
136 -688952 4.95231e+06
137 -751128 4.94326e+06
138 -813186 4.93343e+06
139 -875116 4.92282e+06
140 -936907 4.91144e+06
141 -998550 4.89928e+06
142 -1.06004e+06 4.88634e+06
143 -1.12135e+06 4.87263e+06
144 -1.1825e+06 4.85816e+06
145 -1.24345e+06 4.84292e+06
146 -1.30421e+06 4.82691e+06
147 -1.36476e+06 4.81014e+06
148 -1.4251e+06 4.79261e+06
149 -1.48521e+06 4.77432e+06
150 -1.54509e+06 4.75528e+06
151 -1.60472e+06 4.73549e+06
152 -1.6641e+06 4.71495e+06
153 -1.72321e+06 4.69367e+06
154 -1.78206e+06 4.67164e+06
155 -1.84062e+06 4.64888e+06
156 -1.8989e+06 4.62539e+06
157 -1.95687e+06 4.60116e+06
158 -2.01453e+06 4.57621e+06
159 -2.07188e+06 4.55053e+06
160 -2.1289e+06 4.52414e+06
161 -2.18558e+06 4.49703e+06
162 -2.24192e+06 4.46921e+06
163 -2.2979e+06 4.44068e+06
164 -2.35352e+06 4.41146e+06
165 -2.40877e+06 4.38153e+06
166 -2.46364e+06 4.35092e+06
167 -2.51812e+06 4.31962e+06
168 -2.5722e+06 4.28763e+06
169 -2.62587e+06 4.25497e+06
170 -2.67913e+06 4.22164e+06
171 -2.73197e+06 4.18764e+06
172 -2.78438e+06 4.15298e+06
173 -2.83634e+06 4.11766e+06
174 -2.88786e+06 4.0817e+06
175 -2.93893e+06 4.04508e+06
176 -2.98953e+06 4.00783e+06
177 -3.03965e+06 3.96995e+06
178 -3.0893e+06 3.93144e+06
179 -3.13846e+06 3.89231e+06
180 -3.18712e+06 3.85257e+06
181 -3.23528e+06 3.81221e+06
182 -3.28293e+06 3.77126e+06
183 -3.33006e+06 3.72971e+06
184 -3.37666e+06 3.68757e+06
185 -3.42274e+06 3.64484e+06
186 -3.46827e+06 3.60155e+06
187 -3.51325e+06 3.55768e+06
188 -3.55768e+06 3.51325e+06
189 -3.60155e+06 3.46827e+06
190 -3.64484e+06 3.42274e+06
191 -3.68757e+06 3.37666e+06
192 -3.72971e+06 3.33006e+06
193 -3.77126e+06 3.28293e+06
194 -3.81221e+06 3.23528e+06
195 -3.85257e+06 3.18712e+06
196 -3.89231e+06 3.13846e+06
197 -3.93144e+06 3.0893e+06
198 -3.96995e+06 3.03965e+06
199 -4.00784e+06 2.98952e+06
200 -4.04509e+06 2.93893e+06
201 -4.0817e+06 2.88786e+06
202 -4.11766e+06 2.83634e+06
203 -4.15298e+06 2.78438e+06
204 -4.18764e+06 2.73197e+06
205 -4.22164e+06 2.67913e+06
206 -4.25497e+06 2.62587e+06
207 -4.28763e+06 2.5722e+06
208 -4.31962e+06 2.51812e+06
209 -4.35092e+06 2.46364e+06
210 -4.38153e+06 2.40877e+06
211 -4.41146e+06 2.35352e+06
212 -4.44068e+06 2.2979e+06
213 -4.46921e+06 2.24192e+06
214 -4.49703e+06 2.18558e+06
215 -4.52414e+06 2.1289e+06
216 -4.55053e+06 2.07188e+06
217 -4.57621e+06 2.01453e+06
218 -4.60116e+06 1.95687e+06
219 -4.62539e+06 1.8989e+06
220 -4.64888e+06 1.84062e+06
221 -4.67164e+06 1.78206e+06
222 -4.69367e+06 1.72321e+06
223 -4.71495e+06 1.6641e+06
224 -4.73549e+06 1.60472e+06
225 -4.75528e+06 1.54509e+06
226 -4.77432e+06 1.48521e+06
227 -4.79261e+06 1.4251e+06
228 -4.81014e+06 1.36476e+06
229 -4.82691e+06 1.30421e+06
230 -4.84292e+06 1.24345e+06
231 -4.85816e+06 1.18249e+06
232 -4.87263e+06 1.12135e+06
233 -4.88634e+06 1.06004e+06
234 -4.89928e+06 998550
235 -4.91144e+06 936906
236 -4.92282e+06 875116
237 -4.93343e+06 813185
238 -4.94326e+06 751127
239 -4.95231e+06 688951
240 -4.96057e+06 626666
241 -4.96806e+06 564282
242 -4.97476e+06 501809
243 -4.98067e+06 439255
244 -4.98579e+06 376634
245 -4.99013e+06 313952
246 -4.99368e+06 251221
247 -4.99645e+06 188451
248 -4.99842e+06 125650
249 -4.9996e+06 62829.6
250 -5e+06 -0.437114
251 -4.9996e+06 -62830.4
252 -4.99842e+06 -125650
253 -4.99645e+06 -188451
254 -4.99368e+06 -251222
255 -4.99013e+06 -313953
256 -4.98579e+06 -376634
257 -4.98067e+06 -439256
258 -4.97476e+06 -501808
259 -4.96806e+06 -564283
260 -4.96057e+06 -626667
261 -4.95231e+06 -688952
262 -4.94326e+06 -751128
263 -4.93343e+06 -813186
264 -4.92282e+06 -875115
265 -4.91144e+06 -936907
266 -4.89928e+06 -998550
267 -4.88634e+06 -1.06004e+06
268 -4.87263e+06 -1.12135e+06
269 -4.85816e+06 -1.1825e+06
270 -4.84292e+06 -1.24345e+06
271 -4.82691e+06 -1.30421e+06
272 -4.81014e+06 -1.36476e+06
273 -4.79261e+06 -1.4251e+06
274 -4.77432e+06 -1.48521e+06
275 -4.75528e+06 -1.54508e+06
276 -4.73549e+06 -1.60472e+06
277 -4.71495e+06 -1.6641e+06
278 -4.69367e+06 -1.72322e+06
279 -4.67164e+06 -1.78206e+06
280 -4.64888e+06 -1.84062e+06
281 -4.62539e+06 -1.8989e+06
282 -4.60116e+06 -1.95687e+06
283 -4.57621e+06 -2.01453e+06
284 -4.55053e+06 -2.07188e+06
285 -4.52414e+06 -2.1289e+06
286 -4.49703e+06 -2.18558e+06
287 -4.46921e+06 -2.24192e+06
288 -4.44068e+06 -2.2979e+06
289 -4.41146e+06 -2.35352e+06
290 -4.38153e+06 -2.40877e+06
291 -4.35092e+06 -2.46364e+06
292 -4.31962e+06 -2.51812e+06
293 -4.28763e+06 -2.5722e+06
294 -4.25497e+06 -2.62587e+06
295 -4.22164e+06 -2.67913e+06
296 -4.18764e+06 -2.73197e+06
297 -4.15298e+06 -2.78438e+06
298 -4.11766e+06 -2.83635e+06
299 -4.0817e+06 -2.88786e+06
300 -4.04508e+06 -2.93893e+06
301 -4.00783e+06 -2.98953e+06
302 -3.96995e+06 -3.03965e+06
303 -3.93144e+06 -3.0893e+06
304 -3.89231e+06 -3.13846e+06
305 -3.85257e+06 -3.18712e+06
306 -3.81221e+06 -3.23528e+06
307 -3.77126e+06 -3.28293e+06
308 -3.72971e+06 -3.33006e+06
309 -3.68756e+06 -3.37666e+06
310 -3.64484e+06 -3.42274e+06
311 -3.60154e+06 -3.46827e+06
312 -3.55768e+06 -3.51325e+06
313 -3.51325e+06 -3.55768e+06
314 -3.46827e+06 -3.60154e+06
315 -3.42273e+06 -3.64484e+06
316 -3.37666e+06 -3.68757e+06
317 -3.33006e+06 -3.72971e+06
318 -3.28293e+06 -3.77126e+06
319 -3.23528e+06 -3.81221e+06
320 -3.18712e+06 -3.85257e+06
321 -3.13846e+06 -3.89231e+06
322 -3.0893e+06 -3.93144e+06
323 -3.03965e+06 -3.96995e+06
324 -2.98952e+06 -4.00784e+06
325 -2.93893e+06 -4.04509e+06
326 -2.88786e+06 -4.0817e+06
327 -2.83634e+06 -4.11766e+06
328 -2.78438e+06 -4.15298e+06
329 -2.73197e+06 -4.18764e+06
330 -2.67913e+06 -4.22164e+06
331 -2.62587e+06 -4.25497e+06
332 -2.5722e+06 -4.28763e+06
333 -2.51812e+06 -4.31962e+06
334 -2.46364e+06 -4.35092e+06
335 -2.40877e+06 -4.38153e+06
336 -2.35352e+06 -4.41146e+06
337 -2.2979e+06 -4.44068e+06
338 -2.24192e+06 -4.46921e+06
339 -2.18558e+06 -4.49703e+06
340 -2.1289e+06 -4.52414e+06
341 -2.07188e+06 -4.55053e+06
342 -2.01453e+06 -4.57621e+06
343 -1.95687e+06 -4.60116e+06
344 -1.89889e+06 -4.62539e+06
345 -1.84062e+06 -4.64888e+06
346 -1.78206e+06 -4.67164e+06
347 -1.72321e+06 -4.69367e+06
348 -1.6641e+06 -4.71495e+06
349 -1.60472e+06 -4.73549e+06
350 -1.54509e+06 -4.75528e+06
351 -1.48521e+06 -4.77432e+06
352 -1.4251e+06 -4.79261e+06
353 -1.36476e+06 -4.81014e+06
354 -1.30421e+06 -4.82691e+06
355 -1.24345e+06 -4.84292e+06
356 -1.18249e+06 -4.85816e+06
357 -1.12135e+06 -4.87263e+06
358 -1.06004e+06 -4.88634e+06
359 -998549 -4.89928e+06
360 -936907 -4.91144e+06
361 -875115 -4.92282e+06
362 -813184 -4.93343e+06
363 -751128 -4.94326e+06
364 -688950 -4.95231e+06
365 -626666 -4.96057e+06
366 -564281 -4.96806e+06
367 -501809 -4.97476e+06
368 -439256 -4.98067e+06
369 -376633 -4.98579e+06
370 -313953 -4.99013e+06
371 -251221 -4.99368e+06
372 -188451 -4.99645e+06
373 -125650 -4.99842e+06
374 -62828.7 -4.9996e+06
375 0.0596244 -5e+06
376 62831.2 -4.9996e+06
377 125650 -4.99842e+06
378 188452 -4.99645e+06
379 251223 -4.99368e+06
380 313953 -4.99013e+06
381 376635 -4.98579e+06
382 439256 -4.98067e+06
383 501809 -4.97476e+06
384 564281 -4.96806e+06
385 626666 -4.96057e+06
386 688953 -4.95231e+06
387 751128 -4.94326e+06
388 813187 -4.93343e+06
389 875115 -4.92282e+06
390 936907 -4.91144e+06
391 998551 -4.89928e+06
392 1.06004e+06 -4.88634e+06
393 1.12135e+06 -4.87263e+06
394 1.18249e+06 -4.85816e+06
395 1.24345e+06 -4.84292e+06
396 1.30421e+06 -4.82691e+06
397 1.36476e+06 -4.81014e+06
398 1.4251e+06 -4.79261e+06
399 1.48521e+06 -4.77432e+06
400 1.54509e+06 -4.75528e+06
401 1.60472e+06 -4.73549e+06
402 1.6641e+06 -4.71495e+06
403 1.72322e+06 -4.69367e+06
404 1.78206e+06 -4.67164e+06
405 1.84062e+06 -4.64888e+06
406 1.89889e+06 -4.62539e+06
407 1.95687e+06 -4.60116e+06
408 2.01453e+06 -4.57621e+06
409 2.07188e+06 -4.55053e+06
410 2.1289e+06 -4.52414e+06
411 2.18558e+06 -4.49703e+06
412 2.24192e+06 -4.46921e+06
413 2.2979e+06 -4.44068e+06
414 2.35352e+06 -4.41146e+06
415 2.40877e+06 -4.38153e+06
416 2.46364e+06 -4.35092e+06
417 2.51812e+06 -4.31962e+06
418 2.5722e+06 -4.28763e+06
419 2.62587e+06 -4.25497e+06
420 2.67914e+06 -4.22164e+06
421 2.73197e+06 -4.18764e+06
422 2.78438e+06 -4.15298e+06
423 2.83635e+06 -4.11766e+06
424 2.88786e+06 -4.0817e+06
425 2.93893e+06 -4.04508e+06
426 2.98952e+06 -4.00784e+06
427 3.03965e+06 -3.96995e+06
428 3.0893e+06 -3.93144e+06
429 3.13846e+06 -3.89231e+06
430 3.18712e+06 -3.85257e+06
431 3.23528e+06 -3.81221e+06
432 3.28293e+06 -3.77126e+06
433 3.33006e+06 -3.72971e+06
434 3.37666e+06 -3.68756e+06
435 3.42274e+06 -3.64484e+06
436 3.46827e+06 -3.60154e+06
437 3.51325e+06 -3.55768e+06
438 3.55768e+06 -3.51325e+06
439 3.60155e+06 -3.46827e+06
440 3.64484e+06 -3.42273e+06
441 3.68757e+06 -3.37666e+06
442 3.72971e+06 -3.33006e+06
443 3.77126e+06 -3.28293e+06
444 3.81221e+06 -3.23528e+06
445 3.85257e+06 -3.18712e+06
446 3.89231e+06 -3.13846e+06
447 3.93144e+06 -3.0893e+06
448 3.96995e+06 -3.03965e+06
449 4.00784e+06 -2.98952e+06
450 4.04508e+06 -2.93893e+06
451 4.0817e+06 -2.88786e+06
452 4.11766e+06 -2.83634e+06
453 4.15298e+06 -2.78438e+06
454 4.18764e+06 -2.73197e+06
455 4.22164e+06 -2.67913e+06
456 4.25497e+06 -2.62587e+06
457 4.28763e+06 -2.5722e+06
458 4.31962e+06 -2.51812e+06
459 4.35092e+06 -2.46364e+06
460 4.38153e+06 -2.40877e+06
461 4.41146e+06 -2.35352e+06
462 4.44068e+06 -2.2979e+06
463 4.46921e+06 -2.24192e+06
464 4.49703e+06 -2.18558e+06
465 4.52414e+06 -2.1289e+06
466 4.55053e+06 -2.07188e+06
467 4.57621e+06 -2.01453e+06
468 4.60116e+06 -1.95687e+06
469 4.62539e+06 -1.89889e+06
470 4.64888e+06 -1.84062e+06
471 4.67164e+06 -1.78206e+06
472 4.69367e+06 -1.72322e+06
473 4.71495e+06 -1.6641e+06
474 4.73549e+06 -1.60472e+06
475 4.75528e+06 -1.54508e+06
476 4.77432e+06 -1.48521e+06
477 4.79261e+06 -1.4251e+06
478 4.81014e+06 -1.36476e+06
479 4.82691e+06 -1.30421e+06
480 4.84292e+06 -1.24345e+06
481 4.85816e+06 -1.18249e+06
482 4.87263e+06 -1.12135e+06
483 4.88634e+06 -1.06003e+06
484 4.89928e+06 -998550
485 4.91144e+06 -936906
486 4.92282e+06 -875114
487 4.93343e+06 -813186
488 4.94326e+06 -751127
489 4.95231e+06 -688952
490 4.96057e+06 -626666
491 4.96806e+06 -564280
492 4.97476e+06 -501808
493 4.98067e+06 -439255
494 4.98579e+06 -376634
495 4.99013e+06 -313952
496 4.99368e+06 -251220
497 4.99645e+06 -188451
498 4.99842e+06 -125649
499 4.9996e+06 -62830.3
500 778932 196075
501 957668 2.68444e+06
502 487651 290522
503 968846 -146925
504 -1.40358e+06 1.24779e+06
505 1.54576e+06 2.31513e+06
506 -10241.4 100758
507 -1.94735e+06 -2.52094e+06
508 1.89724e+06 3.49535e+06
509 -1.18128e+06 -2.13357e+06
510 1.24478e+06 2.79221e+06
511 -6559.12 -135.284
512 2.97544e+06 -182353
513 -385667 -1.14898e+06
514 1.35256e+06 4.27307e+06
515 -1.11147e+06 3.1637e+06
516 1.84306e+06 1.03344e+06
517 2.01646e+06 -3.9294e+06
518 2.28183e+06 23209.4
519 742318 560497
520 -4.3073e+06 239657
521 3.64321e+06 -624927
522 -2.23309e+06 -1.41732e+06
523 98335.4 -1.18732e+06
524 -949601 871659
525 -119510 -64134.7
526 3.5259e+06 -2.70006e+06
527 3.13046e+06 2.41721e+06
528 1.20152e+06 -3.59487e+06
529 280001 94753.7
530 -969680 3.68539e+06
531 -2.33051e+06 -3.64433e+06
532 1.58909e+06 -123125
533 -8877.86 -702962
534 1.37743e+06 1.59815e+06
535 -575675 4.14507e+06
536 -2.78903e+06 2.85102e+06
537 956684 -385912
538 1.53901e+06 743679
539 68606.9 -291307
540 3.55232e+06 2.43145e+06
541 2.47756e+06 -156219
542 1.9379e+06 -1.60576e+06
543 -144300 483984
544 -604816 -3.69429e+06
545 692203 353560
546 322088 -729034
547 175997 -166497
548 1.36168e+06 -132883
549 -2.57611e+06 2.41301e+06
550 170600 75016.6
551 -90277.5 -658297
552 -2.69501e+06 -1.54719e+06
553 2.32279e+06 -731828
554 -1.56074e+06 2.00377e+06
555 -1.33564e+06 -3.63346e+06
556 4.37716e+06 -455926
557 -544679 1.62447e+06
558 552366 191925
559 2.30677e+06 371998
560 697207 2.99635e+06
561 -791264 -571508
562 -981729 3.03174e+06
563 1.89651e+06 422491
564 -1.18483e+06 -852431
565 -1.06296e+06 -3.17253e+06
566 -647429 -1.97779e+06
567 -115230 2687.14
568 486279 -344074
569 3.40664e+06 1.47899e+06
570 -514909 2.80273e+06
571 1.30727e+06 3.15032e+06
572 -1.39256e+06 2.30002e+06
573 151605 -41383.9
574 852126 78145.2
575 1.95586e+06 2.00261e+06
576 -1.328e+06 1.63712e+06
577 -1.56138e+06 3.05113e+06
578 -3.60982e+06 -2.45e+06
579 609074 2.27997e+06
580 -470316 2.07957e+06
581 -2.2559e+06 -2.20061e+06
582 322391 -787962
583 -399489 -166555
584 325159 360822
585 3.64409e+06 -335199
586 -2.73988e+06 -871487
587 1.06127e+06 431612
588 -473094 -893667
589 -825909 3.91721e+06
590 -1.55891e+06 2.15874e+06
591 -1.80371e+06 2.72402e+06
592 953195 -377327
593 572131 -3.32324e+06
594 -1.27527e+06 -358348
595 -698507 897038
596 839216 2.04444e+06
597 3.22179e+06 -1.8942e+06
598 272816 1.24359e+06
599 -150773 -338985
600 -3.54081e+06 83708
601 802764 -936809
602 1.25074e+06 -1.37155e+06
603 3.03592e+06 -3.17559e+06
604 3.87842e+06 -2.15954e+06
605 -897734 -4.37057e+06
606 -634520 1.42975e+06
607 97222.8 -38048.2
608 214572 -778972
609 344282 1.02576e+06
610 -1.95149e+06 -1.53425e+06
611 1.71902e+06 2.69312e+06
612 -254746 438572
613 979548 -1.23958e+06
614 234092 -417222
615 -2.60951e+06 3.3731e+06
616 47227.5 196333
617 -552363 1.23186e+06
618 428869 -1.19437e+06
619 984300 -1.46106e+06
620 224602 207908
621 1.71168e+06 2.54525e+06
622 -512707 -139483
623 43781 -75457.5
624 2.5008e+06 212425
625 -2.12833e+06 2.14173e+06
626 638645 823112
627 2.57664e+06 1.50663e+06
628 -678058 -1.33536e+06
629 1.5967e+06 -1.27768e+06
630 -2.72317e+06 -2.33896e+06
631 -30069.7 -3.32433e+06
632 -244970 18251.4
633 -2.57714e+06 82724.9
634 -1.99168e+06 2.239e+06
635 185313 -1.91766e+06
636 4.2214e+06 -108872
637 -115092 45647.7
638 2.15313e+06 -245507
639 -61751.1 1.38827e+06
640 -2.13629e+06 -2.02252e+06
641 -786606 -585109
642 -36676 1.06102e+06
643 66890.3 -788814
644 -1.34841e+06 -2.01309e+06
645 1.20696e+06 2.21248e+06
646 -4.0076e+06 -593573
647 628728 -3.66912e+06
648 -870773 -312622
649 -962220 -2.05282e+06
650 -2.68638e+06 2.23014e+06
651 -485264 401502
652 2.38532e+06 -559608
653 1.33328e+06 2.32959e+06
654 -1.09073e+06 -601700
655 -1.12085e+06 -4.13398e+06
656 -38340.4 103519
657 -2.14406e+06 1.29556e+06
658 1.33458e+06 -2.20226e+06
659 -2.59714e+06 805851
660 1.40041e+06 -2.88353e+06
661 1.42064e+06 2.32488e+06
662 -205171 -2.36349e+06
663 2.50994e+06 -1.26207e+06
664 1.93366e+06 -2.68122e+06
665 2.33566e+06 844296
666 -1.26468e+06 -3.55237e+06
667 1.67579e+06 -169635
668 640150 -130308
669 3.69248e+06 -719962
670 2.39483e+06 3.28815e+06
671 -891954 -4.14278e+06
672 -3.63033e+06 2.59518e+06
673 -1.64776e+06 89910.3
674 -3.08914e+06 -139035
675 783059 3.56244e+06
676 4.22498e+06 -1.26749e+06
677 1.24736e+06 -1.15874e+06
678 -2.20502e+06 1.547e+06
679 112837 -5771.26
680 411636 1.30875e+06
681 -2.75727e+06 478913
682 1.35857e+06 -1.67868e+06
683 -944689 -510485
684 791623 -3.10991e+06
685 -467363 4.41507e+06
686 -2.7426e+06 -2.70274e+06
687 -2.50146e+06 2.54541e+06
688 -226319 -1.48805e+06
689 -1.69879e+06 -1.56447e+06
690 302096 -1.45241e+06
691 3.48316e+06 -963438
692 373522 -655802
693 -348399 634727
694 -2.44177e+06 -239014
695 -2.05097e+06 977878
696 -813405 1.66178e+06
697 -1.60988e+06 -100347
698 -43751 -66611.8
699 -3.25141e+06 663888
700 2.05054e+06 2.56257e+06
701 2.11638e+06 1.41042e+06
702 -650272 -1.78391e+06
703 -811443 -612686
704 -1.22405e+06 1.59737e+06
705 -618634 3.26027e+06
706 1.40065e+06 -721669
707 -1.51621e+06 -664892
708 4.25669e+06 648471
709 -1.37859e+06 1.09578e+06
710 -16300.2 170917
711 239610 -294443
712 1.96874e+06 341598
713 1.31494e+06 2.11514e+06
714 4.21124e+06 326391
715 -3.97326e+06 -893430
716 200463 -610451
717 3.7897e+06 2.19868e+06
718 -45985.1 -1.0691e+06
719 1.16761e+06 245123
720 -1.51948e+06 1.80256e+06
721 -67375.1 -1.06582e+06
722 615381 -1.5986e+06
723 9082.13 865088
724 1.75762e+06 2.43955e+06
725 -988078 -3.06441e+06
726 3.82185e+06 -1.47447e+06
727 234004 292185
728 1.63396e+06 1.18196e+06
729 585937 -244914
730 935107 4.20117e+06
731 4.02544e+06 757900
732 -2.41049e+06 2.66972e+06
733 453343 1.02533e+06
734 283093 744291
735 -2.42031e+06 -69467
736 -645827 -938702
737 1.09943e+06 543739
738 1.48834e+06 -2.05398e+06
739 -1.91004e+06 -1.74371e+06
740 1.00195e+06 2.94686e+06
741 214759 203146
742 -705568 -2.44168e+06
743 -3.26292e+06 -1.31299e+06
744 -2.83678e+06 -2.53351e+06
745 1.33896e+06 -1.68719e+06
746 1.48832e+06 -2.57141e+06
747 -1.60249e+06 -2.87262e+06
748 -116950 519339
749 -871720 -554936
750 4.04428e+06 262445
751 -1.4343e+06 -529594
752 2.87504e+06 174776
753 -348422 -1.81254e+06
754 -1.12781e+06 -98970.3
755 2.82e+06 473485
756 2.61827e+06 3.51829e+06
757 1.76078e+06 576582
758 2.19363e+06 -132194
759 64572 -4.48251e+06
760 -2.45853e+06 2.50764e+06
761 416612 640940
762 -4.41858e+06 -566913
763 1.20719e+06 3.54248e+06
764 -572530 -799122
765 1.06891e+06 -878172
766 -286581 1.45186e+06
767 46644.2 199773
768 687001 477150
769 -3.52062e+06 -1.03377e+06
770 -432071 -2.08524e+06
771 -252854 -3.27052e+06
772 -2.95432e+06 -2.45742e+06
773 -1.89102e+06 783024
774 -970109 -1.39544e+06
775 796114 -794892
776 -252487 757794
777 243052 -26035.4
778 1.88414e+06 1.64101e+06
779 1.49862e+06 -2.66755e+06
780 1.16878e+06 1.4795e+06
781 770265 -1.05002e+06
782 -919509 270121
783 -778096 -447002
784 108176 -1.44866e+06
785 822622 2.68268e+06
786 -2.58359e+06 2.86333e+06
787 1.22807e+06 -1.12992e+06
788 1.75584e+06 173768
789 -1.53138e+06 -3.58307e+06
790 645613 -3.81264e+06
791 3.48616e+06 -2.47892e+06
792 -2.31445e+06 1.17727e+06
793 2.97109e+06 -2.1318e+06
794 -182580 -759278
795 8272.65 47266.6
796 -997051 -748532
797 24054.4 395589
798 1.07191e+06 801103
799 -2.60825e+06 2.37584e+06
800 -947411 747964
801 -2.47435e+06 3.01733e+06
802 -10667.5 -16587.4
803 1.97341e+06 1.006e+06
804 20016.2 248794
805 -27304.6 16113.1
806 -1.03207e+06 1.65612e+06
807 1.94103e+06 -711163
808 1.27221e+06 2.27247e+06
809 1.58325e+06 2.01498e+06
810 -1.19896e+06 568785
811 -2.78187e+06 -458750
812 -2.92407e+06 869082
813 -2.91199e+06 1.331e+06
814 375704 -3.15088e+06
815 -438295 3.13129e+06
816 3.05208e+06 -1.41501e+06
817 2.26945e+06 2.54043e+06
818 -1.80751e+06 520622
819 -768669 1.3383e+06
820 900764 1.15855e+06
821 4.44128e+06 519270
822 -288256 1.47964e+06
823 1.82981e+06 449026
824 1.94315e+06 2.42734e+06
825 -6441.82 78790.9
826 -4.31192e+06 380655
827 1.59859e+06 -4.05964e+06
828 -3.09028e+06 -213127
829 2.30141e+06 -2.0751e+06
830 796900 -1.23316e+06
831 -3.97884e+06 -518600
832 -601142 625555
833 -75053.6 -1.78847e+06
834 5349.25 277393
835 -308439 -715963
836 -689120 198470
837 -1.65916e+06 806617
838 -169411 -228911
839 -62078.8 -11083.2
840 365044 97313.8
841 3.69869e+06 -1.35315e+06
842 2.5564e+06 -2.85878e+06
843 390747 4.0848e+06
844 12049.6 2.91145e+06
845 -688036 -2.9791e+06
846 -8209.71 -493845
847 -1.97741e+06 2.93286e+06
848 -892708 2.33401e+06
849 -3.89609e+06 -1.48321e+06
850 -2.0403e+06 -992697
851 -2.2699e+06 -2.60768e+06
852 -1.27348e+06 655445
853 147467 27134.8
854 -3.33753e+06 667577
855 1.802e+06 689348
856 -579766 1.38832e+06
857 2.59909e+06 3.1871e+06
858 -3.47852e+06 -456473
859 616742 2.28401e+06
860 693348 -1.03626e+06
861 -1.57706e+06 2.09043e+06
862 2.10005e+06 1.75924e+06
863 431911 1.11821e+06
864 752300 3.41568e+06
865 1.65296e+06 3.506e+06
866 392525 -1.22509e+06
867 528301 -2.92969e+06
868 833359 -1.9914e+06
869 -1.67311e+06 -792500
870 1.32187e+06 3.25836e+06
871 -2.99462e+06 2.32907e+06
872 1.07695e+06 885352
873 10839 2.36713e+06
874 -2.06468e+06 914071
875 2.44515e+06 -1.54952e+06
876 23659.6 463991
877 -2.05028e+06 512637
878 -135859 -524796
879 2.04221e+06 -2.06632e+06
880 -1.253e+06 1.45592e+06
881 -142376 2.81015e+06
882 -466255 -540344
883 -1.63813e+06 3.71818e+06
884 57536.5 3.64115e+06
885 2.07989e+06 -661680
886 471648 18924.4
887 -1.03273e+06 646364
888 1.63373e+06 -2.18633e+06
889 -1.85435e+06 3.29272e+06
890 2.75466e+06 1.57584e+06
891 -333921 -4.26698e+06
892 -1.41773e+06 -635329
893 -1.95303e+06 -168299
894 1.84608e+06 -690769
895 499472 -954563
896 -995110 3.23667e+06
897 -1.97532e+06 -1.93111e+06
898 332866 344474
899 3.17422e+06 473984
900 -2.23061e+06 -183917
901 343061 -2.46374e+06
902 -1.49911e+06 -207552
903 2.17925e+06 -619564
904 -128648 260555
905 -2.32266e+06 902143
906 1.04893e+06 -2.04731e+06
907 -2.92456e+06 -1.76933e+06
908 -3.29069e+06 2.14021e+06
909 43712.9 108873
910 -1.06744e+06 -1.7961e+06
911 -1.54995e+06 -3.69181e+06
912 11003.4 -10527.9
913 806291 -272619
914 -3.75578e+06 698851
915 1.78355e+06 72661.3
916 371007 4.10224e+06
917 86049.6 -2.18756e+06
918 -1.8154e+06 -456501
919 2.12714e+06 -15442.6
920 -1.71505e+06 1.97136e+06
921 -2.56943e+06 -3.34764e+06
922 -481630 591979
923 2.90454e+06 419726
924 -3.98456e+06 180837
925 -40988.2 825566
926 -547148 1.93382e+06
927 -662639 1.18789e+06
928 -492007 -3.74287e+06
929 -2.55772e+06 1.23999e+06
930 2.42486e+06 3.75668e+06
931 278014 -2.2978e+06
932 1.41742e+06 -373749
933 969140 1.33984e+06
934 -3.0995e+06 -291280
935 -434533 -476147
936 346690 -2.32716e+06
937 -3.18555e+06 -2.02062e+06
938 1.8497e+06 1.52891e+06
939 -2.93913e+06 337063
940 -293817 129617
941 -669419 -87497.2
942 97248.5 -702213
943 -1.10854e+06 -1.14806e+06
944 804261 -525328
945 1.20199e+06 -142812
946 1.29377e+06 2.71686e+06
947 2.39517e+06 -3.5086e+06
948 -469971 2.19835e+06
949 -422472 -356487
950 1.45809e+06 -170428
951 -3.25394e+06 987283
952 2.25388e+06 -506341
953 -762042 3.90749e+06
954 -1.16615e+06 -4.1e+06
955 34261.6 -749.175
956 1.80189e+06 1.4821e+06
957 949369 -166495
958 1.41701e+06 2.35588e+06
959 -610908 1.04074e+06
960 499431 -2.63144e+06
961 1.25648e+06 4.15539e+06
962 -1.26358e+06 565468
963 -1.40051e+06 -3.97037e+06
964 -253015 616307
965 2.28836e+06 2.64466e+06
966 2.36209e+06 -2.38861e+06
967 366626 783294
968 -275135 -3.40224e+06
969 364942 1.76816e+06
970 872488 1.04101e+06
971 3.80682e+06 -86275.9
972 -1.11468e+06 -1.33321e+06
973 -93417.5 -2.4469e+06
974 -82469.8 -792713
975 -2.7108e+06 -3.37792e+06
976 -399743 -1.23962e+06
977 860838 3.60531e+06
978 -259975 3.58641e+06
979 1.01715e+06 -975155
980 2.09109e+06 -810245
981 808376 -160195
982 -1.85406e+06 -2.50621e+06
983 104921 -2.27384e+06
984 2.64783e+06 -138145
985 2.54955e+06 -58841
986 90199.9 -1.24354e+06
987 2.67475e+06 3.25319e+06
988 279071 -126193
989 -74394.4 137324
990 -1.18418e+06 -3.39621e+06
991 2.68757e+06 2.57284e+06
992 1.73297e+06 -1.73572e+06
993 -3.87021e+06 2.2739e+06
994 2.53257e+06 -116125
995 -1.71904e+06 928604
996 -1.70967e+06 -2.47192e+06
997 2.91098e+06 -956194
998 -40735.9 213631
999 2.35717e+06 -2.4917e+06
