531 3 1
0 108 2 107
1 270 269 275
2 108 0 1
3 1 2 108
4 256 311 230
5 310 200 10
6 107 2 3
7 220 249 228
8 198 4 5
9 71 185 69
10 198 3 4
11 196 248 309
12 203 198 5
13 125 212 126
14 6 7 203
15 170 191 100
16 221 105 106
17 255 229 262
18 15 176 13
19 132 35 237
20 45 238 199
21 15 13 14
22 17 176 15
23 17 15 16
24 23 24 179
25 197 260 166
26 37 211 36
27 229 198 203
28 10 200 9
29 220 25 249
30 17 179 176
31 24 246 176
32 204 178 188
33 179 17 19
34 248 195 313
35 251 11 12
36 261 333 245
37 18 19 17
38 252 105 221
39 177 228 249
40 203 5 6
41 110 109 321
42 249 26 177
43 9 171 8
44 196 152 222
45 177 154 153
46 153 217 177
47 192 221 106
48 103 324 329
49 241 44 211
50 195 117 128
51 180 189 210
52 196 118 117
53 152 196 309
54 324 328 329
55 24 25 246
56 252 198 229
57 196 222 118
58 172 178 27
59 26 27 177
60 28 173 160
61 230 203 7
62 188 175 160
63 160 175 28
64 160 161 188
65 160 173 161
66 153 222 152
67 46 238 45
68 244 215 134
69 204 119 247
70 233 209 55
71 132 199 244
72 214 127 243
73 161 162 204
74 243 197 214
75 178 153 154
76 154 177 27
77 232 309 227
78 101 174 100
79 171 9 200
80 240 45 237
81 173 28 29
82 247 119 118
83 21 19 20
84 50 213 49
85 166 183 197
86 188 161 204
87 3 198 221
88 21 22 23
89 311 229 203
90 194 184 69
91 166 181 165
92 30 31 163
93 163 29 30
94 31 164 163
95 195 196 117
96 29 163 162
97 100 191 186
98 19 21 179
99 183 165 182
100 39 242 38
101 260 243 127
102 39 285 242
103 210 189 41
104 204 162 234
105 134 133 244
106 241 330 43
107 199 239 244
108 32 193 164
109 164 31 32
110 193 129 164
111 268 113 312
112 265 43 330
113 211 259 241
114 27 178 154
115 36 240 35
116 13 176 12
117 192 3 221
118 174 102 202
119 279 277 110
120 164 129 163
121 260 127 126
122 130 129 193
123 129 135 234
124 47 308 46
125 293 171 200
126 57 225 56
127 226 307 60
128 234 135 121
129 33 131 193
130 225 53 233
131 44 240 211
132 51 231 50
133 307 59 60
134 121 135 286
135 122 286 123
136 215 206 286
137 286 122 121
138 124 123 319
139 204 234 120
140 162 173 29
141 281 280 207
142 132 131 34
143 248 196 195
144 237 35 240
145 132 34 35
146 44 45 240
147 162 161 173
148 273 195 214
149 34 131 33
150 215 286 134
151 287 289 256
152 137 207 138
153 230 287 256
154 132 244 133
155 199 237 45
156 170 202 187
157 237 199 132
158 238 239 199
159 149 150 148
160 151 148 150
161 33 193 32
162 124 319 125
163 162 163 234
164 120 234 121
165 232 293 200
166 289 287 291
167 220 251 246
168 94 170 93
169 94 191 170
170 218 187 202
171 102 174 101
172 174 202 170
173 109 116 90
174 156 270 155
175 321 279 110
176 55 209 54
177 232 217 152
178 90 116 89
179 306 303 305
180 218 91 187
181 92 187 91
182 116 235 88
183 95 99 186
184 37 259 211
185 280 47 48
186 111 269 112
187 287 230 201
188 167 260 212
189 166 165 183
190 167 181 166
191 156 183 182
192 214 197 155
193 167 212 168
194 55 56 233
195 171 224 8
196 240 36 211
197 157 190 182
198 157 181 158
199 165 157 182
200 157 268 190
201 157 165 181
202 158 267 268
203 112 269 190
204 349 350 348
205 167 168 181
206 96 99 95
207 191 95 186
208 300 326 328
209 96 97 98
210 62 284 49
211 89 116 88
212 320 109 90
213 115 257 235
214 250 220 228
215 96 98 99
216 316 86 87
217 265 242 42
218 317 336 318
219 257 316 87
220 266 333 332
221 163 129 234
222 25 220 246
223 57 58 258
224 178 204 247
225 235 87 88
226 159 184 267
227 316 257 114
228 79 77 78
229 251 12 246
230 285 39 180
231 77 185 75
232 23 179 21
233 80 267 194
234 315 318 85
235 334 266 216
236 59 236 58
237 69 185 194
238 267 158 159
239 76 77 75
240 222 178 247
241 75 73 74
242 217 200 228
243 156 197 183
244 219 82 83
245 194 79 80
246 219 216 266
247 317 318 114
248 118 222 247
249 185 73 75
250 142 212 143
251 212 142 168
252 201 230 7
253 143 212 125
254 169 142 141
255 283 281 206
256 142 169 168
257 125 136 143
258 159 169 68
259 159 68 184
260 141 140 66
261 66 169 141
262 67 169 66
263 139 65 140
264 169 67 68
265 159 168 169
266 168 159 158
267 50 231 226
268 120 119 204
269 49 213 62
270 48 207 280
271 239 238 308
272 214 128 127
273 3 192 107
274 145 146 147
275 137 136 282
276 223 254 255
277 128 214 195
278 274 111 277
279 252 229 255
280 48 284 207
281 284 48 49
282 24 176 179
283 138 284 208
284 139 208 64
285 145 147 144
286 222 153 178
287 260 167 166
288 65 66 140
289 319 136 125
290 270 272 155
291 187 92 93
292 63 64 208
293 100 174 170
294 310 250 228
295 139 64 65
296 26 249 25
297 208 139 138
298 71 72 73
299 79 185 77
300 172 188 178
301 182 190 156
302 194 185 79
303 181 168 158
304 41 189 40
305 307 231 236
306 194 267 184
307 70 71 69
308 69 184 68
309 93 170 187
310 50 226 213
311 231 51 236
312 61 226 60
313 213 226 61
314 191 94 95
315 61 62 213
316 51 264 236
317 175 188 172
318 52 53 263
319 63 208 62
320 152 217 153
321 53 209 233
322 258 264 263
323 233 56 225
324 44 241 43
325 232 200 217
326 285 42 242
327 258 225 57
328 252 253 105
329 207 282 281
330 177 217 228
331 91 218 90
332 71 73 185
333 131 130 193
334 12 176 246
335 155 197 156
336 291 293 292
337 239 215 244
338 310 10 11
339 11 251 250
340 220 250 251
341 221 198 252
342 253 104 105
343 253 323 104
344 255 262 223
345 323 322 104
346 301 305 303
347 252 255 253
348 254 253 255
349 289 290 256
350 201 224 287
351 115 114 257
352 235 257 87
353 263 225 258
354 58 236 258
355 37 38 259
356 38 330 259
357 126 212 260
358 260 197 243
359 85 335 349
360 84 338 216
361 290 223 262
362 311 256 262
363 53 225 263
364 264 52 263
365 51 52 264
366 236 264 258
367 332 82 219
368 330 242 265
369 332 333 261
370 158 268 157
371 267 80 113
372 312 112 190
373 113 268 267
374 270 156 190
375 272 275 274
376 273 272 298
377 190 269 270
378 293 227 292
379 110 277 111
380 155 273 214
381 274 271 272
382 297 313 298
383 155 272 273
384 271 274 278
385 275 269 111
386 272 270 275
387 111 274 275
388 292 227 296
389 301 299 290
390 278 274 277
391 279 276 277
392 278 314 271
393 277 276 278
394 279 306 276
395 205 321 320
396 308 47 280
397 281 282 206
398 280 281 239
399 283 239 281
400 282 319 206
401 207 137 282
402 239 283 215
403 206 215 283
404 138 207 284
405 62 208 284
406 42 285 210
407 180 210 285
408 286 135 134
409 286 319 123
410 224 291 287
411 288 290 289
412 297 294 296
413 256 290 262
414 291 288 289
415 254 223 299
416 290 299 223
417 291 292 288
418 291 224 171
419 292 295 288
420 292 296 295
421 232 227 293
422 171 293 291
423 288 295 301
424 297 271 314
425 301 290 288
426 296 294 295
427 294 297 314
428 227 248 296
429 298 271 297
430 248 297 296
431 272 271 298
432 313 195 273
433 299 302 254
434 294 301 295
435 324 254 302
436 102 327 202
437 303 302 299
438 299 301 303
439 254 324 323
440 302 303 300
441 304 300 303
442 304 303 306
443 326 300 304
444 205 306 279
445 276 314 278
446 294 305 301
447 306 205 304
448 276 306 305
449 236 59 307
450 226 231 307
451 238 46 308
452 280 239 308
453 232 152 309
454 227 309 248
455 228 200 310
456 11 250 310
457 203 230 311
458 262 229 311
459 297 248 313
460 190 268 312
461 273 298 313
462 294 314 305
463 314 276 305
464 86 316 315
465 316 318 315
466 318 316 114
467 351 337 335
468 113 337 351
469 336 335 85
470 282 136 319
471 319 286 206
472 326 205 320
473 90 218 320
474 205 279 321
475 109 320 321
476 103 322 324
477 324 322 323
478 253 254 323
479 329 325 102
480 324 302 300
481 202 327 218
482 320 218 326
483 326 304 205
484 326 327 325
485 326 218 327
486 102 325 327
487 324 300 328
488 325 328 326
489 102 103 329
490 328 325 329
491 38 242 330
492 241 259 330
493 340 338 84
494 219 266 332
495 82 332 261
496 342 333 339
497 331 339 340
498 339 333 341
499 266 334 333
500 342 245 333
501 113 80 337
502 85 318 336
503 351 335 336
504 335 345 349
505 81 337 80
506 334 216 338
507 341 334 338
508 350 347 339
509 340 341 338
510 331 340 84
511 333 334 341
512 340 339 341
513 345 335 337
514 346 345 81
515 339 347 342
516 342 343 245
517 346 343 342
518 346 344 345
519 81 345 337
520 346 347 344
521 81 343 346
522 346 342 347
523 349 344 350
524 349 348 85
525 339 331 350
526 349 345 344
527 350 344 347
528 331 348 350
529 113 351 317
530 336 317 351

