352 2 0 0
0 1373.0 -18153.0
1 1469.0 -17967.0
2 1685.0 -17781.0
3 2657.0 -17454.0
4 2453.0 -17205.0
5 2216.0 -16800.0
6 2114.0 -16389.0
7 2123.0 -15972.0
8 3187.0 -12919.0
9 3194.0 -12771.0
10 2640.0 -12236.0
11 1988.0 -11480.0
12 1284.0 -10260.0
13 792.0 -8984.0
14 720.0 -8612.0
15 964.0 -8708.0
16 840.0 -8436.0
17 1124.0 -8568.0
18 992.0 -8272.0
19 1332.0 -8448.0
20 1208.0 -8116.0
21 1504.0 -8360.0
22 1676.0 -8116.0
23 1836.0 -8344.0
24 2232.0 -8736.0
25 2924.0 -9112.0
26 3568.0 -9544.0
27 4364.0 -9960.0
28 3827.0 -8781.0
29 3616.0 -8064.0
30 3584.0 -7488.0
31 3960.0 -7120.0
32 4136.0 -6792.0
33 4540.0 -5804.0
34 4720.0 -5448.0
35 5140.0 -4836.0
36 4392.0 -4644.0
37 3824.0 -4432.0
38 2668.0 -3676.0
39 1652.0 -2876.0
40 296.0 -1184.0
41 504.0 -1096.0
42 2520.0 -1784.0
43 3754.0 -2274.0
44 4970.0 -3088.0
45 6162.0 -4130.0
46 7564.0 -4080.0
47 8682.0 -4363.0
48 9732.0 -4878.0
49 10375.0 -5401.0
50 11708.0 -4756.0
51 13260.0 -4280.0
52 14436.0 -4052.0
53 15808.0 -3924.0
54 17664.0 -3928.0
55 17483.0 -4353.0
56 16469.0 -5262.0
57 15309.0 -5863.0
58 14396.0 -6114.0
59 13394.0 -6240.0
60 12338.0 -6258.0
61 11393.0 -6087.0
62 10880.0 -6021.0
63 10892.0 -6642.0
64 10893.0 -7323.0
65 10758.0 -7995.0
66 10544.0 -8523.0
67 10546.0 -8849.0
68 10532.0 -9258.0
69 11580.0 -8872.0
70 12753.0 -8772.0
71 12696.0 -9190.0
72 13172.0 -9504.0
73 12872.0 -9528.0
74 13080.0 -9801.0
75 12824.0 -9768.0
76 12880.0 -10032.0
77 12688.0 -10024.0
78 12744.0 -10284.0
79 12430.0 -10196.0
80 12269.0 -10404.0
81 13496.0 -10416.0
82 17792.0 -11412.0
83 18356.0 -11776.0
84 15940.0 -14164.0
85 12872.0 -13220.0
86 11772.0 -15016.0
87 11088.0 -14820.0
88 10908.0 -15228.0
89 10932.0 -16180.0
90 9808.0 -15948.0
91 10044.0 -17008.0
92 9952.0 -17428.0
93 9756.0 -17728.0
94 9760.0 -17812.0
95 10516.0 -18164.0
96 11092.0 -18644.0
97 11180.0 -18816.0
98 11008.0 -18928.0
99 10780.0 -18944.0
100 9024.0 -18464.0
101 8332.0 -18288.0
102 8300.0 -18116.0
103 6996.0 -18040.0
104 5352.0 -17632.0
105 4132.0 -17728.0
106 4020.0 -18000.0
107 1992.0 -18372.0
108 1668.0 -18324.0
109 9586.0 -15257.0
110 9482.0 -14778.0
111 9531.0 -13222.0
112 10609.0 -12287.0
113 11693.0 -11137.0
114 11154.0 -13805.0
115 10043.0 -13662.0
116 10197.0 -15262.0
117 6545.0 -10241.0
118 6308.0 -10037.0
119 6143.0 -9130.0
120 6121.0 -8279.0
121 6105.0 -7667.0
122 6561.0 -7749.0
123 7221.0 -7639.0
124 7711.0 -8090.0
125 8360.0 -8332.0
126 8007.0 -8906.0
127 7562.0 -9630.0
128 6875.0 -10219.0
129 5335.0 -7012.0
130 5052.0 -6503.0
131 5175.0 -6094.0
132 5664.0 -5880.0
133 6028.0 -6100.0
134 6158.0 -6632.0
135 5868.0 -7004.0
136 8892.0 -7460.0
137 9148.0 -7084.0
138 9608.0 -7040.0
139 9944.0 -7340.0
140 9925.0 -7796.0
141 9744.0 -8080.0
142 9316.0 -8196.0
143 8976.0 -7972.0
144 9396.0 -7528.0
145 9232.0 -7384.0
146 9380.0 -7168.0
147 9588.0 -7336.0
148 5691.0 -6489.0
149 5589.0 -6198.0
150 5865.0 -6138.0
151 5955.0 -6417.0
152 5025.0 -10908.0
153 4650.0 -10437.0
154 4464.0 -10122.0
155 8516.0 -11196.0
156 9144.0 -10908.0
157 9708.0 -10676.0
158 10200.0 -10232.0
159 10472.0 -9478.0
160 4000.0 -8776.0
161 4368.0 -8547.0
162 4590.0 -8100.0
163 4575.0 -7482.0
164 4354.0 -6994.0
165 9516.0 -10575.0
166 9315.0 -10233.0
167 9390.0 -9717.0
168 9687.0 -9294.0
169 10152.0 -8991.0
170 9531.715855397253 -17780.775435457275
171 3589.191111919125 -12863.857012050228
172 4039.224352628465 -9246.945087055792
173 3901.678518897487 -8369.476753853041
174 8742.432340905883 -18122.663750529136
175 3933.1121763142323 -9013.972543527896
176 1421.1402410045778 -9069.017418290947
177 3977.5948639804174 -10310.38588643184
178 4850.405136019583 -9771.61411356816
179 1584.133397361909 -8728.715276661913
180 936.3785955236953 -1983.056477600363
181 9794.93619386394 -10277.740106714095
182 9471.247647704426 -10773.38749243364
183 9213.104519324635 -10610.914057623917
184 11094.648950150051 -9529.631531859104
185 12400.76683087028 -9558.553366174056
186 9902.0 -18704.0
187 9556.638426888905 -17383.723772234087
188 4298.383066731757 -8988.254108918783
189 616.1892977618477 -1583.5282388001815
190 9851.971983618316 -11362.471169096489
191 9577.192402478597 -18298.40434848435
192 3006.0 -18186.0
193 4563.13367119024 -6549.66762218083
194 11837.604876187832 -9903.773485895388
195 6769.264895015005 -11118.973425225076
196 5876.952791679044 -10777.444550843464
197 8638.198671655991 -10633.766547916537
198 3144.6824139019363 -16846.386697044196
199 6363.795649378482 -5133.28356193742
200 3641.6824374221187 -11753.081176949807
201 2655.0 -14445.5
202 8961.18222781308 -17545.655543796198
203 2816.667919794822 -16195.568372369673
204 5292.028351814107 -8727.285892847274
205 8243.64160399148 -15297.661321889114
206 8007.109067016277 -6582.372130734486
207 9270.302888387405 -5936.075651322867
208 10208.15128110258 -6705.99056516511
209 16640.002378113 -3925.7931085735195
210 1512.0 -1440.0
211 4398.047053492643 -3760.892800076316
212 8864.529538330766 -9032.286697125857
213 11227.702804746494 -5345.105472197705
214 7687.185716926163 -10721.464931959228
215 7069.676002354993 -6127.338570853103
216 16899.429517363333 -13215.689698897502
217 4173.917026540276 -11116.550910644673
218 9009.645646889607 -16548.092514912463
219 17627.714758681665 -12495.844849448753
220 2567.1791945863465 -10339.945830292576
221 3421.5640060240967 -17594.526355421687
222 5545.600719338063 -10088.860511011337
223 4733.887879833701 -15637.352782131566
224 2921.0 -13682.25
225 15552.790091091329 -4915.687401550927
226 12026.105981973726 -5505.697224604895
227 4907.913583866427 -12271.060937727148
228 3281.9635125943632 -10911.523278766428
229 3827.0823575043028 -16094.385633517808
230 2715.214650909028 -15322.438957932265
231 12579.274809718165 -4828.643917400401
232 4357.216075959227 -11810.59538351126
233 16222.650906433808 -4551.427691216183
234 5324.802149373743 -7804.083732797279
235 10120.0 -14462.0
236 13775.829990246384 -5229.314684340298
237 5815.803471030306 -4721.568197440472
238 6877.374071765498 -4508.048972304572
239 7797.825536618401 -5219.802339686108
240 5282.582658017741 -3933.2163835344077
241 4161.590627698395 -2980.383042652029
242 2588.1424719760566 -2655.118628234453
243 8111.263279241904 -10119.91373672132
244 6558.5760972957005 -5742.620590545411
245 15644.0 -10914.0
246 2112.2166506618487 -9598.025711804778
247 5497.569403095009 -9393.406317026782
248 5961.355277658552 -11893.36211944442
249 3268.914053571925 -10195.117911720115
250 2576.0373230134333 -11061.592652174351
251 1891.8075271714472 -10722.386476124017
252 3972.9953512470347 -16912.414609571206
253 4703.698416415416 -17193.250708612577
254 5690.051128468282 -16434.14729864922
255 4584.375894218884 -16412.69361491537
256 3830.241696277603 -14972.534690232285
257 10734.778693591797 -14287.386102243407
258 14686.416538875 -5197.752790600806
259 3539.078737031679 -3595.046079833808
260 8685.987273792947 -9713.293537253974
261 16718.0 -11163.0
262 4113.3539901387885 -15534.261906851347
263 14951.253497019521 -4539.627834967782
264 14213.354956497462 -4700.903460979178
265 2995.8572622128772 -1972.9546665188898
266 16911.62312831415 -12499.691559158317
267 11091.055740895412 -10446.022960047678
268 10500.38717007821 -10943.285219033012
269 9665.107139551208 -12287.682349129627
270 9128.191585986673 -11702.223319443161
271 7612.050539749076 -12912.456974422012
272 8243.545528506113 -12148.770467180391
273 7525.460929810799 -11606.591351159079
274 8572.139330003938 -13063.421745477208
275 8935.638825141534 -12417.738572413724
276 7915.942937401819 -14108.211043033978
277 8912.881104156835 -13981.30634582499
278 8020.191306043045 -13445.223980322478
279 8484.018095270485 -14591.570229576613
280 8941.087841833823 -5162.65100208638
281 8423.980831877394 -5839.541150770849
282 8725.345636132302 -6497.0533676236755
283 7731.796537730028 -5912.703483662857
284 9990.46375136235 -6014.996818074806
285 1838.1904914358893 -2133.023211141348
286 6905.824386003571 -6907.145658071701
287 3431.3806376192706 -14288.099368957388
288 4958.157544271173 -13856.793564617772
289 4250.368920011003 -14269.263978115543
290 5015.323354263264 -14768.397371887251
291 4229.9148887480615 -13420.65663922425
292 4938.378027544162 -13063.757975142713
293 4303.274050965887 -12689.191797812899
294 6300.026011880795 -13426.560858725741
295 5565.990655224869 -13444.868819689767
296 5914.849014379819 -12707.639093799342
297 6775.632024562512 -12709.101139370412
298 7323.919084726889 -12275.758842415325
299 5686.81357077971 -15465.93130302398
300 7002.335654444578 -15945.645820698095
301 6035.015775339162 -14458.753457828085
302 6256.199146236186 -15948.140780500235
303 6626.542613306017 -15132.025228701154
304 7431.078963153077 -15254.02346486384
305 6966.7487175286815 -14236.635720463
306 7500.25176824604 -14607.800597597186
307 12855.112160675295 -5610.246759617292
308 8032.833317819188 -4577.706186141865
309 5267.253599078692 -11615.36880019439
310 2964.7874202823714 -11629.365346777726
311 3393.465045237276 -15532.234567061056
312 11151.0 -11712.0
313 6705.387752915523 -11860.966363182055
314 7073.526749670908 -13469.346681172012
315 12322.0 -14118.0
316 11642.181314055368 -14319.059824866872
317 11423.5 -12471.0
318 11924.274857599748 -13266.391266209244
319 8091.801937607676 -7381.899346531215
320 8928.76878335985 -15737.797488426026
321 8907.971798813358 -15086.468903460358
322 6174.0 -17836.0
323 5694.062072466697 -17081.9070215817
324 6819.70423035075 -16992.28001299845
325 7949.33430889585 -17041.068377991
326 8160.62874432355 -16180.192557514236
327 8587.80924727466 -17027.557673230407
328 7498.244242018878 -16473.984174023495
329 7366.2790532069885 -17439.002287575368
330 3306.6244675193366 -2879.2222135951524
331 14406.0 -13692.0
332 17139.827914370064 -11784.266345247193
333 15984.046864662512 -11888.008704226751
334 16213.554232566697 -12549.121288782908
335 12579.601382713858 -12010.337479491292
336 12135.892402806116 -12577.819324931172
337 12514.497185270133 -11189.728347497403
338 16130.305423752885 -13397.042105232696
339 14984.13146826801 -12605.525966074447
340 15276.313787480185 -13592.230190689399
341 15614.488896861643 -12918.352183809937
342 15064.867869664658 -11662.550269643441
343 14570.0 -10665.0
344 13849.805300212976 -12033.46225314365
345 13223.360505242981 -11546.376796879185
346 13975.254377752508 -11225.740367747234
347 14531.773177821888 -12091.851491079098
348 13639.0 -13456.0
349 13384.44581654272 -12646.132644126692
350 14194.205217537594 -12845.142590516409
351 11851.131400611526 -11863.169068564323

