OFF
2084 352 0
1520.5 -18238.5 0
1577.23 -18140.6 0
1373 -18153 0
1421 -18060 0
1469 -17967 0
1421 -18060 0
1577.23 -18140.6 0
1732.21 -18054.2 0
1577 -17874 0
1685 -17781 0
1577 -17874 0
1732.21 -18054.2 0
1872.87 -18058.6 0
2252.98 -17861.2 0
2171 -17617.5 0
2171 -17617.5 0
2252.98 -17861.2 0
2657 -17454 0
2448.32 -18002.7 0
2999.66 -17739.8 0
3081.4 -17295.1 0
2836.7 -17098.7 0
2555 -17329.5 0
2453 -17205 0
2555 -17329.5 0
2836.7 -17098.7 0
2681.53 -16799.4 0
2334.5 -17002.5 0
2334.5 -17002.5 0
2681.53 -16799.4 0
2216 -16800 0
2688.07 -16668.5 0
2524 -16505.4 0
2165 -16594.5 0
2165 -16594.5 0
2524 -16505.4 0
2114 -16389 0
2436.45 -16187.4 0
2118.5 -16180.5 0
2123 -15972 0
2118.5 -16180.5 0
2436.45 -16187.4 0
2567.06 -15782.1 0
2280.3 -15520.7 0
3054 -13300.6 0
3463.78 -13443.4 0
3187 -12919 0
3382.98 -12854.1 0
3190.5 -12845 0
3190.5 -12845 0
3382.98 -12854.1 0
3194 -12771 0
3512.33 -12303.6 0
3229.97 -12179.4 0
2917 -12503.5 0
2917 -12503.5 0
3229.97 -12179.4 0
2640 -12236 0
3218.4 -12155.4 0
2447.64 -11742.7 0
2314 -11858 0
2314 -11858 0
2447.64 -11742.7 0
1988 -11480 0
2477.74 -11545.9 0
2142.99 -11075.4 0
1781.05 -11121.4 0
1490.95 -10618.6 0
1860.76 -10132.5 0
1500.29 -9681.52 0
1040.54 -9628.58 0
1284 -10260 0
792 -8984 0
1029.19 -9599.15 0
1111.31 -8991.4 0
790.318 -8791.36 0
756 -8798 0
720 -8612 0
790.318 -8791.36 0
842 -8660 0
756 -8798 0
1111.31 -8991.4 0
1226.07 -8846.08 0
962.226 -8544.54 0
902 -8572 0
964 -8708 0
842 -8660 0
790.318 -8791.36 0
840 -8436 0
962.226 -8544.54 0
982 -8502 0
902 -8572 0
1226.07 -8846.08 0
1300.4 -8802 0
1337.06 -8697.04 0
1152.83 -8377.71 0
1058 -8420 0
1124 -8568 0
982 -8502 0
962.226 -8544.54 0
992 -8272 0
1152.83 -8377.71 0
1162 -8360 0
1058 -8420 0
1337.06 -8697.04 0
1495.24 -8554.97 0
1341.85 -8255.16 0
1270 -8282 0
1332 -8448 0
1162 -8360 0
1152.83 -8377.71 0
1208 -8116 0
1341.85 -8255.16 0
1356 -8238 0
1270 -8282 0
1495.24 -8554.97 0
1677.87 -8515.28 0
1667.13 -8292.37 0
1590 -8238 0
1504 -8360 0
1356 -8238 0
1341.85 -8255.16 0
1676 -8116 0
1667.13 -8292.37 0
1756 -8230 0
1590 -8238 0
1836 -8344 0
1756 -8230 0
1667.13 -8292.37 0
1677.87 -8515.28 0
1908.81 -8666.47 0
2034 -8540 0
1920.86 -9132.1 0
2426.73 -9202.39 0
2578 -8924 0
2232 -8736 0
2034 -8540 0
1908.81 -8666.47 0
1904.03 -9091.12 0
2924 -9112 0
2578 -8924 0
2426.73 -9202.39 0
2739.07 -9724.08 0
2810.15 -9744.73 0
3008.91 -9681.44 0
3246 -9328 0
3246 -9328 0
3008.91 -9681.44 0
3568 -9544 0
3667.01 -9983.73 0
3913.84 -9851.82 0
3966 -9752 0
3966 -9752 0
3913.84 -9851.82 0
4364 -9960 0
4203.31 -10171.1 0
4624.69 -9910.95 0
4460.02 -9485.78 0
4201.61 -9603.47 0
3880.06 -8897.49 0
3916.46 -8880.91 0
3827 -8781 0
3907.85 -8583.13 0
3760.93 -8556.47 0
3880.06 -8897.49 0
3682.07 -8288.53 0
4110.16 -7888.18 0
4113.33 -7802.39 0
4081.1 -7749.27 0
3600 -7776 0
3616 -8064 0
3600 -7776 0
4081.1 -7749.27 0
3584 -7488 0
4080.31 -7619.01 0
3772 -7304 0
3772 -7304 0
4080.31 -7619.01 0
3960 -7120 0
4246.46 -7336.74 0
4140.59 -7005.68 0
4048 -6956 0
4048 -6956 0
4140.59 -7005.68 0
4136 -6792 0
4388.03 -6738.64 0
4254.25 -6502.82 0
4756.35 -6170.48 0
4934.66 -5780.04 0
4630 -5626 0
4540 -5804 0
4385.44 -6181.99 0
4630 -5626 0
4934.66 -5780.04 0
4720 -5448 0
5236.04 -5567.77 0
5311.17 -5403.59 0
4930 -5142 0
4930 -5142 0
5311.17 -5403.59 0
5140 -4836 0
5562.35 -5277.52 0
5416.65 -4417.04 0
4871.02 -4330.87 0
4766 -4740 0
4766 -4740 0
4871.02 -4330.87 0
4392 -4644 0
4770.58 -4205.02 0
4233.65 -4201.34 0
4108 -4538 0
4108 -4538 0
4233.65 -4201.34 0
3824 -4432 0
3919.41 -3932.55 0
3354.4 -4124.89 0
3135.73 -3981.88 0
3076.95 -3349.46 0
2828 -3149.92 0
2221.95 -3197.33 0
2160 -3276 0
2668 -3676 0
2160 -3276 0
2221.95 -3197.33 0
1652 -2876 0
2078.17 -2587.98 0
1330.32 -2400.57 0
1294.19 -2429.53 0
296 -1184 0
491.221 -1355.61 0
400 -1140 0
456.095 -1383.76 0
504 -1096 0
400 -1140 0
491.221 -1355.61 0
953.209 -1249.3 0
2520 -1784 0
2016 -1612 0
2010.29 -1628.75 0
2322.02 -2237.71 0
2624.68 -2214.04 0
2757.93 -1878.48 0
3754 -2274 0
3374.93 -2123.48 0
3271.09 -2384.99 0
3756.15 -2743.55 0
4131.71 -2526.84 0
4970 -3088 0
4592.29 -2835.16 0
4531.14 -3294.5 0
4888.75 -3598.46 0
5356.18 -3425.59 0
6162 -4130 0
5775.82 -3792.41 0
5675.17 -4242.18 0
6320.77 -4620 0
6365.37 -4611.03 0
6628.37 -4113.37 0
7097.63 -4096.63 0
7448.11 -4658.83 0
7956.99 -4179.48 0
7564 -4080 0
8682 -4363 0
8289.01 -4263.52 0
8488.74 -4867.41 0
9198.72 -4637.38 0
9207 -4620.5 0
9732 -4878 0
9207 -4620.5 0
9198.72 -4637.38 0
9470.99 -5393.87 0
9683.94 -5486.8 0
9790.77 -5462.52 0
10053.5 -5139.5 0
10053.5 -5139.5 0
9790.77 -5462.52 0
10375 -5401 0
10436.3 -5866.77 0
10813.6 -5559.44 0
10790 -5200.18 0
11330.6 -4938.63 0
11669.3 -5214.77 0
12124.5 -5021.6 0
12158.2 -4617.93 0
11708 -4756 0
12809.8 -4418.07 0
13214.1 -4919.72 0
13652.3 -4681.66 0
13857.7 -4216.24 0
13848 -4166 0
13260 -4280 0
13848 -4166 0
13857.7 -4216.24 0
14436 -4052 0
14545.6 -4452.25 0
14971.7 -4002.03 0
15199.3 -3980.79 0
15477.2 -4367.54 0
15723.1 -4430.84 0
16223.6 -4100.05 0
16224 -3924.9 0
15808 -3924 0
17664 -3928 0
17151.9 -3960.96 0
17573.5 -4140.5 0
17152 -3926.9 0
17483 -4353 0
17573.5 -4140.5 0
17151.9 -3960.96 0
16864.7 -4527.72 0
16894.4 -4716.52 0
16976 -4807.5 0
16469 -5262 0
16976 -4807.5 0
16894.4 -4716.52 0
16039.6 -5012.88 0
15856 -5498.73 0
15889 -5562.5 0
15309 -5863 0
15889 -5562.5 0
15856 -5498.73 0
15209.3 -5332.32 0
14782 -5732.21 0
14852.5 -5988.5 0
14396 -6114 0
14852.5 -5988.5 0
14782 -5732.21 0
14243.2 -5561.41 0
13852.1 -5835.59 0
13895 -6177 0
13394 -6240 0
13895 -6177 0
13852.1 -5835.59 0
13420 -5672.34 0
12864.3 -6147.85 0
12866 -6249 0
12338 -6258 0
12866 -6249 0
12864.3 -6147.85 0
12411.8 -5786.61 0
11896.7 -6000.16 0
11865.5 -6172.5 0
11393 -6087 0
11865.5 -6172.5 0
11896.7 -6000.16 0
11580.6 -5655.85 0
11176.1 -5745.96 0
11136.5 -6054 0
10436.3 -5866.77 0
10433.6 -6255.17 0
10518.7 -6338.6 0
10886 -6331.5 0
10880 -6021 0
11136.5 -6054 0
11176.1 -5745.96 0
10813.6 -5559.44 0
10579 -6982.96 0
10892.5 -6982.5 0
10892 -6642 0
10886 -6331.5 0
10518.7 -6338.6 0
10893 -7323 0
10892.5 -6982.5 0
10579 -6982.96 0
10415.5 -7164.41 0
10422.9 -7578.12 0
10825.5 -7659 0
10758 -7995 0
10825.5 -7659 0
10422.9 -7578.12 0
10415 -7588.02 0
10289.6 -8112.54 0
10651 -8259 0
10544 -8523 0
10651 -8259 0
10289.6 -8112.54 0
10212 -8178.62 0
10036.3 -8495.94 0
10265.3 -8687.72 0
10545 -8686 0
10546 -8849 0
10545 -8686 0
10265.3 -8687.72 0
10395.3 -9048.58 0
10539 -9053.5 0
10532 -9258 0
10539 -9053.5 0
10395.3 -9048.58 0
10224.2 -9292.22 0
10788.1 -9446.03 0
10953.9 -9102.6 0
11120.9 -9041.09 0
11620.6 -9409.9 0
11882.2 -9344.59 0
12134.6 -9042.83 0
12173.7 -8905.88 0
12166.5 -8822 0
11580 -8872 0
12173.7 -8905.88 0
12724.5 -8981 0
12753 -8772 0
12166.5 -8822 0
12134.6 -9042.83 0
12629.6 -9439.37 0
12878 -9310.06 0
12696 -9190 0
12724.5 -8981 0
12173.7 -8905.88 0
13172 -9504 0
12878 -9310.06 0
12629.6 -9439.37 0
12640.5 -9606.5 0
12966.5 -9671.71 0
12976 -9664.5 0
12872 -9528 0
13080 -9801 0
12976 -9664.5 0
12966.5 -9671.71 0
12952 -9784.5 0
12952 -9784.5 0
12966.5 -9671.71 0
12824 -9768 0
12640.5 -9606.5 0
12551.1 -9787.14 0
12788.8 -9913.41 0
12852 -9900 0
12880 -10032 0
12852 -9900 0
12788.8 -9913.41 0
12784 -10028 0
12784 -10028 0
12788.8 -9913.41 0
12688 -10024 0
12551.1 -9787.14 0
12404.2 -9877.79 0
12604.4 -10178 0
12716 -10154 0
12744 -10284 0
12716 -10154 0
12604.4 -10178 0
12587 -10240 0
12587 -10240 0
12604.4 -10178 0
12430 -10196 0
12404.2 -9877.79 0
12214.4 -9886.49 0
12104.1 -10110.1 0
12349.5 -10300 0
12880.2 -10644.2 0
12882.5 -10410 0
12269 -10404 0
12349.5 -10300 0
12104.1 -10110.1 0
11681.8 -10474.3 0
11684 -10537.1 0
12121.9 -10881.2 0
12882.5 -10410 0
12880.2 -10644.2 0
13496 -10416 0
13095.6 -10917.5 0
13434.3 -10999.2 0
14005 -10661.5 0
14033 -10540.5 0
17792 -11412 0
17293.7 -11296.5 0
17665.1 -11947.1 0
17830 -11972.1 0
18074 -11594 0
18356 -11776 0
17830 -11972.1 0
17991.9 -12135.9 0
18074 -11594 0
15940 -14164 0
16269.2 -13838.6 0
15752.6 -13710.4 0
15483 -14023.4 0
12872 -13220 0
13255.5 -13338 0
13325.8 -13109.5 0
12762.3 -12606.3 0
12758.3 -12607.3 0
12387.8 -13032 0
12413.5 -13556.6 0
12597 -13669 0
11772 -15016 0
12021.3 -14609 0
11490.2 -14707.9 0
11430 -14918 0
11430 -14918 0
11490.2 -14707.9 0
11088 -14820 0
11186.1 -14371.5 0
10546.9 -14795.4 0
10537.5 -14820.8 0
10998 -15024 0
10998 -15024 0
10537.5 -14820.8 0
10908 -15228 0
10532.5 -14826 0
10574.9 -15712.7 0
10920 -15704 0
10932 -16180 0
10920 -15704 0
10574.9 -15712.7 0
10416.3 -15839.7 0
10370 -16064 0
9403.3 -15696.9 0
9304.66 -16109.5 0
9631.03 -16543.7 0
9926 -16478 0
9808 -15948 0
10370 -16064 0
10416.3 -15839.7 0
9889.2 -15540.8 0
9926 -16478 0
9631.03 -16543.7 0
10044 -17008 0
9509.04 -16818 0
9780.69 -17170.4 0
9998 -17218 0
9998 -17218 0
9780.69 -17170.4 0
9952 -17428 0
9743.15 -17505.6 0
9854 -17578 0
9854 -17578 0
9743.15 -17505.6 0
9756 -17728 0
9604.24 -17586 0
9648.76 -17775.2 0
9758 -17770 0
9758 -17770 0
9648.76 -17775.2 0
9760 -17812 0
9613.3 -18034.4 0
10041.5 -18195.3 0
10138 -17988 0
10138 -17988 0
10041.5 -18195.3 0
10516 -18164 0
10049.7 -18252.9 0
10391 -18641 0
10691.2 -18539.4 0
10804 -18404 0
10804 -18404 0
10691.2 -18539.4 0
11092 -18644 0
10879.9 -18735.7 0
11035.1 -18781.6 0
11136 -18730 0
11180 -18816 0
11035.1 -18781.6 0
11094 -18872 0
11136 -18730 0
11008 -18928 0
11094 -18872 0
11035.1 -18781.6 0
10879.9 -18735.7 0
10894 -18936 0
10780 -18944 0
10894 -18936 0
10879.9 -18735.7 0
10691.2 -18539.4 0
10391 -18641 0
10341 -18824 0
9024 -18464 0
9352.24 -18553.7 0
9207.46 -18070.1 0
9179.27 -18049.1 0
8758.26 -18396.4 0
8332 -18288 0
8597.74 -18355.6 0
8520.54 -18163.9 0
8316 -18202 0
8396.27 -17559.2 0
8279.02 -17528.2 0
7931.78 -17641.5 0
7650.86 -18028.9 0
7648 -18078 0
8300 -18116 0
8316 -18202 0
8520.54 -18163.9 0
8527.36 -17711.2 0
7648 -18078 0
7650.86 -18028.9 0
6996 -18040 0
6837.75 -17527.9 0
6680.19 -17554.4 0
6585 -17938 0
5352 -17632 0
5763 -17734 0
5811.98 -17536.6 0
5201.03 -17156.7 0
4852.8 -17671.3 0
3832.81 -17363 0
3762.91 -17735.1 0
4076 -17864 0
4132 -17728 0
4631.2 -17688.7 0
4250.41 -17281.6 0
4076 -17864 0
3762.91 -17735.1 0
4020 -18000 0
1992 -18372 0
2499 -18279 0
2448.32 -18002.7 0
2252.98 -17861.2 0
1872.87 -18058.6 0
1830 -18348 0
1668 -18324 0
1830 -18348 0
1872.87 -18058.6 0
1732.21 -18054.2 0
1577.23 -18140.6 0
1520.5 -18238.5 0
9889.2 -15540.8 0
9891.5 -15259.5 0
9586 -15257 0
9534 -15017.5 0
9271.44 -15074.5 0
9188.69 -15403.5 0
9403.3 -15696.9 0
9501.38 -14162.5 0
9015.77 -14509.4 0
9003.39 -14575.7 0
9271.44 -15074.5 0
9534 -15017.5 0
9482 -14778 0
9531 -13222 0
10002.7 -12812.9 0
9366.13 -12721.6 0
9087.06 -12928.1 0
9004.89 -13425 0
9511.62 -13837.5 0
10609 -12287 0
10880 -11999.5 0
10478.8 -11621.4 0
10136.8 -11901.5 0
10137.3 -12696.1 0
10945.2 -11680.1 0
12086.5 -11431.6 0
12121.9 -10881.2 0
11684 -10537.1 0
11095.1 -11050.2 0
11085.7 -11107.5 0
11422 -11424.5 0
11693 -11137 0
11704 -13771.5 0
11282.5 -13168.7 0
11154 -13805 0
10598.5 -13733.5 0
10597.1 -13744.4 0
11190 -14259.6 0
10043 -13662 0
10081.5 -14062 0
10331.7 -14037.9 0
10597.1 -13744.4 0
10598.5 -13733.5 0
10416.3 -15839.7 0
10574.9 -15712.7 0
10532.5 -14826 0
10158.5 -14862 0
10197 -15262 0
9891.5 -15259.5 0
9889.2 -15540.8 0
6545 -10241 0
6426.5 -10139 0
6161.19 -10447.2 0
6400.7 -10745.5 0
6738.61 -10659.2 0
6710 -10230 0
6225.5 -9583.5 0
5970.54 -9629.88 0
6308 -10037 0
5903.12 -9714.78 0
5944.35 -10321 0
6161.19 -10447.2 0
6426.5 -10139 0
6132 -8704.5 0
5819.77 -8712.57 0
6143 -9130 0
5699.71 -8966.26 0
5970.54 -9629.88 0
6225.5 -9583.5 0
6113 -7973 0
5758.25 -7982.27 0
6121 -8279 0
5583.38 -8275.45 0
5819.77 -8712.57 0
6132 -8704.5 0
6105 -7667 0
6333 -7708 0
6424.1 -7201.38 0
6408.3 -7184.72 0
5664.82 -7450.49 0
5758.25 -7982.27 0
6113 -7973 0
6561 -7749 0
6891 -7694 0
6837.09 -7370.54 0
6424.1 -7201.38 0
6333 -7708 0
7466 -7864.5 0
7689.3 -7621.89 0
7221 -7639 0
7527.33 -7073.29 0
6837.09 -7370.54 0
6891 -7694 0
7711 -8090 0
8035.5 -8211 0
8160.65 -7875.37 0
7689.3 -7621.89 0
7466 -7864.5 0
8183.5 -8619 0
8462.1 -8790.33 0
8360 -8332 0
8869.51 -8496.81 0
8458.76 -7793.97 0
8455.68 -7792.09 0
8160.65 -7875.37 0
8035.5 -8211 0
8007 -8906 0
7784.5 -9268 0
8137.81 -9485.16 0
8391.15 -9272.09 0
8462.1 -8790.33 0
8183.5 -8619 0
7562 -9630 0
7218.5 -9924.5 0
7450.97 -10195.6 0
7561.95 -10182.9 0
8133.6 -9542.01 0
8137.81 -9485.16 0
7784.5 -9268 0
6875 -10219 0
6710 -10230 0
6738.61 -10659.2 0
7135.36 -10705.8 0
7450.97 -10195.6 0
7218.5 -9924.5 0
5607.56 -7411.62 0
5601.5 -7008 0
5335 -7012 0
5193.5 -6757.5 0
4847.97 -6949.61 0
4845.4 -6953.9 0
4843.34 -7066.44 0
5052.38 -7404.47 0
5113.5 -6298.5 0
4776.13 -6197.04 0
5052 -6503 0
4847.97 -6949.61 0
5193.5 -6757.5 0
5419.5 -5987 0
5236.04 -5567.77 0
5175 -6094 0
4934.66 -5780.04 0
4756.35 -6170.48 0
4776.13 -6197.04 0
5113.5 -6298.5 0
5664 -5880 0
5846 -5990 0
6079.42 -5603.8 0
6073.01 -5562.04 0
5803.07 -5309.06 0
5562.35 -5277.52 0
5311.17 -5403.59 0
5236.04 -5567.77 0
5419.5 -5987 0
6028 -6100 0
6093 -6366 0
6522.18 -6261.13 0
6079.42 -5603.8 0
5846 -5990 0
6013 -6818 0
6402.4 -7121.57 0
6158 -6632 0
6650.8 -6446.44 0
6556.87 -6276.75 0
6522.18 -6261.13 0
6093 -6366 0
6408.3 -7184.72 0
6402.4 -7121.57 0
6013 -6818 0
5868 -7004 0
5601.5 -7008 0
5607.56 -7411.62 0
5664.82 -7450.49 0
8458.76 -7793.97 0
8934 -7716 0
8892 -7460 0
9020 -7272 0
8633.49 -7008.84 0
8530.38 -7026.69 0
8455.68 -7792.09 0
9148 -7084 0
9378 -7062 0
9326.4 -6522.53 0
9311.11 -6520.9 0
8633.49 -7008.84 0
9020 -7272 0
9776 -7190 0
9966.04 -6977.15 0
9608 -7040 0
9693.92 -6488.2 0
9578.9 -6445.29 0
9326.4 -6522.53 0
9378 -7062 0
9934.5 -7568 0
10415 -7588.02 0
9944 -7340 0
10422.9 -7578.12 0
10415.5 -7164.41 0
9966.04 -6977.15 0
9776 -7190 0
9925 -7796 0
9834.5 -7938 0
10212 -8178.62 0
10289.6 -8112.54 0
10415 -7588.02 0
9934.5 -7568 0
9744 -8080 0
9530 -8138 0
9671.32 -8659.41 0
10036.3 -8495.94 0
10212 -8178.62 0
9834.5 -7938 0
9146 -8084 0
8873.74 -8497.25 0
9316 -8196 0
9397.65 -8780.09 0
9631.8 -8700.97 0
9671.32 -8659.41 0
9530 -8138 0
8934 -7716 0
8458.76 -7793.97 0
8976 -7972 0
8869.51 -8496.81 0
8873.74 -8497.25 0
9146 -8084 0
9396 -7528 0
9408.44 -7348.44 0
9314 -7456 0
9492 -7432 0
9232 -7384 0
9314 -7456 0
9408.44 -7348.44 0
9408.11 -7345.96 0
9306 -7276 0
9380 -7168 0
9306 -7276 0
9408.11 -7345.96 0
9484 -7252 0
9588 -7336 0
9484 -7252 0
9408.11 -7345.96 0
9408.44 -7348.44 0
9492 -7432 0
5691 -6489 0
5823 -6453 0
5786.04 -6317.49 0
5756.29 -6302.74 0
5640 -6343.5 0
5589 -6198 0
5756.29 -6302.74 0
5727 -6168 0
5640 -6343.5 0
5865 -6138 0
5727 -6168 0
5756.29 -6302.74 0
5786.04 -6317.49 0
5910 -6277.5 0
5955 -6417 0
5910 -6277.5 0
5786.04 -6317.49 0
5823 -6453 0
4568.65 -10886.6 0
4683.03 -11353.3 0
4744.9 -11399.1 0
5496.78 -11141.6 0
5410.4 -10577.9 0
5157.86 -10417.4 0
4258.18 -10669 0
4568.65 -10886.6 0
5157.86 -10417.4 0
5074.06 -10201.8 0
4818.74 -10124.9 0
4303.33 -10429.3 0
4818.74 -10124.9 0
4624.69 -9910.95 0
4203.31 -10171.1 0
4303.33 -10429.3 0
7948.28 -11226.5 0
8099.93 -11592.4 0
8588.19 -11732 0
8944.33 -11301.3 0
8788.16 -10960.8 0
8176.54 -10827.8 0
8944.33 -11301.3 0
9385.75 -11310.1 0
9455.81 -11200.9 0
9284.33 -10784.1 0
8928.79 -10701.4 0
8788.16 -10960.8 0
10029.4 -10537.5 0
9696.5 -10464.9 0
9576.55 -10692.9 0
9716.28 -11032.6 0
10052.8 -10962 0
10150.7 -10671.9 0
9998.14 -9733.12 0
9942.02 -9763.81 0
10029.4 -10537.5 0
10150.7 -10671.9 0
10612.4 -10476.9 0
10727.8 -9996.35 0
10224.2 -9292.22 0
10079.1 -9387.5 0
9998.14 -9733.12 0
10727.8 -9996.35 0
10743.3 -9986.46 0
10788.1 -9446.03 0
4111.14 -8935.62 0
4240.99 -8753.08 0
4105.49 -8535.33 0
3907.85 -8583.13 0
3916.46 -8880.91 0
4790.48 -8839.77 0
4854.79 -8510.14 0
4232.7 -8201.18 0
4105.49 -8535.33 0
4240.99 -8753.08 0
4854.79 -8510.14 0
5080.45 -8257.59 0
4889.55 -7783.55 0
4113.33 -7802.39 0
4110.16 -7888.18 0
4232.7 -8201.18 0
4889.55 -7783.55 0
5052.38 -7404.47 0
4843.34 -7066.44 0
4246.46 -7336.74 0
4080.31 -7619.01 0
4081.1 -7749.27 0
4113.33 -7802.39 0
4843.34 -7066.44 0
4845.4 -6953.9 0
4388.03 -6738.64 0
4140.59 -7005.68 0
4246.46 -7336.74 0
9696.5 -10464.9 0
9548.39 -10325.9 0
9346.93 -10444.3 0
9370.9 -10646.5 0
9576.55 -10692.9 0
9548.39 -10325.9 0
9578.05 -10007.8 0
9036.87 -9929.12 0
8827.82 -10182.1 0
8913.93 -10327.6 0
9346.93 -10444.3 0
9911.21 -9767.19 0
9234.7 -9292.19 0
9039.43 -9442.05 0
9036.87 -9929.12 0
9578.05 -10007.8 0
9397.65 -8780.09 0
9234.7 -9292.19 0
9911.21 -9767.19 0
9942.02 -9763.81 0
9998.14 -9733.12 0
10079.1 -9387.5 0
9631.8 -8700.97 0
9671.32 -8659.41 0
9631.8 -8700.97 0
10079.1 -9387.5 0
10224.2 -9292.22 0
10395.3 -9048.58 0
10265.3 -8687.72 0
10036.3 -8495.94 0
9604.24 -17586 0
9286.48 -17566.1 0
9132.2 -17940.5 0
9179.27 -18049.1 0
9207.46 -18070.1 0
9613.3 -18034.4 0
9648.76 -17775.2 0
3834.28 -12318.8 0
3512.33 -12303.6 0
3382.98 -12854.1 0
3463.78 -13443.4 0
3571.44 -13531.3 0
4007.99 -13029 0
4039.22 -9246.95 0
4201.61 -9603.47 0
4460.02 -9485.78 0
4490.02 -9439.39 0
4120.55 -9069.25 0
3986.17 -9130.46 0
3760.93 -8556.47 0
3907.85 -8583.13 0
4105.49 -8535.33 0
4232.7 -8201.18 0
4110.16 -7888.18 0
3682.07 -8288.53 0
9132.2 -17940.5 0
8527.36 -17711.2 0
8520.54 -18163.9 0
8597.74 -18355.6 0
8758.26 -18396.4 0
9179.27 -18049.1 0
3986.17 -9130.46 0
4120.55 -9069.25 0
3933.11 -9013.97 0
4111.14 -8935.62 0
3916.46 -8880.91 0
3880.06 -8897.49 0
1904.03 -9091.12 0
1300.4 -8802 0
1226.07 -8846.08 0
1111.31 -8991.4 0
1029.19 -9599.15 0
1040.54 -9628.58 0
1500.29 -9681.52 0
1920.86 -9132.1 0
3667.01 -9983.73 0
3575.25 -10547.9 0
3780.5 -10785.4 0
4258.18 -10669 0
4303.33 -10429.3 0
4203.31 -10171.1 0
3913.84 -9851.82 0
5276.58 -9758.05 0
4949.19 -9197.85 0
4876.44 -9167.08 0
4490.02 -9439.39 0
4460.02 -9485.78 0
4624.69 -9910.95 0
4818.74 -10124.9 0
5074.06 -10201.8 0
1904.03 -9091.12 0
1908.81 -8666.47 0
1677.87 -8515.28 0
1495.24 -8554.97 0
1337.06 -8697.04 0
1300.4 -8802 0
1294.19 -2429.53 0
1330.32 -2400.57 0
936.379 -1983.06 0
1411.83 -1910.42 0
1069.9 -1547.98 0
776.284 -1783.29 0
9696.5 -10464.9 0
10029.4 -10537.5 0
9942.02 -9763.81 0
9911.21 -9767.19 0
9578.05 -10007.8 0
9548.39 -10325.9 0
9576.55 -10692.9 0
9370.9 -10646.5 0
9284.33 -10784.1 0
9455.81 -11200.9 0
9716.28 -11032.6 0
9284.33 -10784.1 0
9370.9 -10646.5 0
9346.93 -10444.3 0
8913.93 -10327.6 0
8928.79 -10701.4 0
10953.9 -9102.6 0
10788.1 -9446.03 0
10743.3 -9986.46 0
11329.1 -9988.75 0
11620.6 -9409.9 0
11120.9 -9041.09 0
11882.2 -9344.59 0
12214.4 -9886.49 0
12404.2 -9877.79 0
12551.1 -9787.14 0
12640.5 -9606.5 0
12629.6 -9439.37 0
12134.6 -9042.83 0
9902 -18704 0
10341 -18824 0
10391 -18641 0
10049.7 -18252.9 0
9592.13 -18619.3 0
9604.24 -17586 0
9743.15 -17505.6 0
9780.69 -17170.4 0
9509.04 -16818 0
9147.43 -17054.7 0
9286.48 -17566.1 0
4240.99 -8753.08 0
4111.14 -8935.62 0
4120.55 -9069.25 0
4490.02 -9439.39 0
4876.44 -9167.08 0
4790.48 -8839.77 0
491.221 -1355.61 0
456.095 -1383.76 0
616.189 -1583.53 0
776.284 -1783.29 0
1069.9 -1547.98 0
1026.02 -1274.15 0
953.209 -1249.3 0
10478.8 -11621.4 0
10478.9 -11621.2 0
10052.8 -10962 0
9716.28 -11032.6 0
9455.81 -11200.9 0
9385.75 -11310.1 0
9613.77 -11795.8 0
10136.8 -11901.5 0
9207.46 -18070.1 0
9352.24 -18553.7 0
9592.13 -18619.3 0
10049.7 -18252.9 0
10041.5 -18195.3 0
9613.3 -18034.4 0
2448.32 -18002.7 0
2499 -18279 0
3006 -18186 0
3504.55 -18094.6 0
2999.66 -17739.8 0
4776.13 -6197.04 0
4756.35 -6170.48 0
4385.44 -6181.99 0
4254.25 -6502.82 0
4388.03 -6738.64 0
4845.4 -6953.9 0
4847.97 -6949.61 0
11329.1 -9988.75 0
11681.8 -10474.3 0
12104.1 -10110.1 0
12214.4 -9886.49 0
11882.2 -9344.59 0
11620.6 -9409.9 0
6314.93 -11453.6 0
7048.1 -11516.7 0
7310.39 -11110 0
7135.36 -10705.8 0
6738.61 -10659.2 0
6400.7 -10745.5 0
6182.54 -11315.5 0
6400.7 -10745.5 0
6161.19 -10447.2 0
5944.35 -10321 0
5410.4 -10577.9 0
5496.78 -11141.6 0
5777.82 -11346.1 0
6182.54 -11315.5 0
8788.16 -10960.8 0
8928.79 -10701.4 0
8913.93 -10327.6 0
8827.82 -10182.1 0
8577.29 -10169.1 0
8155.67 -10601.5 0
8176.54 -10827.8 0
3539.21 -17125.7 0
3584.32 -16559.7 0
3341.33 -16339.2 0
2688.07 -16668.5 0
2681.53 -16799.4 0
2836.7 -17098.7 0
3081.4 -17295.1 0
6320.77 -4620 0
5803.07 -5309.06 0
6073.01 -5562.04 0
7076.91 -5241.13 0
7079.54 -5197.66 0
6365.37 -4611.03 0
3675.81 -11240.8 0
3360.95 -11375.4 0
3218.4 -12155.4 0
3229.97 -12179.4 0
3512.33 -12303.6 0
3834.28 -12318.8 0
3963.64 -12227.4 0
4019.81 -11528.5 0
3141.68 -14852.6 0
2996.51 -14136.5 0
2788 -14063.9 0
2655 -14445.5 0
2497.7 -14896.8 0
9147.43 -17054.7 0
9099.46 -17052.4 0
8396.27 -17559.2 0
8527.36 -17711.2 0
9132.2 -17940.5 0
9286.48 -17566.1 0
3341.33 -16339.2 0
3311.72 -16043.6 0
2958.68 -15736.6 0
2567.06 -15782.1 0
2436.45 -16187.4 0
2524 -16505.4 0
2688.07 -16668.5 0
4790.48 -8839.77 0
4876.44 -9167.08 0
4949.19 -9197.85 0
5699.71 -8966.26 0
5819.77 -8712.57 0
5583.38 -8275.45 0
5080.45 -8257.59 0
4854.79 -8510.14 0
7995.76 -14819.3 0
7853.65 -14972.4 0
7814.45 -15702.5 0
8430.32 -15760.4 0
8648.51 -15420.7 0
8513.32 -14995.5 0
7542.31 -7035.86 0
8414.19 -6943.5 0
8335.15 -6278.08 0
8106.83 -6149.95 0
7520.94 -6390.82 0
7415.9 -6607.2 0
8828.41 -6051.99 0
9311.11 -6520.9 0
9326.4 -6522.53 0
9578.9 -6445.29 0
9683.94 -5486.8 0
9470.99 -5393.87 0
8874.52 -5647.76 0
9966.04 -6977.15 0
10415.5 -7164.41 0
10579 -6982.96 0
10518.7 -6338.6 0
10433.6 -6255.17 0
9693.92 -6488.2 0
17151.9 -3960.96 0
17152 -3926.9 0
16640 -3925.79 0
16224 -3924.9 0
16223.6 -4100.05 0
16864.7 -4527.72 0
1512 -1440 0
1026.02 -1274.15 0
1069.9 -1547.98 0
1411.83 -1910.42 0
2010.29 -1628.75 0
2016 -1612 0
4770.58 -4205.02 0
4888.75 -3598.46 0
4531.14 -3294.5 0
4012.25 -3451.7 0
3919.41 -3932.55 0
4233.65 -4201.34 0
8462.1 -8790.33 0
8391.15 -9272.09 0
9039.43 -9442.05 0
9234.7 -9292.19 0
9397.65 -8780.09 0
8873.74 -8497.25 0
8869.51 -8496.81 0
10813.6 -5559.44 0
11176.1 -5745.96 0
11580.6 -5655.85 0
11669.3 -5214.77 0
11330.6 -4938.63 0
10790 -5200.18 0
8176.54 -10827.8 0
8155.67 -10601.5 0
7561.95 -10182.9 0
7450.97 -10195.6 0
7135.36 -10705.8 0
7310.39 -11110 0
7948.28 -11226.5 0
6556.87 -6276.75 0
6650.8 -6446.44 0
7415.9 -6607.2 0
7520.94 -6390.82 0
7237.35 -5515.99 0
7170.12 -5462.05 0
16899.4 -13215.7 0
17255.6 -12863.7 0
16585.8 -12852.2 0
16442.5 -12999.7 0
16570.2 -13541.1 0
4568.65 -10886.6 0
4258.18 -10669 0
3780.5 -10785.4 0
3675.81 -11240.8 0
4019.81 -11528.5 0
4683.03 -11353.3 0
8667.96 -16173 0
8511.17 -16534.8 0
9099.46 -17052.4 0
9147.43 -17054.7 0
9509.04 -16818 0
9631.03 -16543.7 0
9304.66 -16109.5 0
17627.7 -12495.8 0
17991.9 -12135.9 0
17830 -11972.1 0
17665.1 -11947.1 0
17268.2 -12219.3 0
17271.5 -12847.9 0
2810.15 -9744.73 0
2739.07 -9724.08 0
2021.61 -10164 0
2327.23 -10703.8 0
2867.47 -10697.1 0
2978.15 -10558.7 0
3081.4 -17295.1 0
2999.66 -17739.8 0
3504.55 -18094.6 0
3521.45 -18091.4 0
3762.91 -17735.1 0
3832.81 -17363 0
3539.21 -17125.7 0
5074.06 -10201.8 0
5157.86 -10417.4 0
5410.4 -10577.9 0
5944.35 -10321 0
5903.12 -9714.78 0
5276.58 -9758.05 0
5143.13 -16118.4 0
5282.26 -15951.4 0
5164.5 -15296.8 0
4507.02 -15083.8 0
4360.23 -15967.4 0
3463.78 -13443.4 0
3054 -13300.6 0
2921 -13682.2 0
2788 -14063.9 0
2996.51 -14136.5 0
3592.11 -13634.8 0
3571.44 -13531.3 0
15477.2 -4367.54 0
15094.5 -4979.62 0
15209.3 -5332.32 0
15856 -5498.73 0
16039.6 -5012.88 0
15723.1 -4430.84 0
11669.3 -5214.77 0
11580.6 -5655.85 0
11896.7 -6000.16 0
12411.8 -5786.61 0
12472.4 -5305.83 0
12124.5 -5021.6 0
4451.53 -12257.3 0
4739.98 -12674.4 0
5341.14 -12651.3 0
5504.01 -12275.7 0
5457.48 -12145.9 0
4831.52 -11802.9 0
3780.5 -10785.4 0
3575.25 -10547.9 0
2978.15 -10558.7 0
2867.47 -10697.1 0
2975.46 -11205.1 0
3360.95 -11375.4 0
3675.81 -11240.8 0
3584.32 -16559.7 0
4116.97 -16464.7 0
4316.05 -15991.1 0
3752.93 -15703.3 0
3311.72 -16043.6 0
3341.33 -16339.2 0
2958.68 -15736.6 0
3206.34 -14935.9 0
3190.89 -14886.7 0
3141.68 -14852.6 0
2497.7 -14896.8 0
2280.3 -15520.7 0
2567.06 -15782.1 0
12124.5 -5021.6 0
12472.4 -5305.83 0
13166.9 -5060.73 0
13214.1 -4919.72 0
12809.8 -4418.07 0
12158.2 -4617.93 0
4831.52 -11802.9 0
4744.9 -11399.1 0
4683.03 -11353.3 0
4019.81 -11528.5 0
3963.64 -12227.4 0
4451.53 -12257.3 0
16894.4 -4716.52 0
16864.7 -4527.72 0
16223.6 -4100.05 0
15723.1 -4430.84 0
16039.6 -5012.88 0
5080.45 -8257.59 0
5583.38 -8275.45 0
5758.25 -7982.27 0
5664.82 -7450.49 0
5607.56 -7411.62 0
5052.38 -7404.47 0
4889.55 -7783.55 0
10120 -14462 0
10158.5 -14862 0
10532.5 -14826 0
10537.5 -14820.8 0
10546.9 -14795.4 0
10331.7 -14037.9 0
10081.5 -14062 0
13852.1 -5835.59 0
14243.2 -5561.41 0
14229.2 -5159.4 0
13652.3 -4681.66 0
13214.1 -4919.72 0
13166.9 -5060.73 0
13420 -5672.34 0
5675.17 -4242.18 0
5416.65 -4417.04 0
5562.35 -5277.52 0
5803.07 -5309.06 0
6320.77 -4620 0
6365.37 -4611.03 0
7079.54 -5197.66 0
7444.05 -4726.26 0
7448.11 -4658.83 0
7097.63 -4096.63 0
6628.37 -4113.37 0
8363.03 -5062.61 0
7444.05 -4726.26 0
7079.54 -5197.66 0
7076.91 -5241.13 0
7170.12 -5462.05 0
7237.35 -5515.99 0
8047.99 -5593.24 0
8373.13 -5264.73 0
5356.18 -3425.59 0
4888.75 -3598.46 0
4770.58 -4205.02 0
4871.02 -4330.87 0
5416.65 -4417.04 0
5675.17 -4242.18 0
5775.82 -3792.41 0
4531.14 -3294.5 0
4592.29 -2835.16 0
4131.71 -2526.84 0
3756.15 -2743.55 0
3708.73 -3144.3 0
4012.25 -3451.7 0
3042.1 -2463.51 0
2624.68 -2214.04 0
2322.02 -2237.71 0
2078.17 -2587.98 0
2221.95 -3197.33 0
2828 -3149.92 0
7561.95 -10182.9 0
8155.67 -10601.5 0
8577.29 -10169.1 0
8133.6 -9542.01 0
6522.18 -6261.13 0
6556.87 -6276.75 0
7170.12 -5462.05 0
7076.91 -5241.13 0
6073.01 -5562.04 0
6079.42 -5603.8 0
15644 -10914 0
15107 -10789.5 0
15046.6 -11050.1 0
15597.7 -11476.5 0
16121.9 -11293.5 0
16181 -11038.5 0
1500.29 -9681.52 0
1860.76 -10132.5 0
2021.61 -10164 0
2739.07 -9724.08 0
2426.73 -9202.39 0
1920.86 -9132.1 0
5699.71 -8966.26 0
4949.19 -9197.85 0
5276.58 -9758.05 0
5903.12 -9714.78 0
5970.54 -9629.88 0
5504.01 -12275.7 0
6345.89 -12323.8 0
6352.53 -12317.2 0
6314.93 -11453.6 0
6182.54 -11315.5 0
5777.82 -11346.1 0
5457.48 -12145.9 0
3008.91 -9681.44 0
2810.15 -9744.73 0
2978.15 -10558.7 0
3575.25 -10547.9 0
3667.01 -9983.73 0
2867.47 -10697.1 0
2327.23 -10703.8 0
2142.99 -11075.4 0
2477.74 -11545.9 0
2975.46 -11205.1 0
2142.99 -11075.4 0
2327.23 -10703.8 0
2021.61 -10164 0
1860.76 -10132.5 0
1490.95 -10618.6 0
1781.05 -11121.4 0
3539.21 -17125.7 0
3832.81 -17363 0
4250.41 -17281.6 0
4421.29 -16837 0
4116.97 -16464.7 0
3584.32 -16559.7 0
5131.29 -16728.5 0
4421.29 -16837 0
4250.41 -17281.6 0
4631.2 -17688.7 0
4852.8 -17671.3 0
5201.03 -17156.7 0
5156.58 -16761.3 0
5156.58 -16761.3 0
6234.4 -16754.7 0
6315.67 -16590.2 0
5765.93 -15949.8 0
5282.26 -15951.4 0
5143.13 -16118.4 0
5131.29 -16728.5 0
4360.23 -15967.4 0
4316.05 -15991.1 0
4116.97 -16464.7 0
4421.29 -16837 0
5131.29 -16728.5 0
5143.13 -16118.4 0
4447.45 -15013.7 0
4418.74 -14847 0
3846.08 -14504.9 0
3190.89 -14886.7 0
3206.34 -14935.9 0
3753.89 -15363.2 0
11186.1 -14371.5 0
11190 -14259.6 0
10597.1 -13744.4 0
10331.7 -14037.9 0
10546.9 -14795.4 0
14243.2 -5561.41 0
14782 -5732.21 0
15209.3 -5332.32 0
15094.5 -4979.62 0
14619 -4788.29 0
14229.2 -5159.4 0
4012.25 -3451.7 0
3708.73 -3144.3 0
3076.95 -3349.46 0
3135.73 -3981.88 0
3354.4 -4124.89 0
3919.41 -3932.55 0
8391.15 -9272.09 0
8137.81 -9485.16 0
8133.6 -9542.01 0
8577.29 -10169.1 0
8827.82 -10182.1 0
9036.87 -9929.12 0
9039.43 -9442.05 0
16181 -11038.5 0
16121.9 -11293.5 0
16718 -11163 0
16552.3 -11729.3 0
17216.3 -11278.5 0
4507.02 -15083.8 0
4447.45 -15013.7 0
3753.89 -15363.2 0
3752.93 -15703.3 0
4316.05 -15991.1 0
4360.23 -15967.4 0
14545.6 -4452.25 0
14619 -4788.29 0
15094.5 -4979.62 0
15477.2 -4367.54 0
15199.3 -3980.79 0
14971.7 -4002.03 0
13857.7 -4216.24 0
13652.3 -4681.66 0
14229.2 -5159.4 0
14619 -4788.29 0
14545.6 -4452.25 0
2995.86 -1972.95 0
2757.93 -1878.48 0
2624.68 -2214.04 0
3042.1 -2463.51 0
3271.09 -2384.99 0
3374.93 -2123.48 0
16576.5 -11998.7 0
16530.3 -12068.8 0
16585.8 -12852.2 0
17255.6 -12863.7 0
17271.5 -12847.9 0
17268.2 -12219.3 0
10743.3 -9986.46 0
10727.8 -9996.35 0
10612.4 -10476.9 0
11095.1 -11050.2 0
11684 -10537.1 0
11681.8 -10474.3 0
11329.1 -9988.75 0
10612.4 -10476.9 0
10150.7 -10671.9 0
10052.8 -10962 0
10478.9 -11621.2 0
11085.7 -11107.5 0
11095.1 -11050.2 0
9259.08 -12121.1 0
9366.13 -12721.6 0
10002.7 -12812.9 0
10137.3 -12696.1 0
10136.8 -11901.5 0
9613.77 -11795.8 0
8710.03 -11973.4 0
9259.08 -12121.1 0
9613.77 -11795.8 0
9385.75 -11310.1 0
8944.33 -11301.3 0
8588.19 -11732 0
7814.79 -12437.2 0
7219.14 -12706.7 0
7147.37 -13001.9 0
7545.06 -13386.5 0
8095.76 -12964.6 0
8136.83 -12703.5 0
8136.83 -12703.5 0
8473.26 -12582.6 0
8710.03 -11973.4 0
8588.19 -11732 0
8099.93 -11592.4 0
7760.25 -12042.2 0
7814.79 -12437.2 0
8099.93 -11592.4 0
7948.28 -11226.5 0
7310.39 -11110 0
7048.1 -11516.7 0
7154.52 -11859.8 0
7760.25 -12042.2 0
8095.76 -12964.6 0
8534.89 -13599.4 0
9004.89 -13425 0
9087.06 -12928.1 0
8473.26 -12582.6 0
8136.83 -12703.5 0
9259.08 -12121.1 0
8710.03 -11973.4 0
8473.26 -12582.6 0
9087.06 -12928.1 0
9366.13 -12721.6 0
7553.34 -13711.5 0
7405.38 -13906.6 0
7435.8 -14131.4 0
7992.05 -14594.3 0
8420.29 -14091 0
8388.71 -13842.9 0
9511.62 -13837.5 0
9004.89 -13425 0
8534.89 -13599.4 0
8388.71 -13842.9 0
8420.29 -14091 0
9015.77 -14509.4 0
9501.38 -14162.5 0
7545.06 -13386.5 0
7553.34 -13711.5 0
8388.71 -13842.9 0
8534.89 -13599.4 0
8095.76 -12964.6 0
8420.29 -14091 0
7992.05 -14594.3 0
7995.76 -14819.3 0
8513.32 -14995.5 0
9003.39 -14575.7 0
9015.77 -14509.4 0
8488.74 -4867.41 0
8363.03 -5062.61 0
8373.13 -5264.73 0
8874.52 -5647.76 0
9470.99 -5393.87 0
9198.72 -4637.38 0
8373.13 -5264.73 0
8047.99 -5593.24 0
8106.83 -6149.95 0
8335.15 -6278.08 0
8828.41 -6051.99 0
8874.52 -5647.76 0
9311.11 -6520.9 0
8828.41 -6051.99 0
8335.15 -6278.08 0
8414.19 -6943.5 0
8530.38 -7026.69 0
8633.49 -7008.84 0
8047.99 -5593.24 0
7237.35 -5515.99 0
7520.94 -6390.82 0
8106.83 -6149.95 0
9790.77 -5462.52 0
9683.94 -5486.8 0
9578.9 -6445.29 0
9693.92 -6488.2 0
10433.6 -6255.17 0
10436.3 -5866.77 0
2010.29 -1628.75 0
1411.83 -1910.42 0
1330.32 -2400.57 0
2078.17 -2587.98 0
2322.02 -2237.71 0
7527.33 -7073.29 0
7542.31 -7035.86 0
7415.9 -6607.2 0
6650.8 -6446.44 0
6402.4 -7121.57 0
6408.3 -7184.72 0
6424.1 -7201.38 0
6837.09 -7370.54 0
2996.51 -14136.5 0
3141.68 -14852.6 0
3190.89 -14886.7 0
3846.08 -14504.9 0
3831.13 -13854.8 0
3592.11 -13634.8 0
4697.16 -13466.5 0
4473.9 -13839.3 0
4758.06 -14326.9 0
5425.42 -14285.1 0
5545.87 -14069.6 0
5129.87 -13455.7 0
3846.08 -14504.9 0
4418.74 -14847 0
4758.06 -14326.9 0
4473.9 -13839.3 0
3831.13 -13854.8 0
4758.06 -14326.9 0
4418.74 -14847 0
4447.45 -15013.7 0
4507.02 -15083.8 0
5164.5 -15296.8 0
5604.12 -14873.6 0
5425.42 -14285.1 0
3571.44 -13531.3 0
3592.11 -13634.8 0
3831.13 -13854.8 0
4473.9 -13839.3 0
4697.16 -13466.5 0
4501.68 -13078.5 0
4007.99 -13029 0
5445.15 -12936.5 0
5341.14 -12651.3 0
4739.98 -12674.4 0
4501.68 -13078.5 0
4697.16 -13466.5 0
5129.87 -13455.7 0
4451.53 -12257.3 0
3963.64 -12227.4 0
3834.28 -12318.8 0
4007.99 -13029 0
4501.68 -13078.5 0
4739.98 -12674.4 0
6701.79 -13176.5 0
6344.85 -12939.9 0
5926.24 -13164.2 0
5944.22 -13885.3 0
6419.76 -14007.4 0
6667.09 -13803.9 0
5926.24 -13164.2 0
5445.15 -12936.5 0
5129.87 -13455.7 0
5545.87 -14069.6 0
5944.22 -13885.3 0
6344.85 -12939.9 0
6345.89 -12323.8 0
5504.01 -12275.7 0
5341.14 -12651.3 0
5445.15 -12936.5 0
5926.24 -13164.2 0
7219.14 -12706.7 0
6876.93 -12273.7 0
6352.53 -12317.2 0
6345.89 -12323.8 0
6344.85 -12939.9 0
6701.79 -13176.5 0
7147.37 -13001.9 0
7814.79 -12437.2 0
7760.25 -12042.2 0
7154.52 -11859.8 0
6876.93 -12273.7 0
7219.14 -12706.7 0
6204.09 -15432.4 0
6061.73 -15031.8 0
5604.12 -14873.6 0
5164.5 -15296.8 0
5282.26 -15951.4 0
5765.93 -15949.8 0
6630.85 -16420.1 0
6964.29 -16478.3 0
7622.48 -15860.5 0
7624.11 -15852.4 0
6988.57 -15458.4 0
6628.19 -15624.9 0
6061.73 -15031.8 0
6559.67 -14594.3 0
6419.76 -14007.4 0
5944.22 -13885.3 0
5545.87 -14069.6 0
5425.42 -14285.1 0
5604.12 -14873.6 0
6628.19 -15624.9 0
6204.09 -15432.4 0
5765.93 -15949.8 0
6315.67 -16590.2 0
6630.85 -16420.1 0
6988.57 -15458.4 0
7074.9 -14889.1 0
6997.94 -14760.8 0
6559.67 -14594.3 0
6061.73 -15031.8 0
6204.09 -15432.4 0
6628.19 -15624.9 0
7624.11 -15852.4 0
7814.45 -15702.5 0
7853.65 -14972.4 0
7074.9 -14889.1 0
6988.57 -15458.4 0
6419.76 -14007.4 0
6559.67 -14594.3 0
6997.94 -14760.8 0
7435.8 -14131.4 0
7405.38 -13906.6 0
6667.09 -13803.9 0
7435.8 -14131.4 0
6997.94 -14760.8 0
7074.9 -14889.1 0
7853.65 -14972.4 0
7995.76 -14819.3 0
7992.05 -14594.3 0
12472.4 -5305.83 0
12411.8 -5786.61 0
12864.3 -6147.85 0
13420 -5672.34 0
13166.9 -5060.73 0
7956.99 -4179.48 0
7448.11 -4658.83 0
7444.05 -4726.26 0
8363.03 -5062.61 0
8488.74 -4867.41 0
8289.01 -4263.52 0
5457.48 -12145.9 0
5777.82 -11346.1 0
5496.78 -11141.6 0
4744.9 -11399.1 0
4831.52 -11802.9 0
3218.4 -12155.4 0
3360.95 -11375.4 0
2975.46 -11205.1 0
2477.74 -11545.9 0
2447.64 -11742.7 0
2958.68 -15736.6 0
3311.72 -16043.6 0
3752.93 -15703.3 0
3753.89 -15363.2 0
3206.34 -14935.9 0
11151 -11712 0
11422 -11424.5 0
11085.7 -11107.5 0
10478.9 -11621.2 0
10478.8 -11621.4 0
10880 -11999.5 0
6352.53 -12317.2 0
6876.93 -12273.7 0
7154.52 -11859.8 0
7048.1 -11516.7 0
6314.93 -11453.6 0
7147.37 -13001.9 0
6701.79 -13176.5 0
6667.09 -13803.9 0
7405.38 -13906.6 0
7553.34 -13711.5 0
7545.06 -13386.5 0
12322 -14118 0
12597 -13669 0
12413.5 -13556.6 0
11862.4 -13814 0
12072.7 -14525 0
11862.4 -13814 0
11704 -13771.5 0
11190 -14259.6 0
11186.1 -14371.5 0
11490.2 -14707.9 0
12021.3 -14609 0
12072.7 -14525 0
10945.2 -11680.1 0
11423.5 -12471 0
11295 -13107.3 0
11733.7 -12831 0
11814.6 -12291.8 0
12413.5 -13556.6 0
12387.8 -13032 0
11733.7 -12831 0
11295 -13107.3 0
11282.5 -13168.7 0
11704 -13771.5 0
11862.4 -13814 0
7542.31 -7035.86 0
7527.33 -7073.29 0
7689.3 -7621.89 0
8160.65 -7875.37 0
8455.68 -7792.09 0
8530.38 -7026.69 0
8414.19 -6943.5 0
8430.32 -15760.4 0
8667.96 -16173 0
9304.66 -16109.5 0
9403.3 -15696.9 0
9188.69 -15403.5 0
8648.51 -15420.7 0
9188.69 -15403.5 0
9271.44 -15074.5 0
9003.39 -14575.7 0
8513.32 -14995.5 0
8648.51 -15420.7 0
6174 -17836 0
6585 -17938 0
6680.19 -17554.4 0
6273.28 -17243 0
5811.98 -17536.6 0
5763 -17734 0
5811.98 -17536.6 0
6273.28 -17243 0
6234.4 -16754.7 0
5156.58 -16761.3 0
5201.03 -17156.7 0
6680.19 -17554.4 0
6837.75 -17527.9 0
7317.61 -16940.8 0
6964.29 -16478.3 0
6630.85 -16420.1 0
6315.67 -16590.2 0
6234.4 -16754.7 0
6273.28 -17243 0
8260.67 -16661.1 0
7943.01 -16583.1 0
7467.59 -16961.3 0
7931.78 -17641.5 0
8279.02 -17528.2 0
7814.45 -15702.5 0
7624.11 -15852.4 0
7622.48 -15860.5 0
7943.01 -16583.1 0
8260.67 -16661.1 0
8511.17 -16534.8 0
8667.96 -16173 0
8430.32 -15760.4 0
8511.17 -16534.8 0
8260.67 -16661.1 0
8279.02 -17528.2 0
8396.27 -17559.2 0
9099.46 -17052.4 0
7622.48 -15860.5 0
6964.29 -16478.3 0
7317.61 -16940.8 0
7467.59 -16961.3 0
7943.01 -16583.1 0
7467.59 -16961.3 0
7317.61 -16940.8 0
6837.75 -17527.9 0
7650.86 -18028.9 0
7931.78 -17641.5 0
2828 -3149.92 0
3076.95 -3349.46 0
3708.73 -3144.3 0
3756.15 -2743.55 0
3271.09 -2384.99 0
3042.1 -2463.51 0
14790.4 -13199.5 0
14722 -13163.1 0
14101.2 -13318.3 0
14022.5 -13574 0
14406 -13692 0
14863 -13832.6 0
16552.3 -11729.3 0
16576.5 -11998.7 0
17268.2 -12219.3 0
17665.1 -11947.1 0
17293.7 -11296.5 0
17216.3 -11278.5 0
15597.7 -11476.5 0
15428 -12168.6 0
15526 -12305.2 0
15685 -12362.2 0
16530.3 -12068.8 0
16576.5 -11998.7 0
16552.3 -11729.3 0
16121.9 -11293.5 0
15685 -12362.2 0
16054.4 -12961.5 0
16442.5 -12999.7 0
16585.8 -12852.2 0
16530.3 -12068.8 0
12279.1 -11621.3 0
12172.4 -12149.2 0
12758.3 -12607.3 0
12762.3 -12606.3 0
13147.1 -12119.2 0
12760.7 -11583.1 0
12387.8 -13032 0
12758.3 -12607.3 0
12172.4 -12149.2 0
11814.6 -12291.8 0
11733.7 -12831 0
12880.2 -10644.2 0
12121.9 -10881.2 0
12086.5 -11431.6 0
12279.1 -11621.3 0
12760.7 -11583.1 0
13095.6 -10917.5 0
16570.2 -13541.1 0
16442.5 -12999.7 0
16054.4 -12961.5 0
15674.9 -13370.5 0
15752.6 -13710.4 0
16269.2 -13838.6 0
15428 -12168.6 0
15003.7 -12132.3 0
14534.6 -12545.4 0
14722 -13163.1 0
14790.4 -13199.5 0
15132.4 -13098.2 0
15526 -12305.2 0
15674.9 -13370.5 0
15132.4 -13098.2 0
14790.4 -13199.5 0
14863 -13832.6 0
15483 -14023.4 0
15752.6 -13710.4 0
15132.4 -13098.2 0
15674.9 -13370.5 0
16054.4 -12961.5 0
15685 -12362.2 0
15526 -12305.2 0
14586.5 -11278.3 0
14496.6 -11502.6 0
15003.7 -12132.3 0
15428 -12168.6 0
15597.7 -11476.5 0
15046.6 -11050.1 0
14033 -10540.5 0
14005 -10661.5 0
14570 -10665 0
14586.5 -11278.3 0
15046.6 -11050.1 0
15107 -10789.5 0
13846.3 -12513.9 0
14163.7 -12379.2 0
14223.7 -11677.9 0
13688.3 -11594.8 0
13297.7 -12097.2 0
13095.6 -10917.5 0
12760.7 -11583.1 0
13147.1 -12119.2 0
13297.7 -12097.2 0
13688.3 -11594.8 0
13434.3 -10999.2 0
14005 -10661.5 0
13434.3 -10999.2 0
13688.3 -11594.8 0
14223.7 -11677.9 0
14496.6 -11502.6 0
14586.5 -11278.3 0
15003.7 -12132.3 0
14496.6 -11502.6 0
14223.7 -11677.9 0
14163.7 -12379.2 0
14534.6 -12545.4 0
14022.5 -13574 0
14101.2 -13318.3 0
13639 -13456 0
13731.2 -12982.1 0
13325.8 -13109.5 0
13255.5 -13338 0
13731.2 -12982.1 0
13846.3 -12513.9 0
13297.7 -12097.2 0
13147.1 -12119.2 0
12762.3 -12606.3 0
13325.8 -13109.5 0
14534.6 -12545.4 0
14163.7 -12379.2 0
13846.3 -12513.9 0
13731.2 -12982.1 0
14101.2 -13318.3 0
14722 -13163.1 0
10945.2 -11680.1 0
11814.6 -12291.8 0
12172.4 -12149.2 0
12279.1 -11621.3 0
12086.5 -11431.6 0
4 0 1 2 3
5 4 5 6 7 8
6 9 10 11 12 13 14
8 15 16 17 18 19 20 21 22
5 23 24 25 26 27
6 28 29 30 31 32 33
5 34 35 36 37 38
5 39 40 41 42 43
5 44 45 46 47 48
6 49 50 51 52 53 54
6 55 56 57 58 59 60
6 61 62 63 64 65 66
5 67 68 69 70 71
5 72 73 74 75 76
4 77 78 79 80
7 81 82 83 84 85 86 87
4 88 89 90 91
8 92 93 94 95 96 97 98 99
4 100 101 102 103
7 104 105 106 107 108 109 110
4 111 112 113 114
7 115 116 117 118 119 120 121
4 122 123 124 125
6 126 127 128 129 130 131
7 132 133 134 135 136 137 138
7 139 140 141 142 143 144 145
6 146 147 148 149 150 151
7 152 153 154 155 156 157 158
6 159 160 161 162 163 164
6 165 166 167 168 169 170
5 171 172 173 174 175
6 176 177 178 179 180 181
5 182 183 184 185 186
5 187 188 189 190 191
6 192 193 194 195 196 197
7 198 199 200 201 202 203 204
6 205 206 207 208 209 210
5 211 212 213 214 215
6 216 217 218 219 220 221
6 222 223 224 225 226 227
4 228 229 230 231
4 232 233 234 235
6 236 237 238 239 240 241
5 242 243 244 245 246
5 247 248 249 250 251
6 252 253 254 255 256 257
4 258 259 260 261
5 262 263 264 265 266
7 267 268 269 270 271 272 273
6 274 275 276 277 278 279
5 280 281 282 283 284
6 285 286 287 288 289 290
5 291 292 293 294 295
6 296 297 298 299 300 301
4 302 303 304 305
6 306 307 308 309 310 311
6 312 313 314 315 316 317
6 318 319 320 321 322 323
6 324 325 326 327 328 329
6 330 331 332 333 334 335
6 336 337 338 339 340 341
6 342 343 344 345 346 347
8 348 349 350 351 352 353 354 355
5 356 357 358 359 360
6 361 362 363 364 365 366
6 367 368 369 370 371 372
7 373 374 375 376 377 378 379
5 380 381 382 383 384
6 385 386 387 388 389 390
7 391 392 393 394 395 396 397
4 398 399 400 401
6 402 403 404 405 406 407
1 408
6 409 410 411 412 413 414
4 415 416 417 418
7 419 420 421 422 423 424 425
4 426 427 428 429
7 430 431 432 433 434 435 436
4 437 438 439 440
7 441 442 443 444 445 446 447
8 448 449 450 451 452 453 454 455
7 456 457 458 459 460 461 462
5 463 464 465 466 467
4 468 469 470 471
4 472 473 474 475
8 476 477 478 479 480 481 482 483
4 484 485 486 487
7 488 489 490 491 492 493 494
6 495 496 497 498 499 500
5 501 502 503 504 505
8 506 507 508 509 510 511 512 513
6 514 515 516 517 518 519
5 520 521 522 523 524
6 525 526 527 528 529 530
6 531 532 533 534 535 536
7 537 538 539 540 541 542 543
6 544 545 546 547 548 549
4 550 551 552 553
5 554 555 556 557 558
6 559 560 561 562 563 564
5 565 566 567 568 569
4 570 571 572 573
9 574 575 576 577 578 579 580 581 582
6 583 584 585 586 587 588
5 589 590 591 592 593
6 594 595 596 597 598 599
3 600 601 602
6 603 604 605 606 607 608
6 609 610 611 612 613 614
7 615 616 617 618 619 620 621
6 622 623 624 625 626 627
6 628 629 630 631 632 633
5 634 635 636 637 638
8 639 640 641 642 643 644 645 646
6 647 648 649 650 651 652
5 653 654 655 656 657
7 658 659 660 661 662 663 664
6 665 666 667 668 669 670
7 671 672 673 674 675 676 677
6 678 679 680 681 682 683
6 684 685 686 687 688 689
7 690 691 692 693 694 695 696
5 697 698 699 700 701
6 702 703 704 705 706 707
5 708 709 710 711 712
8 713 714 715 716 717 718 719 720
6 721 722 723 724 725 726
7 727 728 729 730 731 732 733
6 734 735 736 737 738 739
8 740 741 742 743 744 745 746 747
5 748 749 750 751 752
7 753 754 755 756 757 758 759
9 760 761 762 763 764 765 766 767 768
5 769 770 771 772 773
7 774 775 776 777 778 779 780
7 781 782 783 784 785 786 787
7 788 789 790 791 792 793 794
6 795 796 797 798 799 800
7 801 802 803 804 805 806 807
7 808 809 810 811 812 813 814
6 815 816 817 818 819 820
6 821 822 823 824 825 826
7 827 828 829 830 831 832 833
6 834 835 836 837 838 839
4 840 841 842 843
5 844 845 846 847 848
4 849 850 851 852
5 853 854 855 856 857
5 858 859 860 861 862
4 863 864 865 866
5 867 868 869 870 871
4 872 873 874 875
6 876 877 878 879 880 881
6 882 883 884 885 886 887
4 888 889 890 891
6 892 893 894 895 896 897
6 898 899 900 901 902 903
6 904 905 906 907 908 909
6 910 911 912 913 914 915
6 916 917 918 919 920 921
5 922 923 924 925 926
5 927 928 929 930 931
6 932 933 934 935 936 937
7 938 939 940 941 942 943 944
5 945 946 947 948 949
5 950 951 952 953 954
6 955 956 957 958 959 960
5 961 962 963 964 965
7 966 967 968 969 970 971 972
7 973 974 975 976 977 978 979
7 980 981 982 983 984 985 986
6 987 988 989 990 991 992
6 993 994 995 996 997 998
6 999 1000 1001 1002 1003 1004
6 1005 1006 1007 1008 1009 1010
6 1011 1012 1013 1014 1015 1016
8 1017 1018 1019 1020 1021 1022 1023 1024
7 1025 1026 1027 1028 1029 1030 1031
8 1032 1033 1034 1035 1036 1037 1038 1039
6 1040 1041 1042 1043 1044 1045
6 1046 1047 1048 1049 1050 1051
6 1052 1053 1054 1055 1056 1057
5 1058 1059 1060 1061 1062
5 1063 1064 1065 1066 1067
6 1068 1069 1070 1071 1072 1073
7 1074 1075 1076 1077 1078 1079 1080
5 1081 1082 1083 1084 1085
6 1086 1087 1088 1089 1090 1091
6 1092 1093 1094 1095 1096 1097
7 1098 1099 1100 1101 1102 1103 1104
8 1105 1106 1107 1108 1109 1110 1111 1112
6 1113 1114 1115 1116 1117 1118
5 1119 1120 1121 1122 1123
7 1124 1125 1126 1127 1128 1129 1130
6 1131 1132 1133 1134 1135 1136
7 1137 1138 1139 1140 1141 1142 1143
7 1144 1145 1146 1147 1148 1149 1150
7 1151 1152 1153 1154 1155 1156 1157
7 1158 1159 1160 1161 1162 1163 1164
6 1165 1166 1167 1168 1169 1170
8 1171 1172 1173 1174 1175 1176 1177 1178
5 1179 1180 1181 1182 1183
6 1184 1185 1186 1187 1188 1189
7 1190 1191 1192 1193 1194 1195 1196
8 1197 1198 1199 1200 1201 1202 1203 1204
6 1205 1206 1207 1208 1209 1210
6 1211 1212 1213 1214 1215 1216
7 1217 1218 1219 1220 1221 1222 1223
6 1224 1225 1226 1227 1228 1229
6 1230 1231 1232 1233 1234 1235
6 1236 1237 1238 1239 1240 1241
6 1242 1243 1244 1245 1246 1247
7 1248 1249 1250 1251 1252 1253 1254
6 1255 1256 1257 1258 1259 1260
7 1261 1262 1263 1264 1265 1266 1267
6 1268 1269 1270 1271 1272 1273
5 1274 1275 1276 1277 1278
6 1279 1280 1281 1282 1283 1284
7 1285 1286 1287 1288 1289 1290 1291
6 1292 1293 1294 1295 1296 1297
6 1298 1299 1300 1301 1302 1303
7 1304 1305 1306 1307 1308 1309 1310
6 1311 1312 1313 1314 1315 1316
5 1317 1318 1319 1320 1321
7 1322 1323 1324 1325 1326 1327 1328
6 1329 1330 1331 1332 1333 1334
6 1335 1336 1337 1338 1339 1340
6 1341 1342 1343 1344 1345 1346
7 1347 1348 1349 1350 1351 1352 1353
6 1354 1355 1356 1357 1358 1359
7 1360 1361 1362 1363 1364 1365 1366
6 1367 1368 1369 1370 1371 1372
6 1373 1374 1375 1376 1377 1378
5 1379 1380 1381 1382 1383
7 1384 1385 1386 1387 1388 1389 1390
7 1391 1392 1393 1394 1395 1396 1397
7 1398 1399 1400 1401 1402 1403 1404
5 1405 1406 1407 1408 1409
6 1410 1411 1412 1413 1414 1415
8 1416 1417 1418 1419 1420 1421 1422 1423
7 1424 1425 1426 1427 1428 1429 1430
6 1431 1432 1433 1434 1435 1436
6 1437 1438 1439 1440 1441 1442
4 1443 1444 1445 1446
6 1447 1448 1449 1450 1451 1452
6 1453 1454 1455 1456 1457 1458
6 1459 1460 1461 1462 1463 1464
5 1465 1466 1467 1468 1469
7 1470 1471 1472 1473 1474 1475 1476
5 1477 1478 1479 1480 1481
5 1482 1483 1484 1485 1486
6 1487 1488 1489 1490 1491 1492
6 1493 1494 1495 1496 1497 1498
7 1499 1500 1501 1502 1503 1504 1505
7 1506 1507 1508 1509 1510 1511 1512
6 1513 1514 1515 1516 1517 1518
6 1519 1520 1521 1522 1523 1524
5 1525 1526 1527 1528 1529
6 1530 1531 1532 1533 1534 1535
6 1536 1537 1538 1539 1540 1541
7 1542 1543 1544 1545 1546 1547 1548
5 1549 1550 1551 1552 1553
6 1554 1555 1556 1557 1558 1559
6 1560 1561 1562 1563 1564 1565
5 1566 1567 1568 1569 1570
6 1571 1572 1573 1574 1575 1576
6 1577 1578 1579 1580 1581 1582
7 1583 1584 1585 1586 1587 1588 1589
6 1590 1591 1592 1593 1594 1595
6 1596 1597 1598 1599 1600 1601
6 1602 1603 1604 1605 1606 1607
6 1608 1609 1610 1611 1612 1613
7 1614 1615 1616 1617 1618 1619 1620
6 1621 1622 1623 1624 1625 1626
6 1627 1628 1629 1630 1631 1632
5 1633 1634 1635 1636 1637
6 1638 1639 1640 1641 1642 1643
7 1644 1645 1646 1647 1648 1649 1650
5 1651 1652 1653 1654 1655
6 1656 1657 1658 1659 1660 1661
6 1662 1663 1664 1665 1666 1667
6 1668 1669 1670 1671 1672 1673
6 1674 1675 1676 1677 1678 1679
4 1680 1681 1682 1683
6 1684 1685 1686 1687 1688 1689
5 1690 1691 1692 1693 1694
8 1695 1696 1697 1698 1699 1700 1701 1702
6 1703 1704 1705 1706 1707 1708
6 1709 1710 1711 1712 1713 1714
5 1715 1716 1717 1718 1719
7 1720 1721 1722 1723 1724 1725 1726
7 1727 1728 1729 1730 1731 1732 1733
6 1734 1735 1736 1737 1738 1739
6 1740 1741 1742 1743 1744 1745
6 1746 1747 1748 1749 1750 1751
5 1752 1753 1754 1755 1756
6 1757 1758 1759 1760 1761 1762
7 1763 1764 1765 1766 1767 1768 1769
5 1770 1771 1772 1773 1774
6 1775 1776 1777 1778 1779 1780
6 1781 1782 1783 1784 1785 1786
7 1787 1788 1789 1790 1791 1792 1793
5 1794 1795 1796 1797 1798
7 1799 1800 1801 1802 1803 1804 1805
5 1806 1807 1808 1809 1810
6 1811 1812 1813 1814 1815 1816
6 1817 1818 1819 1820 1821 1822
5 1823 1824 1825 1826 1827
6 1828 1829 1830 1831 1832 1833
5 1834 1835 1836 1837 1838
5 1839 1840 1841 1842 1843
5 1844 1845 1846 1847 1848
6 1849 1850 1851 1852 1853 1854
5 1855 1856 1857 1858 1859
6 1860 1861 1862 1863 1864 1865
5 1866 1867 1868 1869 1870
7 1871 1872 1873 1874 1875 1876 1877
5 1878 1879 1880 1881 1882
7 1883 1884 1885 1886 1887 1888 1889
7 1890 1891 1892 1893 1894 1895 1896
6 1897 1898 1899 1900 1901 1902
5 1903 1904 1905 1906 1907
6 1908 1909 1910 1911 1912 1913
5 1914 1915 1916 1917 1918
8 1919 1920 1921 1922 1923 1924 1925 1926
5 1927 1928 1929 1930 1931
8 1932 1933 1934 1935 1936 1937 1938 1939
5 1940 1941 1942 1943 1944
5 1945 1946 1947 1948 1949
5 1950 1951 1952 1953 1954
6 1955 1956 1957 1958 1959 1960
6 1961 1962 1963 1964 1965 1966
6 1967 1968 1969 1970 1971 1972
8 1973 1974 1975 1976 1977 1978 1979 1980
5 1981 1982 1983 1984 1985
6 1986 1987 1988 1989 1990 1991
5 1992 1993 1994 1995 1996
6 1997 1998 1999 2000 2001 2002
6 2003 2004 2005 2006 2007 2008
7 2009 2010 2011 2012 2013 2014 2015
6 2016 2017 2018 2019 2020 2021
5 2022 2023 2024 2025 2026
6 2027 2028 2029 2030 2031 2032
6 2033 2034 2035 2036 2037 2038
5 2039 2040 2041 2042 2043
6 2044 2045 2046 2047 2048 2049
6 2050 2051 2052 2053 2054 2055
5 2056 2057 2058 2059 2060
6 2061 2062 2063 2064 2065 2066
6 2067 2068 2069 2070 2071 2072
6 2073 2074 2075 2076 2077 2078
5 2079 2080 2081 2082 2083
