1000 3 0
0 3561 3560 2551 3 5 
1 5 6 10 3562 3561 
2 10 11 19 4783 4782 4077 3562 
3 4784 4783 19 20 24 
4 4785 4784 24 25 29 
5 4786 4785 29 30 34 
6 4787 4786 34 35 39 
7 4788 4787 39 40 44 
8 4789 4788 44 45 49 
9 4790 4789 49 50 54 
10 4791 4790 54 55 59 
11 4792 4791 59 60 64 
12 4793 4792 64 65 69 
13 4794 4793 69 70 74 
14 4795 4794 74 75 80 
15 4039 4796 4795 80 81 85 
16 4040 4039 85 86 90 
17 4041 4040 90 91 95 
18 4042 4041 95 96 100 
19 4043 4042 100 101 106 
20 4212 4211 4043 106 107 111 
21 4213 4212 111 112 116 
22 4214 4213 116 117 121 
23 4215 4214 121 122 126 
24 4216 4215 126 127 131 
25 4217 4216 131 132 136 
26 4218 4217 136 137 142 
27 3061 4219 4218 142 143 147 
28 3062 3061 147 148 152 
29 3063 3062 152 153 158 
30 4102 4101 3063 158 159 163 
31 4103 4102 163 164 168 
32 4104 4103 168 169 173 
33 4105 4104 173 174 178 
34 4106 4105 178 179 183 
35 4107 4106 183 184 188 
36 4108 4107 188 189 193 
37 4109 4108 193 194 198 
38 4110 4109 198 199 203 
39 4111 4110 203 204 208 
40 4112 4111 208 209 213 
41 4113 4112 213 214 218 
42 4114 4113 218 219 223 
43 4115 4114 223 224 228 
44 4116 4115 228 229 233 
45 4117 4116 233 234 239 
46 2867 4118 4117 239 240 244 
47 2868 2867 244 245 249 
48 2869 2868 249 250 254 
49 2870 2869 254 255 259 
50 2871 2870 259 260 264 
51 2872 2871 264 265 269 
52 2873 2872 269 270 274 
53 2874 2873 274 275 279 
54 2875 2874 279 280 284 
55 2876 2875 284 285 289 
56 2877 2876 289 290 294 
57 2878 2877 294 295 300 
58 2764 2879 2878 300 301 305 
59 2765 2764 305 306 311 
60 5900 5899 2765 311 312 316 
61 5901 5900 316 317 321 
62 5902 5901 321 322 326 
63 5903 5902 326 327 331 
64 5904 5903 331 332 336 
65 5905 5904 336 337 341 
66 5906 5905 341 342 346 
67 5907 5906 346 347 352 
68 4375 5908 5907 352 353 357 
69 4376 4375 357 358 362 
70 4377 4376 362 363 367 
71 4378 4377 367 368 372 
72 4379 4378 372 373 377 
73 4369 4379 377 378 382 
74 4370 4369 382 383 388 
75 5525 5524 4370 388 389 393 
76 5526 5525 393 394 398 
77 5527 5526 398 399 403 
78 5528 5527 403 404 408 
79 5529 5528 408 409 413 
80 5530 5529 413 414 418 
81 5531 5530 418 419 423 
82 5532 5531 423 424 428 
83 5533 5532 428 429 433 
84 5534 5533 433 434 438 
85 5535 5534 438 439 443 
86 5536 5535 443 444 448 
87 5537 5536 448 449 453 
88 5538 5537 453 454 459 
89 2606 5539 5538 459 460 464 
90 2607 2606 464 465 470 
91 2644 2643 2607 470 471 475 
92 2645 2644 475 476 480 
93 2646 2645 480 481 485 
94 2647 2646 485 486 490 
95 2648 2647 490 491 495 
96 2649 2648 495 496 500 
97 2650 2649 500 501 505 
98 2651 2650 505 506 510 
99 2652 2651 510 511 515 
100 2653 2652 515 516 520 
101 2654 2653 520 521 525 
102 2655 2654 525 526 530 
103 2656 2655 530 531 535 
104 2657 2656 535 536 540 
105 2658 2657 540 541 546 
106 4199 4198 2658 546 547 551 
107 4200 4199 551 552 556 
108 4201 4200 556 557 561 
109 4202 4201 561 562 566 
110 4203 4202 566 567 571 
111 4204 4203 571 572 576 
112 4205 4204 576 577 581 
113 4206 4205 581 582 586 
114 4207 4206 586 587 592 
115 5440 5439 4207 592 593 597 
116 5441 5440 597 598 602 
117 5442 5441 602 603 607 
118 5443 5442 607 608 612 
119 5444 5443 612 613 617 
120 5445 5444 617 618 622 
121 5446 5445 622 623 627 
122 5447 5446 627 628 632 
123 5448 5447 632 633 638 
124 3893 5449 5448 638 639 643 
125 3894 3893 643 644 648 
126 3895 3894 648 649 653 
127 3896 3895 653 654 658 
128 3897 3896 658 659 663 
129 3878 3897 663 664 668 
130 3879 3878 668 669 673 
131 3880 3879 673 674 678 
132 3881 3880 678 679 683 
133 3882 3881 683 684 688 
134 3883 3882 688 689 693 
135 3884 3883 693 694 698 
136 3885 3884 698 699 703 
137 3886 3885 703 704 708 
138 3887 3886 708 709 713 
139 3888 3887 713 714 718 
140 3889 3888 718 719 724 
141 2826 3890 3889 724 725 729 
142 2827 2826 729 730 735 
143 3205 3204 2827 735 736 740 
144 3206 3205 740 741 745 
145 3207 3206 745 746 750 
146 3197 3207 750 751 755 
147 3198 3197 755 756 760 
148 3199 3198 760 761 766 
149 5216 5215 3199 766 767 771 
150 5217 5216 771 772 776 
151 5218 5217 776 777 781 
152 5219 5218 781 782 786 
153 5220 5219 786 787 791 
154 5221 5220 791 792 796 
155 5222 5221 796 797 801 
156 5223 5222 801 802 806 
157 5224 5223 806 807 811 
158 5225 5224 811 812 816 
159 5201 5225 816 817 821 
160 5202 5201 821 822 826 
161 5203 5202 826 827 831 
162 5204 5203 831 832 836 
163 5205 5204 836 837 841 
164 5206 5205 841 842 846 
165 5207 5206 846 847 851 
166 5208 5207 851 852 857 
167 3404 5209 5208 857 858 862 
168 3405 3404 862 863 867 
169 3406 3405 867 868 872 
170 3407 3406 872 873 877 
171 3408 3407 877 878 882 
172 3409 3408 882 883 887 
173 3410 3409 887 888 892 
174 3411 3410 892 893 897 
175 3412 3411 897 898 902 
176 3413 3412 902 903 907 
177 3414 3413 907 908 912 
178 3415 3414 912 913 917 
179 3416 3415 917 918 922 
180 3417 3416 922 923 927 
181 3418 3417 927 928 932 
182 3419 3418 932 933 937 
183 3420 3419 937 938 942 
184 3421 3420 942 943 947 
185 3422 3421 947 948 953 
186 2834 3423 3422 953 954 958 
187 2835 2834 958 959 963 
188 2836 2835 963 964 968 
189 2837 2836 968 969 973 
190 2838 2837 973 974 979 
191 3786 3785 2838 979 980 984 
192 3787 3786 984 985 989 
193 3788 3787 989 990 994 
194 3789 3788 994 995 999 
195 3790 3789 999 1000 1004 
196 3791 3790 1004 1005 1009 
197 3792 3791 1009 1010 1014 
198 3793 3792 1014 1015 1019 
199 3794 3793 1019 1020 1024 
200 3795 3794 1024 1025 1029 
201 3796 3795 1029 1030 1034 
202 3797 3796 1034 1035 1039 
203 3780 3797 1039 1040 1045 
204 5943 5942 3780 1045 1046 1050 
205 5944 5943 1050 1051 1055 
206 5945 5944 1055 1056 1060 
207 5946 5945 1060 1061 1065 
208 5947 5946 1065 1066 1070 
209 5948 5947 1070 1071 1075 
210 5949 5948 1075 1076 1080 
211 5950 5949 1080 1081 1085 
212 5951 5950 1085 1086 1090 
213 5952 5951 1090 1091 1095 
214 5953 5952 1095 1096 1100 
215 5954 5953 1100 1101 1105 
216 5955 5954 1105 1106 1110 
217 5956 5955 1110 1111 1115 
218 5957 5956 1115 1116 1120 
219 5958 5957 1120 1121 1125 
220 5959 5958 1125 1126 1131 
221 5415 5960 5959 1131 1132 1136 
222 5416 5415 1136 1137 1141 
223 5417 5416 1141 1142 1146 
224 5418 5417 1146 1147 1151 
225 5419 5418 1151 1152 1156 
226 5420 5419 1156 1157 1161 
227 5421 5420 1161 1162 1166 
228 5422 5421 1166 1167 1171 
229 5423 5422 1171 1172 1176 
230 5424 5423 1176 1177 1181 
231 5425 5424 1181 1182 1187 
232 4818 5426 5425 1187 1188 1192 
233 4819 4818 1192 1193 1197 
234 4820 4819 1197 1198 1202 
235 4821 4820 1202 1203 1207 
236 4822 4821 1207 1208 1212 
237 4823 4822 1212 1213 1217 
238 4824 4823 1217 1218 1222 
239 4825 4824 1222 1223 1227 
240 4826 4825 1227 1228 1232 
241 4827 4826 1232 1233 1237 
242 4828 4827 1237 1238 1242 
243 4829 4828 1242 1243 1247 
244 4830 4829 1247 1248 1253 
245 2705 4831 4830 1253 1254 1258 
246 2706 2705 1258 1259 1263 
247 2707 2706 1263 1264 1268 
248 2708 2707 1268 1269 1273 
249 2709 2708 1273 1274 1278 
250 2710 2709 1278 1279 1283 
251 2699 2710 1283 1284 1289 
252 4436 4435 2699 1289 1290 1294 
253 4437 4436 1294 1295 1299 
254 4438 4437 1299 1300 1304 
255 4439 4438 1304 1305 1309 
256 4440 4439 1309 1310 1314 
257 4441 4440 1314 1315 1319 
258 4421 4441 1319 1320 1324 
259 4422 4421 1324 1325 1329 
260 4423 4422 1329 1330 1334 
261 4424 4423 1334 1335 1339 
262 4425 4424 1339 1340 1344 
263 4426 4425 1344 1345 1349 
264 4427 4426 1349 1350 1354 
265 4428 4427 1354 1355 1359 
266 4429 4428 1359 1360 1364 
267 4430 4429 1364 1365 1370 
268 4089 4431 4430 1370 1371 1375 
269 4090 4089 1375 1376 1380 
270 4091 4090 1380 1381 1385 
271 4092 4091 1385 1386 1391 
272 4989 4988 4092 1391 1392 1396 
273 4990 4989 1396 1397 1401 
274 4991 4990 1401 1402 1406 
275 4992 4991 1406 1407 1411 
276 4993 4992 1411 1412 1416 
277 4994 4993 1416 1417 1421 
278 4995 4994 1421 1422 1426 
279 4996 4995 1426 1427 1431 
280 4997 4996 1431 1432 1436 
281 4998 4997 1436 1437 1441 
282 4999 4998 1441 1442 1446 
283 5000 4999 1446 1447 1451 
284 5001 5000 1451 1452 1456 
285 5002 5001 1456 1457 1461 
286 5003 5002 1461 1462 1466 
287 5004 5003 1466 1467 1472 
288 3118 5005 5004 1472 1473 1477 
289 3119 3118 1477 1478 1482 
290 3120 3119 1482 1483 1487 
291 3121 3120 1487 1488 1492 
292 3122 3121 1492 1493 1497 
293 3123 3122 1497 1498 1502 
294 3124 3123 1502 1503 1507 
295 3125 3124 1507 1508 1512 
296 3126 3125 1512 1513 1517 
297 3127 3126 1517 1518 1522 
298 3128 3127 1522 1523 1526 
299 3128 1526 1527 1532 3129 
300 3130 3129 1532 1533 1537 
301 3131 3130 1537 1538 1542 
302 3132 3131 1542 1543 1547 
303 3133 3132 1547 1548 1552 
304 3134 3133 1552 1553 1557 
305 3135 3134 1557 1558 1562 
306 3136 3135 1562 1563 1567 
307 3137 3136 1567 1568 1574 
308 3901 4492 4491 3137 1574 1575 1579 
309 3902 3901 1579 1580 1584 
310 3903 3902 1584 1585 1590 
311 5817 5816 3903 1590 1591 1595 
312 5818 5817 1595 1596 1600 
313 5819 5818 1600 1601 1605 
314 5820 5819 1605 1606 1610 
315 5821 5820 1610 1611 1615 
316 5822 5821 1615 1616 1620 
317 5823 5822 1620 1621 1625 
318 5824 5823 1625 1626 1630 
319 5825 5824 1630 1631 1635 
320 5826 5825 1635 1636 1640 
321 5827 5826 1640 1641 1645 
322 5828 5827 1645 1646 1650 
323 5829 5828 1650 1651 1655 
324 5830 5829 1655 1656 1660 
325 5831 5830 1660 1661 1666 
326 2797 5832 5831 1666 1667 1671 
327 2798 2797 1671 1672 1676 
328 2799 2798 1676 1677 1681 
329 2800 2799 1681 1682 1686 
330 2801 2800 1686 1687 1691 
331 2802 2801 1691 1692 1696 
332 2803 2802 1696 1697 1701 
333 2785 2803 1701 1702 1706 
334 2786 2785 1706 1707 1711 
335 2787 2786 1711 1712 1716 
336 2788 2787 1716 1717 1721 
337 2789 2788 1721 1722 1726 
338 2790 2789 1726 1727 1732 
339 5401 5400 2790 1732 1733 1738 
340 5747 5746 5401 1738 1739 1743 
341 5748 5747 1743 1744 1748 
342 5749 5748 1748 1749 1753 
343 5750 5749 1753 1754 1758 
344 5751 5750 1758 1759 1763 
345 5739 5751 1763 1764 1768 
346 5740 5739 1768 1769 1773 
347 5741 5740 1773 1774 1778 
348 5742 5741 1778 1779 1784 
349 5684 5743 5742 1784 1785 1789 
350 5685 5684 1789 1790 1795 
351 3673 5686 5685 1795 1796 1800 
352 3674 3673 1800 1801 1806 
353 3342 3675 3674 1806 1807 1811 
354 3343 3342 1811 1812 1816 
355 3344 3343 1816 1817 1821 
356 3345 3344 1821 1822 1826 
357 3330 3345 1826 1827 1831 
358 3331 3330 1831 1832 1836 
359 3332 3331 1836 1837 1841 
360 3333 3332 1841 1842 1846 
361 3334 3333 1846 1847 1851 
362 3335 3334 1851 1852 1856 
363 3336 3335 1856 1857 1861 
364 3337 3336 1861 1862 1867 
365 5273 5272 3337 1867 1868 1872 
366 5274 5273 1872 1873 1877 
367 5275 5274 1877 1878 1882 
368 5276 5275 1882 1883 1887 
369 5277 5276 1887 1888 1893 
370 4392 5278 5277 1893 1894 1898 
371 4393 4392 1898 1899 1903 
372 4394 4393 1903 1904 1908 
373 4395 4394 1908 1909 1913 
374 4396 4395 1913 1914 1918 
375 4397 4396 1918 1919 1923 
376 4398 4397 1923 1924 1928 
377 4399 4398 1928 1929 1933 
378 4400 4399 1933 1934 1938 
379 4401 4400 1938 1939 1943 
380 4402 4401 1943 1944 1948 
381 4403 4402 1948 1949 1953 
382 4404 4403 1953 1954 1958 
383 4405 4404 1958 1959 1963 
384 4406 4405 1963 1964 1968 
385 4407 4406 1968 1969 1974 
386 4609 4608 4407 1974 1975 1979 
387 4595 4609 1979 1980 1984 
388 4596 4595 1984 1985 1989 
389 4597 4596 1989 1990 1994 
390 4598 4597 1994 1995 1999 
391 4599 4598 1999 2000 2004 
392 4600 4599 2004 2005 2009 
393 4601 4600 2009 2010 2015 
394 4837 4836 4601 2015 2016 2020 
395 4838 4837 2020 2021 2025 
396 4839 4838 2025 2026 2030 
397 4840 4839 2030 2031 2035 
398 4841 4840 2035 2036 2040 
399 4842 4841 2040 2041 2045 
400 4843 4842 2045 2046 2050 
401 4844 4843 2050 2051 2055 
402 4845 4844 2055 2056 2060 
403 4846 4845 2060 2061 2065 
404 4847 4846 2065 2066 2070 
405 4848 4847 2070 2071 2075 
406 4849 4848 2075 2076 2080 
407 4850 4849 2080 2081 2086 
408 2675 4851 4850 2086 2087 2091 
409 2676 2675 2091 2092 2096 
410 2677 2676 2096 2097 2101 
411 2678 2677 2101 2102 2106 
412 2679 2678 2106 2107 2111 
413 2680 2679 2111 2112 2115 
414 2680 2115 2116 2121 2681 
415 2682 2681 2121 2122 2126 
416 2683 2682 2126 2127 2131 
417 2684 2683 2131 2132 2136 
418 2685 2684 2136 2137 2142 
419 5637 5636 2685 2142 2143 2147 
420 5638 5637 2147 2148 2152 
421 5639 5638 2152 2153 2157 
422 5640 5639 2157 2158 2162 
423 5641 5640 2162 2163 2167 
424 5642 5641 2167 2168 2172 
425 5643 5642 2172 2173 2177 
426 5644 5643 2177 2178 2182 
427 5645 5644 2182 2183 2188 
428 3293 5646 5645 2188 2189 2193 
429 3294 3293 2193 2194 2198 
430 3295 3294 2198 2199 2203 
431 3296 3295 2203 2204 2208 
432 3297 3296 2208 2209 2213 
433 3298 3297 2213 2214 2218 
434 3299 3298 2218 2219 2223 
435 3300 3299 2223 2224 2228 
436 3301 3300 2228 2229 2233 
437 3302 3301 2233 2234 2238 
438 3303 3302 2238 2239 2243 
439 3304 3303 2243 2244 2248 
440 3305 3304 2248 2249 2253 
441 3306 3305 2253 2254 2259 
442 2744 3307 3306 2259 2260 2264 
443 2745 2744 2264 2265 2269 
444 2746 2745 2269 2270 2274 
445 2747 2746 2274 2275 2279 
446 2748 2747 2279 2280 2284 
447 2749 2748 2284 2285 2289 
448 2750 2749 2289 2290 2294 
449 2751 2750 2294 2295 2299 
450 2752 2751 2299 2300 2304 
451 2753 2752 2304 2305 2309 
452 2754 2753 2309 2310 2314 
453 2755 2754 2314 2315 2320 
454 3323 3322 2755 2320 2321 2325 
455 3324 3323 2325 2326 2330 
456 3325 3324 2330 2331 2335 
457 3326 3325 2335 2336 2340 
458 3327 3326 2340 2341 2345 
459 3328 3327 2345 2346 2350 
460 3329 3328 2350 2351 2355 
461 3311 3329 2355 2356 2360 
462 3312 3311 2360 2361 2365 
463 3313 3312 2365 2366 2370 
464 3314 3313 2370 2371 2375 
465 3315 3314 2375 2376 2380 
466 3316 3315 2380 2381 2385 
467 3317 3316 2385 2386 2391 
468 4170 4169 3317 2391 2392 2397 
469 3816 4171 4170 2397 2398 2402 
470 3817 3816 2402 2403 2407 
471 3818 3817 2407 2408 2412 
472 3819 3818 2412 2413 2417 
473 3820 3819 2417 2418 2422 
474 3821 3820 2422 2423 2427 
475 3822 3821 2427 2428 2432 
476 3823 3822 2432 2433 2437 
477 3824 3823 2437 2438 2442 
478 3825 3824 2442 2443 2447 
479 3826 3825 2447 2448 2452 
480 3827 3826 2452 2453 2457 
481 3828 3827 2457 2458 2462 
482 3829 3828 2462 2463 2467 
483 3830 3829 2467 2468 2473 
484 2980 3831 3830 2473 2474 2478 
485 2981 2980 2478 2479 2483 
486 2982 2981 2483 2484 2488 
487 2983 2982 2488 2489 2493 
488 2984 2983 2493 2494 2498 
489 2985 2984 2498 2499 2503 
490 2986 2985 2503 2504 2508 
491 2987 2986 2508 2509 2513 
492 2988 2987 2513 2514 2518 
493 2989 2988 2518 2519 2523 
494 2990 2989 2523 2524 2528 
495 2971 2990 2528 2529 2533 
496 2972 2971 2533 2534 2538 
497 2973 2972 2538 2539 2544 
498 3559 3558 2973 2544 2545 2549 
499 3560 3559 2549 2550 2551 
500 3760 3759 4125 4124 3188 3000 
501 4272 4570 5062 5066 4710 4709 5633 5632 
502 4473 4472 4418 5313 5317 4925 3001 
503 5865 5864 5707 5624 5629 4126 
504 4136 4135 5969 5968 5189 5188 
505 4714 4713 4158 5712 5711 4070 
506 5380 5388 4057 4816 
507 5872 3587 5016 5021 5868 
508 2643 5095 5101 3766 5540 5539 2606 2607 
509 5975 5974 4317 4287 4286 5395 5394 
510 5632 5631 3374 4273 4272 
511 4690 5404 5697 5696 4691 
512 5878 5883 5982 5981 3176 5796 5795 5323 
513 4252 4251 5837 5836 4632 4631 
514 4198 5727 5731 5095 2643 2644 2645 2646 2647 2648 2649 2650 2651 2652 2653 2654 2655 2656 2657 2658 
515 5306 5305 5213 5212 3114 
516 4679 5702 5701 4186 5038 5037 
517 5636 5650 3707 4834 4851 2675 2676 2677 2678 2679 2680 2681 2682 2683 2684 2685 
518 5468 5467 4388 5885 5884 3475 
519 4254 4656 4655 4414 4471 4470 3187 
520 2699 4435 4872 5492 5491 4831 2705 2706 2707 2708 2709 2710 
521 5981 5980 3936 3765 3177 3176 
522 3592 4266 4265 5008 5015 3186 
523 5890 5896 5106 3439 3360 3613 4123 
524 4772 5026 5250 5249 4666 5508 5507 
525 3536 4912 4918 4920 4919 
526 4614 3307 2744 2745 2746 2747 2748 2749 2750 2751 2752 2753 2754 2755 3322 4615 
527 5929 5935 5269 4100 4099 2879 2764 2765 5899 
528 3707 3877 3876 3631 4604 4835 4834 
529 4521 4929 4928 4278 4277 
530 5214 5213 5305 5304 5681 5680 
531 2785 2786 2787 2788 2789 2790 5400 5399 4594 5480 5833 5832 2797 2798 2799 2800 2801 2802 2803 
532 5434 5433 4585 5665 5664 
533 5604 4968 5811 5810 5605 
534 5699 4716 4715 4074 4538 4537 5700 
535 5850 5849 5436 5435 3890 2826 2827 3204 5679 
536 4574 4671 4670 3423 2834 2835 2836 2837 2838 3785 5133 5132 4662 3911 
537 5626 5625 5618 5617 4454 5549 
538 5140 5139 4657 4256 4380 5039 5038 4186 
539 3473 3978 4917 4916 4965 4972 4061 4060 
540 4118 2867 2868 2869 2870 2871 2872 2873 2874 2875 2876 2877 2878 2879 4099 
541 5882 5965 5964 5885 4388 4387 5675 5674 
542 5939 5183 5155 5154 5862 5861 5940 
543 5354 5353 5157 5156 5755 5754 
544 3777 5513 5776 5775 4962 5925 5924 
545 3188 3187 4470 4473 3001 3000 
546 3946 4097 4096 3355 
547 4060 5917 5916 3350 3474 3473 
548 5628 5627 5662 5665 4585 4584 
549 4662 4661 4413 4412 3911 
550 4277 4282 5386 5385 5030 4521 
551 5174 5178 4893 5812 5811 4968 
552 4294 5373 5372 3593 3592 3186 
553 5984 5983 5347 5857 5856 
554 5074 5474 5473 4137 4696 4695 3212 
555 5398 5745 5744 5689 4591 
556 2971 2972 2973 3558 3567 3177 3765 3832 3831 2980 2981 2982 2983 2984 2985 2986 2987 2988 2989 2990 
557 3969 5045 5044 5503 5502 
558 4925 5240 5245 3760 3000 3001 
559 3475 4362 4361 3738 4068 5469 5468 
560 4571 5090 5228 5227 4953 
561 4551 4560 4325 4010 
562 4020 5307 5306 3114 3113 4981 4980 
563 3738 5041 5040 4804 4806 4588 4068 
564 4644 5284 5283 5120 5612 5611 
565 4316 5926 5925 4962 4961 
566 4483 4482 4351 4004 4285 
567 4919 4924 3574 3536 
568 5622 5621 5912 5911 4062 3943 
569 5319 5318 4219 3061 3062 3063 4101 4100 5269 
570 4745 4020 4980 5653 5652 5193 
571 5127 4273 3374 5100 5128 
572 4981 3113 3215 3214 3212 4695 4982 
573 5916 5915 5029 5028 3846 3350 
574 4126 4125 3759 5866 5865 
575 4712 4717 5075 5081 4810 4809 
576 5188 5187 4697 4696 4137 4136 
577 5212 5259 5258 4973 3215 3113 3114 
578 5578 5577 5005 3118 3119 3120 3121 3122 3123 3124 3125 3126 3127 3128 3129 3130 3131 3132 3133 3134 3135 3136 3137 4491 
579 5779 5787 5064 5063 4952 5141 
580 5781 5780 5655 5654 5505 5504 
581 5372 5371 5017 5016 3587 3593 
582 3439 5303 5302 3946 3355 3360 
583 4913 3533 5661 5660 
584 4418 4417 5160 5159 5314 5313 
585 3567 5797 5796 3176 3177 
586 5015 5014 4727 5563 5562 5059 4478 4294 3186 
587 3187 3188 4124 4255 4254 
588 4899 4898 4452 4252 4631 
589 3197 3198 3199 5215 5214 5680 5679 3204 3205 3206 3207 
590 3549 5476 5475 5074 3212 3214 
591 3214 3215 4973 4977 4229 3549 
592 5625 5624 5707 5706 5619 5618 
593 5111 5110 4742 3632 3631 3876 
594 4360 5343 5342 4339 3870 3869 
595 4666 4881 4880 4513 5717 5716 5508 
596 5787 5786 5554 4538 4074 4073 5065 5064 
597 4610 4168 4933 4932 4756 4625 
598 5784 5783 3607 3606 5083 5082 
599 4916 5659 5658 5566 5175 4965 
600 5586 5585 5036 5429 5494 5493 5055 5054 4853 
601 5854 5853 4506 5300 5299 5069 
602 3863 3837 3836 3446 4302 4301 
603 5646 3293 3294 3295 3296 3297 3298 3299 3300 3301 3302 3303 3304 3305 3306 3307 4614 4940 5647 
604 3311 3312 3313 3314 3315 3316 3317 4169 4168 4610 4615 3322 3323 3324 3325 3326 3327 3328 3329 
605 3330 3331 3332 3333 3334 3335 3336 3337 5272 5271 3773 3675 3342 3343 3344 3345 
606 5046 5045 3969 4768 
607 3350 3846 5693 5692 3474 
608 3355 4096 5607 5606 3613 3360 
609 5770 5769 5084 5083 3606 4157 4235 
610 5009 5008 4265 4264 
611 5101 5100 3374 5631 5630 3991 5760 5759 3766 
612 5754 5753 5485 5484 5593 5592 5354 
613 3836 4580 5851 5855 4867 4866 3446 
614 4972 4971 4098 3943 4062 4061 
615 5261 5260 5209 3404 3405 3406 3407 3408 3409 3410 3411 3412 3413 3414 3415 3416 3417 3418 3419 3420 3421 3422 3423 4670 
616 5387 5386 4282 4465 4469 
617 5511 5715 5714 4462 5049 
618 4864 5067 5298 5303 3439 5106 5105 
619 5117 5364 5363 4302 3446 4866 4865 
620 4928 5316 5315 4279 4278 
621 5630 5708 5712 4158 4808 4807 3991 
622 3533 5596 5595 5599 5598 5656 5661 
623 5692 5691 5405 4673 3978 3473 3474 
624 3475 5884 5889 4363 4362 
625 4661 4660 3841 5471 5477 4409 4413 
626 5773 5772 4414 4655 5792 5791 
627 5265 5077 3999 4368 5266 
628 5609 5608 4505 4007 5838 5837 4251 
629 5861 5860 5292 5291 4028 3837 3863 5941 5940 
630 5371 5580 5579 4494 4298 5018 5017 
631 5778 5777 5515 5280 4605 3632 4742 5808 5807 
632 3574 5589 5596 3533 4913 4912 3536 
633 5163 5173 5588 5587 4723 4722 4244 
634 4229 4410 4409 5477 5476 3549 
635 4147 4565 4882 5450 5542 5571 5570 5112 
636 3558 3559 3560 3561 3562 4077 4333 5798 5797 3567 
637 4924 4923 4694 5923 5922 5589 3574 
638 5294 5676 5675 4387 5466 5465 5295 
639 5782 4801 4463 3607 5783 
640 3587 5872 5871 5309 4266 3592 3593 
641 5197 5196 4551 4010 4450 
642 4463 4462 5714 5713 5499 5498 4157 3606 3607 
643 5606 5605 5810 5815 4123 3613 
644 4269 5308 5976 5975 5394 5393 
645 5066 5065 4073 4711 4710 
646 5057 5056 4873 4432 
647 4605 4604 3631 3632 
648 4558 5597 5602 4360 3869 
649 4004 5389 5395 4286 4285 
650 5131 5378 5377 4738 3841 4660 
651 4904 5594 5593 5484 5483 
652 5883 5882 5674 5673 5347 5983 5982 
653 5633 4709 4708 5710 5709 
654 4643 3870 4339 5285 5284 4644 
655 5686 3673 3674 3675 3773 5687 
656 4694 4812 4816 4057 5918 5923 
657 4135 4134 4616 4620 5970 5969 
658 5367 5726 5725 5253 5252 
659 5361 5520 5519 4729 5172 
660 5650 5649 4531 4533 5724 5723 3877 3707 
661 5711 5710 4708 4707 4070 
662 5452 4484 4959 5805 5875 5874 
663 5153 5978 5984 5856 5862 5154 
664 5649 5648 5990 5993 5768 5255 5254 4532 4531 
665 3999 4682 5042 5041 3738 4361 4368 
666 5689 5688 3777 5924 5928 4591 
667 5551 5295 5465 5464 5434 5664 5663 
668 5245 5244 5406 5867 5866 3759 3760 
669 3936 4936 4935 3832 3765 
670 3766 5759 5758 5910 5909 5541 5540 
671 3773 5271 5514 5513 3777 5688 5687 
672 3780 5942 5963 5379 5133 3785 3786 3787 3788 3789 3790 3791 3792 3793 3794 3795 3796 3797 
673 5732 5738 5167 5289 5288 4357 
674 5587 5586 4853 4852 4723 
675 5839 5844 5230 5229 
676 4935 4934 4171 3816 3817 3818 3819 3820 3821 3822 3823 3824 3825 3826 3827 3828 3829 3830 3831 3832 
677 4028 4576 4580 3836 3837 
678 4134 5472 5471 3841 4738 5523 5522 4616 
679 3846 5028 5384 5694 5693 
680 5785 5784 5082 5087 5557 
681 5173 5172 4729 4728 5584 5588 
682 5941 3863 4301 4300 5936 
683 4559 4558 3869 3870 4643 4642 
684 5723 5722 5111 3876 3877 
685 3878 3879 3880 3881 3882 3883 3884 3885 3886 3887 3888 3889 3890 5435 5449 3893 3894 3895 3896 3897 
686 4298 4493 4492 3901 3902 3903 5816 5834 5482 5018 
687 4411 4575 4574 3911 4412 
688 4883 5893 5892 5835 5838 4007 4350 4884 
689 5613 5123 5009 4264 4269 5393 5801 5800 
690 5895 5894 4565 4147 5104 
691 4937 4936 3936 5980 5979 
692 5302 5301 5623 5622 3943 4098 4097 3946 
693 5753 5752 4513 4880 5486 5485 
694 5330 5329 4244 4722 4727 5014 
695 5358 5357 5149 5971 5970 4620 
696 5506 4983 4769 4768 3969 5502 
697 5460 5459 5344 4357 5288 
698 4918 4917 3978 4673 4921 4920 
699 4728 5667 5666 5036 5585 5584 
700 4811 5761 5760 3991 4807 
701 5076 5582 5703 5702 4679 4682 3999 5077 
702 4505 5390 5389 4004 4351 4350 4007 
703 4451 4450 4010 4325 4641 4640 
704 5187 5186 4697 
705 5681 5304 5307 4020 4745 5846 5845 
706 5549 4454 4577 4576 4028 5291 5550 
707 5282 5457 5456 5120 5283 
708 4210 4781 4796 4039 4040 4041 4042 4043 4211 
709 4772 5190 5189 5968 5967 5027 5026 
710 4469 4683 5985 5989 5918 4057 5388 5387 
711 4060 4061 4062 5911 5917 
712 5432 5470 5469 4068 4588 
713 4070 4707 4711 4073 4074 4715 4714 
714 4077 4782 4781 4210 4334 4333 
715 4988 4987 5058 5057 4432 4431 4089 4090 4091 4092 
716 4971 5603 5607 4096 4097 4098 
717 4099 4100 4101 4102 4103 4104 4105 4106 4107 4108 4109 4110 4111 4112 4113 4114 4115 4116 4117 4118 
718 5815 5814 5891 5890 4123 
719 4124 4125 4126 5629 5628 4584 4583 4380 4256 4255 
720 4134 4135 4136 4137 5473 5472 
721 5814 5813 4632 5836 5835 5892 5891 
722 4147 5112 5117 4865 4864 5105 5104 
723 5498 5497 4235 4157 
724 4158 4713 4712 4809 4808 
725 4961 4960 4287 4317 4316 
726 4168 4169 4170 4171 4934 4933 
727 5315 5314 5159 5158 4892 4891 4684 4466 4279 
728 4537 5134 5140 4186 5701 5700 
729 5244 5913 5912 5621 5620 5406 
730 5843 5842 5727 4198 4199 4200 4201 4202 4203 4204 4205 4206 4207 5439 5438 
731 4210 4211 4212 4213 4214 4215 4216 4217 4218 4219 5318 5326 4334 
732 4977 4976 4672 4575 4411 4410 4229 
733 5790 5084 5769 5773 5791 
734 4235 5497 5496 5160 4417 5771 5770 
735 5328 5163 4244 5329 
736 4452 4451 4640 5610 5609 4251 4252 
737 4656 4254 4255 4256 4657 
738 5252 5937 5936 4300 5368 5367 
739 4264 4265 4266 5309 5308 4269 
740 4571 4570 4272 4273 5127 5126 5090 
741 4277 4278 4279 4466 4465 4282 
742 4484 4483 4285 4286 4287 4960 4959 
743 4986 5576 5575 5373 4294 4478 
744 4494 4493 4298 
745 5368 4300 4301 4302 5363 
746 4533 4532 5254 5253 5725 5724 
747 5021 5481 5480 4594 5927 5926 4316 4317 5974 5973 5868 
748 5495 5756 5755 5156 
749 4325 4560 4559 4642 4641 
750 5326 5794 5798 4333 4334 
751 5458 5457 5282 5285 4339 5342 
752 5889 5888 5878 5323 5489 5488 4363 
753 4885 4884 4350 4351 4482 
754 5602 5601 5733 5732 4357 5344 5343 4360 
755 4361 4362 4363 5488 5487 5320 5266 4368 
756 4369 4370 5524 5541 5909 5908 4375 4376 4377 4378 4379 
757 4380 4583 4805 4804 5040 5039 
758 5466 4387 4388 5467 
759 5279 5278 4392 4393 4394 4395 4396 4397 4398 4399 4400 4401 4402 4403 4404 4405 4406 4407 4608 
760 4409 4410 4411 4412 4413 
761 4414 5772 5771 4417 4418 4472 4471 
762 4421 4422 4423 4424 4425 4426 4427 4428 4429 4430 4431 4432 4873 4872 4435 4436 4437 4438 4439 4440 4441 
763 5730 5841 5840 5125 5124 
764 4898 5198 5197 4450 4451 4452 
765 4577 4454 5617 5616 4506 5853 5852 
766 5043 5049 4462 4463 4801 
767 4465 4466 4684 4683 4469 
768 4470 4471 4472 4473 
769 5059 5058 4987 4986 4478 
770 5452 5451 4885 4482 4483 4484 
771 5774 5778 5807 5806 
772 5579 5578 4491 4492 4493 4494 
773 4911 5972 5971 5149 5169 5168 
774 5608 5799 5802 5390 4505 
775 4506 5616 5623 5301 5300 
776 5713 5717 4513 5752 5757 5499 
777 5915 5914 5241 4929 4521 5030 5029 
778 4717 4716 5699 5698 5582 5076 5075 
779 4531 4532 4533 
780 5554 5559 5134 4537 4538 
781 5855 5854 5069 5068 4867 
782 5601 5600 4905 5247 5246 5734 5733 
783 4551 5196 5569 5657 5656 5598 5597 4558 4559 4560 
784 5894 5893 4883 4882 4565 
785 4953 4952 5063 5062 4570 4571 
786 4672 4671 4574 4575 
787 4576 4577 5852 5851 4580 
788 4806 4805 4583 4584 4585 5433 5432 4588 
789 5399 5398 4591 5928 5927 4594 
790 4595 4596 4597 4598 4599 4600 4601 4836 4835 4604 4605 5280 5279 4608 4609 
791 4610 4625 4941 4940 4614 4615 
792 4616 5522 5521 5358 4620 
793 5766 5992 5991 4941 4625 4756 5152 5151 
794 4893 4899 4631 4632 5813 5812 
795 5696 5695 5381 4813 4691 
796 4640 4641 4642 4643 4644 5611 5610 
797 4892 5158 5157 5353 5352 
798 5139 5793 5792 4655 4656 4657 
799 5132 5131 4660 4661 4662 
800 5249 5248 4881 4666 
801 4976 5262 5261 4670 4671 4672 
802 4673 5405 5404 4690 4922 4921 
803 4679 5037 5042 4682 
804 4683 4684 4891 5986 5985 
805 4923 4922 4690 4691 4813 4812 4694 
806 4695 4696 4697 5186 5185 4769 4983 4982 
807 5292 5860 5859 5293 
808 4707 4708 4709 4710 4711 
809 4712 4713 4714 4715 4716 4717 
810 5734 5246 5251 5735 
811 4722 4723 4852 5560 5563 4727 
812 4728 4729 5519 5518 5668 5667 
813 5669 5668 5518 5523 4738 5377 
814 5809 5808 4742 5110 5338 
815 4745 5193 5192 5847 5846 
816 4932 4937 5979 5978 5153 5152 4756 
817 5933 5932 5761 4811 4810 5081 
818 5738 5737 4911 5168 5167 
819 4768 4769 5185 5190 4772 5507 5512 5046 
820 5558 5557 5087 5789 5788 
821 4781 4782 4783 4784 4785 4786 4787 4788 4789 4790 4791 4792 4793 4794 4795 4796 
822 5504 5503 5044 5043 4801 5782 5781 
823 4804 4805 4806 
824 4807 4808 4809 4810 4811 
825 4812 4813 5381 5380 4816 
826 5426 4818 4819 4820 4821 4822 4823 4824 4825 4826 4827 4828 4829 4830 4831 5491 5490 
827 4834 4835 4836 4837 4838 4839 4840 4841 4842 4843 4844 4845 4846 4847 4848 4849 4850 4851 
828 4852 4853 5054 5561 5560 
829 5767 5766 5151 5155 5183 
830 5068 5067 4864 4865 4866 4867 
831 5056 5055 5493 5492 4872 4873 
832 5248 5247 4905 4904 5483 5486 4880 4881 
833 4882 4883 4884 4885 5451 5450 
834 5352 5987 5986 4891 4892 
835 4893 5178 5565 5564 5198 4898 4899 
836 5600 5599 5595 5594 4904 4905 
837 5737 5736 5027 5967 5972 4911 
838 4912 4913 5660 5659 4916 4917 4918 
839 4919 4920 4921 4922 4923 4924 
840 4925 5317 5316 4928 4929 5241 5240 
841 4932 4933 4934 4935 4936 4937 
842 5648 5647 4940 4941 5991 5990 
843 5844 5843 5438 5437 5230 
844 5192 5191 5141 4952 4953 5227 5848 5847 
845 5806 5805 4959 4960 4961 4962 5775 5774 
846 4965 5175 5174 4968 5604 5603 4971 4972 
847 4973 5258 5262 4976 4977 
848 5654 5653 4980 4981 4982 4983 5506 5505 
849 4986 4987 4988 4989 4990 4991 4992 4993 4994 4995 4996 4997 4998 4999 5000 5001 5002 5003 5004 5005 5577 5576 
850 5008 5009 5123 5463 5462 5330 5014 5015 
851 5016 5017 5018 5482 5481 5021 
852 5736 5735 5251 5250 5026 5027 
853 5028 5029 5030 5385 5384 
854 5666 5672 5429 5036 
855 5037 5038 5039 5040 5041 5042 
856 5043 5044 5045 5046 5512 5511 5049 
857 5910 5758 5931 5930 
858 5054 5055 5056 5057 5058 5059 5562 5561 
859 5062 5063 5064 5065 5066 
860 5067 5068 5069 5299 5298 
861 5475 5474 5074 
862 5075 5076 5077 5265 5934 5933 5081 
863 5082 5083 5084 5790 5789 5087 
864 5229 5228 5090 5126 5125 5840 5839 
865 5095 5731 5730 5124 5128 5100 5101 
866 5896 5895 5104 5105 5106 
867 5722 5721 5338 5110 5111 
868 5112 5570 5719 5718 5364 5117 
869 5613 5612 5120 5456 5463 5123 
870 5124 5125 5126 5127 5128 
871 5379 5378 5131 5132 5133 
872 5134 5559 5558 5788 5793 5139 5140 
873 5141 5191 5651 5655 5780 5779 
874 5362 5169 5149 5357 
875 5151 5152 5153 5154 5155 
876 5156 5157 5158 5159 5160 5496 5495 
877 5163 5328 5327 5289 5167 5168 5169 5362 5361 5172 5173 
878 5174 5175 5566 5565 5178 
879 5938 5255 5768 5767 5183 5939 
880 5185 5186 5187 5188 5189 5190 
881 5191 5192 5193 5652 5651 
882 5196 5197 5198 5564 5569 
883 5201 5202 5203 5204 5205 5206 5207 5208 5209 5260 5259 5212 5213 5214 5215 5216 5217 5218 5219 5220 5221 5222 5223 5224 5225 
884 5848 5227 5228 5229 5230 5437 5436 5849 
885 5859 5858 5677 5676 5294 5293 
886 5240 5241 5914 5913 5244 5245 
887 5246 5247 5248 5249 5250 5251 
888 5252 5253 5254 5255 5938 5937 
889 5258 5259 5260 5261 5262 
890 5935 5934 5265 5266 5320 5319 5269 
891 5514 5271 5272 5273 5274 5275 5276 5277 5278 5279 5280 5515 
892 5282 5283 5284 5285 
893 5461 5460 5288 5289 5327 
894 5291 5292 5293 5294 5295 5551 5550 
895 5298 5299 5300 5301 5302 5303 
896 5304 5305 5306 5307 
897 5308 5309 5871 5977 5976 
898 5313 5314 5315 5316 5317 
899 5318 5319 5320 5487 5489 5323 5795 5794 5326 
900 5327 5328 5329 5330 5462 5461 
901 5720 5572 5877 5876 5809 5338 5721 
902 5459 5458 5342 5343 5344 
903 5858 5857 5347 5673 5677 
904 5988 5987 5352 5353 5354 5592 5921 
905 5357 5358 5521 5520 5361 5362 
906 5363 5364 5718 5726 5367 5368 
907 5575 5580 5371 5372 5373 
908 5963 5962 5669 5377 5378 5379 
909 5380 5381 5695 5694 5384 5385 5386 5387 5388 
910 5389 5390 5802 5801 5393 5394 5395 
911 5746 5745 5398 5399 5400 5401 
912 5691 5697 5404 5405 
913 5406 5620 5619 5706 5863 5867 
914 5672 5961 5960 5415 5416 5417 5418 5419 5420 5421 5422 5423 5424 5425 5426 5490 5494 5429 
915 5464 5470 5432 5433 5434 
916 5435 5436 5437 5438 5439 5440 5441 5442 5443 5444 5445 5446 5447 5448 5449 
917 5450 5451 5452 5874 5873 5542 
918 5456 5457 5458 5459 5460 5461 5462 5463 
919 5464 5465 5466 5467 5468 5469 5470 
920 5471 5472 5473 5474 5475 5476 5477 
921 5834 5833 5480 5481 5482 
922 5483 5484 5485 5486 
923 5487 5488 5489 
924 5490 5491 5492 5493 5494 
925 5495 5496 5497 5498 5499 5757 5756 
926 5502 5503 5504 5505 5506 
927 5507 5508 5716 5715 5511 5512 
928 5513 5514 5515 5777 5776 
929 5518 5519 5520 5521 5522 5523 
930 5524 5525 5526 5527 5528 5529 5530 5531 5532 5533 5534 5535 5536 5537 5538 5539 5540 5541 
931 5542 5873 5877 5572 5571 
932 5627 5626 5549 5550 5551 5663 5662 
933 5554 5786 5785 5557 5558 5559 
934 5560 5561 5562 5563 
935 5564 5565 5566 5658 5657 5569 
936 5570 5571 5572 5720 5719 
937 5575 5576 5577 5578 5579 5580 
938 5703 5582 5698 
939 5584 5585 5586 5587 5588 
940 5589 5922 5921 5592 5593 5594 5595 5596 
941 5597 5598 5599 5600 5601 5602 
942 5603 5604 5605 5606 5607 
943 5608 5609 5610 5611 5612 5613 5800 5799 
944 5616 5617 5618 5619 5620 5621 5622 5623 
945 5624 5625 5626 5627 5628 5629 
946 5630 5631 5632 5633 5709 5708 
947 5636 5637 5638 5639 5640 5641 5642 5643 5644 5645 5646 5647 5648 5649 5650 
948 5651 5652 5653 5654 5655 
949 5656 5657 5658 5659 5660 5661 
950 5662 5663 5664 5665 
951 5666 5667 5668 5669 5962 5961 5672 
952 5673 5674 5675 5676 5677 
953 5850 5679 5680 5681 5845 
954 5743 5684 5685 5686 5687 5688 5689 5744 
955 5691 5692 5693 5694 5695 5696 5697 
956 5698 5699 5700 5701 5702 5703 
957 5864 5863 5706 5707 
958 5708 5709 5710 5711 5712 
959 5713 5714 5715 5716 5717 
960 5718 5719 5720 5721 5722 5723 5724 5725 5726 
961 5727 5842 5841 5730 5731 
962 5732 5733 5734 5735 5736 5737 5738 
963 5739 5740 5741 5742 5743 5744 5745 5746 5747 5748 5749 5750 5751 
964 5752 5753 5754 5755 5756 5757 
965 5758 5759 5760 5761 5932 5931 
966 5993 5992 5766 5767 5768 
967 5769 5770 5771 5772 5773 
968 5774 5775 5776 5777 5778 
969 5779 5780 5781 5782 5783 5784 5785 5786 5787 
970 5788 5789 5790 5791 5792 5793 
971 5794 5795 5796 5797 5798 
972 5799 5800 5801 5802 
973 5876 5875 5805 5806 5807 5808 5809 
974 5810 5811 5812 5813 5814 5815 
975 5816 5817 5818 5819 5820 5821 5822 5823 5824 5825 5826 5827 5828 5829 5830 5831 5832 5833 5834 
976 5835 5836 5837 5838 
977 5839 5840 5841 5842 5843 5844 
978 5845 5846 5847 5848 5849 5850 
979 5851 5852 5853 5854 5855 
980 5856 5857 5858 5859 5860 5861 5862 
981 5863 5864 5865 5866 5867 
982 5868 5973 5977 5871 5872 
983 5873 5874 5875 5876 5877 
984 5878 5888 5966 5965 5882 5883 
985 5884 5885 5964 5966 5888 5889 
986 5890 5891 5892 5893 5894 5895 5896 
987 5930 5929 5899 5900 5901 5902 5903 5904 5905 5906 5907 5908 5909 5910 
988 5911 5912 5913 5914 5915 5916 5917 
989 5918 5989 5988 5921 5922 5923 
990 5924 5925 5926 5927 5928 
991 5929 5930 5931 5932 5933 5934 5935 
992 5936 5937 5938 5939 5940 5941 
993 5942 5943 5944 5945 5946 5947 5948 5949 5950 5951 5952 5953 5954 5955 5956 5957 5958 5959 5960 5961 5962 5963 
994 5964 5965 5966 
995 5967 5968 5969 5970 5971 5972 
996 5973 5974 5975 5976 5977 
997 5978 5979 5980 5981 5982 5983 5984 
998 5985 5986 5987 5988 5989 
999 5990 5991 5992 5993 
